ISO-10303-21;
HEADER;
/* Generated by software containing ST-Developer
 * from STEP Tools, Inc. (www.steptools.com) 
 */
/* OPTION: using custom schema-name function */

FILE_DESCRIPTION(
/* description */ (''),
/* implementation_level */ '2;1');

FILE_NAME(
/* name */ '16 ohm 36 mm speaker.stp',
/* time_stamp */ '2026-06-01T10:01:54-07:00',
/* author */ (''),
/* organization */ (''),
/* preprocessor_version */ 'ST-DEVELOPER v20',
/* originating_system */ 'SIEMENS PLM Software NX2406.5001',
/* authorisation */ '');

FILE_SCHEMA (('AP203_CONFIGURATION_CONTROLLED_3D_DESIGN_OF_MECHANICAL_PARTS_AND_ASSEMBLIES_MIM_LF { 1 0 10303 403 2 1 2}'));
ENDSEC;

DATA;
#10=SHAPE_REPRESENTATION_RELATIONSHIP('None',
'relationship between speaker 16 ohm-None and speaker 16 ohm-None',#76,
#11);
#11=ADVANCED_BREP_SHAPE_REPRESENTATION('speaker 16 ohm-None',(#86),#650);
#12=APPLIED_APPROVAL_ASSIGNMENT(#24,(#66));
#13=APPLIED_APPROVAL_ASSIGNMENT(#25,(#68));
#14=APPLIED_APPROVAL_ASSIGNMENT(#26,(#38));
#15=APPROVAL_PERSON_ORGANIZATION(#30,#24,#18);
#16=APPROVAL_PERSON_ORGANIZATION(#31,#25,#19);
#17=APPROVAL_PERSON_ORGANIZATION(#32,#26,#20);
#18=APPROVAL_ROLE('approver');
#19=APPROVAL_ROLE('approver');
#20=APPROVAL_ROLE('approver');
#21=APPROVAL_DATE_TIME(#46,#24);
#22=APPROVAL_DATE_TIME(#47,#25);
#23=APPROVAL_DATE_TIME(#48,#26);
#24=APPROVAL(#27,' ');
#25=APPROVAL(#28,' ');
#26=APPROVAL(#29,' ');
#27=APPROVAL_STATUS('not_yet_approved');
#28=APPROVAL_STATUS('not_yet_approved');
#29=APPROVAL_STATUS('not_yet_approved');
#30=PERSON_AND_ORGANIZATION(#36,#33);
#31=PERSON_AND_ORGANIZATION(#36,#34);
#32=PERSON_AND_ORGANIZATION(#36,#35);
#33=ORGANIZATION(' ',' ',' ');
#34=ORGANIZATION(' ',' ',' ');
#35=ORGANIZATION(' ',' ',' ');
#36=PERSON(' ',' ',' ',(' '),$,$);
#37=APPLIED_SECURITY_CLASSIFICATION_ASSIGNMENT(#38,(#68));
#38=SECURITY_CLASSIFICATION(' ',' ',#39);
#39=SECURITY_CLASSIFICATION_LEVEL('confidential');
#40=APPLIED_DATE_AND_TIME_ASSIGNMENT(#44,#42,(#66));
#41=APPLIED_DATE_AND_TIME_ASSIGNMENT(#45,#43,(#38));
#42=DATE_TIME_ROLE('creation_date');
#43=DATE_TIME_ROLE('classification_date');
#44=DATE_AND_TIME(#59,#49);
#45=DATE_AND_TIME(#60,#50);
#46=DATE_AND_TIME(#61,#51);
#47=DATE_AND_TIME(#62,#52);
#48=DATE_AND_TIME(#63,#53);
#49=LOCAL_TIME(0,0,0.,#54);
#50=LOCAL_TIME(0,0,0.,#55);
#51=LOCAL_TIME(0,0,0.,#56);
#52=LOCAL_TIME(0,0,0.,#57);
#53=LOCAL_TIME(0,0,0.,#58);
#54=COORDINATED_UNIVERSAL_TIME_OFFSET(0,0,.BEHIND.);
#55=COORDINATED_UNIVERSAL_TIME_OFFSET(0,0,.BEHIND.);
#56=COORDINATED_UNIVERSAL_TIME_OFFSET(0,0,.BEHIND.);
#57=COORDINATED_UNIVERSAL_TIME_OFFSET(0,0,.BEHIND.);
#58=COORDINATED_UNIVERSAL_TIME_OFFSET(0,0,.BEHIND.);
#59=CALENDAR_DATE(0,1,1);
#60=CALENDAR_DATE(0,1,1);
#61=CALENDAR_DATE(0,1,1);
#62=CALENDAR_DATE(0,1,1);
#63=CALENDAR_DATE(0,1,1);
#64=SHAPE_DEFINITION_REPRESENTATION(#65,#76);
#65=PRODUCT_DEFINITION_SHAPE('','',#66);
#66=PRODUCT_DEFINITION(' ','',#68,#67);
#67=PRODUCT_DEFINITION_CONTEXT('part definition',#75,'design');
#68=PRODUCT_DEFINITION_FORMATION_WITH_SPECIFIED_SOURCE(' ',' ',#70,
 .NOT_KNOWN.);
#69=PRODUCT_RELATED_PRODUCT_CATEGORY('detail','',(#70));
#70=PRODUCT('speaker 16 ohm','speaker 16 ohm',' ',(#73));
#71=PRODUCT_CATEGORY('part',' ');
#72=PRODUCT_CATEGORY(' ','');
#73=PRODUCT_CONTEXT(' ',#75,'mechanical');
#74=APPLICATION_PROTOCOL_DEFINITION('international standard',
'config_control_design',2010,#75);
#75=APPLICATION_CONTEXT(
'configuration controlled 3D designs of mechanical parts and assemblie
s');
#76=SHAPE_REPRESENTATION('speaker 16 ohm-None',(#392),#650);
#77=PRESENTATION_LAYER_ASSIGNMENT('1','Layer 1',(#86));
#78=STYLED_ITEM('',(#79),#86);
#79=PRESENTATION_STYLE_ASSIGNMENT((#80));
#80=SURFACE_STYLE_USAGE(.BOTH.,#81);
#81=SURFACE_SIDE_STYLE('',(#82));
#82=SURFACE_STYLE_FILL_AREA(#83);
#83=FILL_AREA_STYLE('',(#84));
#84=FILL_AREA_STYLE_COLOUR('',#85);
#85=COLOUR_RGB('medium steel',0.611764705882353,0.658823529411765,0.670588235294118);
#86=MANIFOLD_SOLID_BREP('',#87);
#87=CLOSED_SHELL('',(#118,#119,#120,#121,#122,#123,#124,#125,#126,#127,
#128,#129,#130,#131,#132,#133,#134,#135,#136,#137,#138,#139,#140,#141,#142));
#88=SPHERICAL_SURFACE('',#428,0.20317467438);
#89=CONICAL_SURFACE('',#417,0.46242071280384,83.414700251534);
#90=CONICAL_SURFACE('',#420,0.308443368382154,36.9440789235802);
#91=CONICAL_SURFACE('',#423,0.29,80.8085042431728);
#92=CONICAL_SURFACE('',#426,0.192,56.6211741511826);
#93=TOROIDAL_SURFACE('',#401,0.59,0.035);
#94=TOROIDAL_SURFACE('',#415,0.48099936738705,0.162001092963175);
#95=TOROIDAL_SURFACE('',#430,0.279092110859377,0.025);
#96=TOROIDAL_SURFACE('',#431,0.319811348086197,0.025);
#97=TOROIDAL_SURFACE('',#432,0.126072952289763,0.035);
#98=TOROIDAL_SURFACE('',#433,0.199869694894838,0.035);
#99=TOROIDAL_SURFACE('',#434,0.6735,0.035);
#100=TOROIDAL_SURFACE('',#435,0.64388877434123,0.02);
#101=B_SPLINE_CURVE_WITH_KNOTS('',3,(#570,#571,#572,#573,#574,#575,#576,
#577,#578,#579),.UNSPECIFIED.,.F.,.F.,(4,3,3,4),(0.,0.0465486130141295,
0.722078252587085,1.),.UNSPECIFIED.);
#102=B_SPLINE_CURVE_WITH_KNOTS('',3,(#580,#581,#582,#583,#584,#585,#586),
 .UNSPECIFIED.,.F.,.F.,(4,3,4),(0.,0.953972678416755,1.),.UNSPECIFIED.);
#103=PLANE('',#398);
#104=PLANE('',#404);
#105=PLANE('',#409);
#106=PLANE('',#413);
#107=PLANE('',#429);
#108=PLANE('',#436);
#109=PLANE('',#437);
#110=PLANE('',#440);
#111=FACE_OUTER_BOUND('',#201,.T.);
#112=FACE_OUTER_BOUND('',#224,.T.);
#113=FACE_OUTER_BOUND('',#225,.T.);
#114=FACE_OUTER_BOUND('',#238,.T.);
#115=FACE_OUTER_BOUND('',#239,.T.);
#116=FACE_OUTER_BOUND('',#240,.T.);
#117=FACE_OUTER_BOUND('',#241,.T.);
#118=ADVANCED_FACE('',(#163,#164),#143,.T.);
#119=ADVANCED_FACE('',(#111),#103,.F.);
#120=ADVANCED_FACE('',(#165,#166),#93,.T.);
#121=ADVANCED_FACE('',(#167,#168),#104,.F.);
#122=ADVANCED_FACE('',(#169,#170),#144,.T.);
#123=ADVANCED_FACE('',(#171,#172),#105,.F.);
#124=ADVANCED_FACE('',(#173,#174),#145,.F.);
#125=ADVANCED_FACE('',(#175,#176),#106,.F.);
#126=ADVANCED_FACE('',(#177,#178),#94,.F.);
#127=ADVANCED_FACE('',(#179,#180),#89,.T.);
#128=ADVANCED_FACE('',(#181,#182),#90,.F.);
#129=ADVANCED_FACE('',(#183,#184),#91,.T.);
#130=ADVANCED_FACE('',(#185,#186),#92,.F.);
#131=ADVANCED_FACE('',(#112),#88,.T.);
#132=ADVANCED_FACE('',(#113),#107,.F.);
#133=ADVANCED_FACE('',(#187,#188),#95,.F.);
#134=ADVANCED_FACE('',(#189,#190),#96,.T.);
#135=ADVANCED_FACE('',(#191,#192),#97,.F.);
#136=ADVANCED_FACE('',(#193,#194),#98,.T.);
#137=ADVANCED_FACE('',(#195,#196),#99,.T.);
#138=ADVANCED_FACE('',(#197,#198),#100,.F.);
#139=ADVANCED_FACE('',(#114),#108,.F.);
#140=ADVANCED_FACE('',(#115),#109,.F.);
#141=ADVANCED_FACE('',(#116),#146,.T.);
#142=ADVANCED_FACE('',(#117),#110,.T.);
#143=CYLINDRICAL_SURFACE('',#396,0.329);
#144=CYLINDRICAL_SURFACE('',#407,0.7085);
#145=CYLINDRICAL_SURFACE('',#411,0.610029478147645);
#146=CYLINDRICAL_SURFACE('',#439,0.6);
#147=LINE('',#550,#155);
#148=LINE('',#555,#156);
#149=LINE('',#559,#157);
#150=LINE('',#561,#158);
#151=LINE('',#638,#159);
#152=LINE('',#640,#160);
#153=LINE('',#642,#161);
#154=LINE('',#644,#162);
#155=VECTOR('',#445,1.);
#156=VECTOR('',#448,1.);
#157=VECTOR('',#453,1.);
#158=VECTOR('',#454,1.);
#159=VECTOR('',#533,1.);
#160=VECTOR('',#534,1.);
#161=VECTOR('',#537,1.);
#162=VECTOR('',#538,1.);
#163=FACE_BOUND('',#199,.T.);
#164=FACE_BOUND('',#200,.T.);
#165=FACE_BOUND('',#202,.T.);
#166=FACE_BOUND('',#203,.T.);
#167=FACE_BOUND('',#204,.T.);
#168=FACE_BOUND('',#205,.T.);
#169=FACE_BOUND('',#206,.T.);
#170=FACE_BOUND('',#207,.T.);
#171=FACE_BOUND('',#208,.T.);
#172=FACE_BOUND('',#209,.T.);
#173=FACE_BOUND('',#210,.T.);
#174=FACE_BOUND('',#211,.T.);
#175=FACE_BOUND('',#212,.T.);
#176=FACE_BOUND('',#213,.T.);
#177=FACE_BOUND('',#214,.T.);
#178=FACE_BOUND('',#215,.T.);
#179=FACE_BOUND('',#216,.T.);
#180=FACE_BOUND('',#217,.T.);
#181=FACE_BOUND('',#218,.T.);
#182=FACE_BOUND('',#219,.T.);
#183=FACE_BOUND('',#220,.T.);
#184=FACE_BOUND('',#221,.T.);
#185=FACE_BOUND('',#222,.T.);
#186=FACE_BOUND('',#223,.T.);
#187=FACE_BOUND('',#226,.T.);
#188=FACE_BOUND('',#227,.T.);
#189=FACE_BOUND('',#228,.T.);
#190=FACE_BOUND('',#229,.T.);
#191=FACE_BOUND('',#230,.T.);
#192=FACE_BOUND('',#231,.T.);
#193=FACE_BOUND('',#232,.T.);
#194=FACE_BOUND('',#233,.T.);
#195=FACE_BOUND('',#234,.T.);
#196=FACE_BOUND('',#235,.T.);
#197=FACE_BOUND('',#236,.T.);
#198=FACE_BOUND('',#237,.T.);
#199=EDGE_LOOP('',(#242));
#200=EDGE_LOOP('',(#243,#244,#245,#246));
#201=EDGE_LOOP('',(#247,#248,#249,#250));
#202=EDGE_LOOP('',(#251));
#203=EDGE_LOOP('',(#252,#253,#254,#255));
#204=EDGE_LOOP('',(#256));
#205=EDGE_LOOP('',(#257));
#206=EDGE_LOOP('',(#258));
#207=EDGE_LOOP('',(#259));
#208=EDGE_LOOP('',(#260));
#209=EDGE_LOOP('',(#261));
#210=EDGE_LOOP('',(#262));
#211=EDGE_LOOP('',(#263));
#212=EDGE_LOOP('',(#264));
#213=EDGE_LOOP('',(#265));
#214=EDGE_LOOP('',(#266));
#215=EDGE_LOOP('',(#267));
#216=EDGE_LOOP('',(#268));
#217=EDGE_LOOP('',(#269));
#218=EDGE_LOOP('',(#270));
#219=EDGE_LOOP('',(#271));
#220=EDGE_LOOP('',(#272));
#221=EDGE_LOOP('',(#273));
#222=EDGE_LOOP('',(#274));
#223=EDGE_LOOP('',(#275));
#224=EDGE_LOOP('',(#276));
#225=EDGE_LOOP('',(#277));
#226=EDGE_LOOP('',(#278));
#227=EDGE_LOOP('',(#279));
#228=EDGE_LOOP('',(#280));
#229=EDGE_LOOP('',(#281));
#230=EDGE_LOOP('',(#282));
#231=EDGE_LOOP('',(#283));
#232=EDGE_LOOP('',(#284));
#233=EDGE_LOOP('',(#285));
#234=EDGE_LOOP('',(#286));
#235=EDGE_LOOP('',(#287));
#236=EDGE_LOOP('',(#288));
#237=EDGE_LOOP('',(#289));
#238=EDGE_LOOP('',(#290,#291,#292,#293,#294));
#239=EDGE_LOOP('',(#295,#296,#297,#298,#299));
#240=EDGE_LOOP('',(#300,#301,#302,#303));
#241=EDGE_LOOP('',(#304,#305,#306,#307));
#242=ORIENTED_EDGE('',*,*,#336,.T.);
#243=ORIENTED_EDGE('',*,*,#337,.F.);
#244=ORIENTED_EDGE('',*,*,#338,.T.);
#245=ORIENTED_EDGE('',*,*,#339,.F.);
#246=ORIENTED_EDGE('',*,*,#340,.F.);
#247=ORIENTED_EDGE('',*,*,#341,.T.);
#248=ORIENTED_EDGE('',*,*,#340,.T.);
#249=ORIENTED_EDGE('',*,*,#342,.T.);
#250=ORIENTED_EDGE('',*,*,#343,.T.);
#251=ORIENTED_EDGE('',*,*,#344,.T.);
#252=ORIENTED_EDGE('',*,*,#345,.F.);
#253=ORIENTED_EDGE('',*,*,#346,.F.);
#254=ORIENTED_EDGE('',*,*,#343,.F.);
#255=ORIENTED_EDGE('',*,*,#347,.F.);
#256=ORIENTED_EDGE('',*,*,#348,.T.);
#257=ORIENTED_EDGE('',*,*,#349,.T.);
#258=ORIENTED_EDGE('',*,*,#350,.T.);
#259=ORIENTED_EDGE('',*,*,#351,.F.);
#260=ORIENTED_EDGE('',*,*,#352,.F.);
#261=ORIENTED_EDGE('',*,*,#351,.T.);
#262=ORIENTED_EDGE('',*,*,#353,.F.);
#263=ORIENTED_EDGE('',*,*,#352,.T.);
#264=ORIENTED_EDGE('',*,*,#354,.F.);
#265=ORIENTED_EDGE('',*,*,#353,.T.);
#266=ORIENTED_EDGE('',*,*,#355,.F.);
#267=ORIENTED_EDGE('',*,*,#354,.T.);
#268=ORIENTED_EDGE('',*,*,#355,.T.);
#269=ORIENTED_EDGE('',*,*,#356,.T.);
#270=ORIENTED_EDGE('',*,*,#357,.T.);
#271=ORIENTED_EDGE('',*,*,#358,.T.);
#272=ORIENTED_EDGE('',*,*,#359,.T.);
#273=ORIENTED_EDGE('',*,*,#360,.T.);
#274=ORIENTED_EDGE('',*,*,#361,.T.);
#275=ORIENTED_EDGE('',*,*,#362,.T.);
#276=ORIENTED_EDGE('',*,*,#363,.T.);
#277=ORIENTED_EDGE('',*,*,#336,.F.);
#278=ORIENTED_EDGE('',*,*,#358,.F.);
#279=ORIENTED_EDGE('',*,*,#360,.F.);
#280=ORIENTED_EDGE('',*,*,#356,.F.);
#281=ORIENTED_EDGE('',*,*,#357,.F.);
#282=ORIENTED_EDGE('',*,*,#361,.F.);
#283=ORIENTED_EDGE('',*,*,#363,.F.);
#284=ORIENTED_EDGE('',*,*,#359,.F.);
#285=ORIENTED_EDGE('',*,*,#362,.F.);
#286=ORIENTED_EDGE('',*,*,#349,.F.);
#287=ORIENTED_EDGE('',*,*,#350,.F.);
#288=ORIENTED_EDGE('',*,*,#344,.F.);
#289=ORIENTED_EDGE('',*,*,#348,.F.);
#290=ORIENTED_EDGE('',*,*,#364,.T.);
#291=ORIENTED_EDGE('',*,*,#337,.T.);
#292=ORIENTED_EDGE('',*,*,#341,.F.);
#293=ORIENTED_EDGE('',*,*,#346,.T.);
#294=ORIENTED_EDGE('',*,*,#365,.T.);
#295=ORIENTED_EDGE('',*,*,#342,.F.);
#296=ORIENTED_EDGE('',*,*,#339,.T.);
#297=ORIENTED_EDGE('',*,*,#366,.T.);
#298=ORIENTED_EDGE('',*,*,#367,.F.);
#299=ORIENTED_EDGE('',*,*,#347,.T.);
#300=ORIENTED_EDGE('',*,*,#345,.T.);
#301=ORIENTED_EDGE('',*,*,#367,.T.);
#302=ORIENTED_EDGE('',*,*,#368,.T.);
#303=ORIENTED_EDGE('',*,*,#365,.F.);
#304=ORIENTED_EDGE('',*,*,#338,.F.);
#305=ORIENTED_EDGE('',*,*,#364,.F.);
#306=ORIENTED_EDGE('',*,*,#368,.F.);
#307=ORIENTED_EDGE('',*,*,#366,.F.);
#308=VERTEX_POINT('',#549);
#309=VERTEX_POINT('',#551);
#310=VERTEX_POINT('',#552);
#311=VERTEX_POINT('',#554);
#312=VERTEX_POINT('',#556);
#313=VERTEX_POINT('',#560);
#314=VERTEX_POINT('',#562);
#315=VERTEX_POINT('',#566);
#316=VERTEX_POINT('',#568);
#317=VERTEX_POINT('',#569);
#318=VERTEX_POINT('',#589);
#319=VERTEX_POINT('',#591);
#320=VERTEX_POINT('',#594);
#321=VERTEX_POINT('',#596);
#322=VERTEX_POINT('',#599);
#323=VERTEX_POINT('',#602);
#324=VERTEX_POINT('',#605);
#325=VERTEX_POINT('',#608);
#326=VERTEX_POINT('',#611);
#327=VERTEX_POINT('',#614);
#328=VERTEX_POINT('',#616);
#329=VERTEX_POINT('',#619);
#330=VERTEX_POINT('',#621);
#331=VERTEX_POINT('',#624);
#332=VERTEX_POINT('',#626);
#333=VERTEX_POINT('',#629);
#334=VERTEX_POINT('',#639);
#335=VERTEX_POINT('',#643);
#336=EDGE_CURVE('',#308,#308,#369,.T.);
#337=EDGE_CURVE('',#309,#310,#147,.T.);
#338=EDGE_CURVE('',#309,#311,#370,.T.);
#339=EDGE_CURVE('',#312,#311,#148,.T.);
#340=EDGE_CURVE('',#310,#312,#371,.T.);
#341=EDGE_CURVE('',#313,#310,#149,.T.);
#342=EDGE_CURVE('',#312,#314,#150,.T.);
#343=EDGE_CURVE('',#314,#313,#372,.T.);
#344=EDGE_CURVE('',#315,#315,#373,.T.);
#345=EDGE_CURVE('',#316,#317,#374,.T.);
#346=EDGE_CURVE('',#313,#316,#101,.T.);
#347=EDGE_CURVE('',#317,#314,#102,.T.);
#348=EDGE_CURVE('',#318,#318,#375,.T.);
#349=EDGE_CURVE('',#319,#319,#376,.T.);
#350=EDGE_CURVE('',#320,#320,#377,.T.);
#351=EDGE_CURVE('',#321,#321,#378,.T.);
#352=EDGE_CURVE('',#322,#322,#379,.T.);
#353=EDGE_CURVE('',#323,#323,#380,.T.);
#354=EDGE_CURVE('',#324,#324,#381,.T.);
#355=EDGE_CURVE('',#325,#325,#382,.T.);
#356=EDGE_CURVE('',#326,#326,#383,.T.);
#357=EDGE_CURVE('',#327,#327,#384,.T.);
#358=EDGE_CURVE('',#328,#328,#385,.T.);
#359=EDGE_CURVE('',#329,#329,#386,.T.);
#360=EDGE_CURVE('',#330,#330,#387,.T.);
#361=EDGE_CURVE('',#331,#331,#388,.T.);
#362=EDGE_CURVE('',#332,#332,#389,.T.);
#363=EDGE_CURVE('',#333,#333,#390,.T.);
#364=EDGE_CURVE('',#334,#309,#151,.T.);
#365=EDGE_CURVE('',#316,#334,#152,.T.);
#366=EDGE_CURVE('',#311,#335,#153,.T.);
#367=EDGE_CURVE('',#317,#335,#154,.T.);
#368=EDGE_CURVE('',#335,#334,#391,.T.);
#369=CIRCLE('',#393,0.329);
#370=CIRCLE('',#394,0.329);
#371=CIRCLE('',#395,0.329);
#372=CIRCLE('',#397,0.59);
#373=CIRCLE('',#399,0.624292856398964);
#374=CIRCLE('',#400,0.6);
#375=CIRCLE('',#402,0.64388877434123);
#376=CIRCLE('',#403,0.6735);
#377=CIRCLE('',#405,0.7085);
#378=CIRCLE('',#406,0.7085);
#379=CIRCLE('',#408,0.610029478147645);
#380=CIRCLE('',#410,0.610029478147645);
#381=CIRCLE('',#412,0.589);
#382=CIRCLE('',#414,0.46242071280384);
#383=CIRCLE('',#416,0.322678405067633);
#384=CIRCLE('',#418,0.299830785456543);
#385=CIRCLE('',#419,0.299072673489032);
#386=CIRCLE('',#421,0.205460408282315);
#387=CIRCLE('',#422,0.275098744154037);
#388=CIRCLE('',#424,0.145328978493458);
#389=CIRCLE('',#425,0.180613668691143);
#390=CIRCLE('',#427,0.107546409358076);
#391=CIRCLE('',#438,0.6);
#392=AXIS2_PLACEMENT_3D('',#547,#441,#442);
#393=AXIS2_PLACEMENT_3D('',#548,#443,#444);
#394=AXIS2_PLACEMENT_3D('',#553,#446,#447);
#395=AXIS2_PLACEMENT_3D('',#557,#449,#450);
#396=AXIS2_PLACEMENT_3D('',#558,#451,#452);
#397=AXIS2_PLACEMENT_3D('',#563,#455,#456);
#398=AXIS2_PLACEMENT_3D('',#564,#457,#458);
#399=AXIS2_PLACEMENT_3D('',#565,#459,#460);
#400=AXIS2_PLACEMENT_3D('',#567,#461,#462);
#401=AXIS2_PLACEMENT_3D('',#587,#463,#464);
#402=AXIS2_PLACEMENT_3D('',#588,#465,#466);
#403=AXIS2_PLACEMENT_3D('',#590,#467,#468);
#404=AXIS2_PLACEMENT_3D('',#592,#469,#470);
#405=AXIS2_PLACEMENT_3D('',#593,#471,#472);
#406=AXIS2_PLACEMENT_3D('',#595,#473,#474);
#407=AXIS2_PLACEMENT_3D('',#597,#475,#476);
#408=AXIS2_PLACEMENT_3D('',#598,#477,#478);
#409=AXIS2_PLACEMENT_3D('',#600,#479,#480);
#410=AXIS2_PLACEMENT_3D('',#601,#481,#482);
#411=AXIS2_PLACEMENT_3D('',#603,#483,#484);
#412=AXIS2_PLACEMENT_3D('',#604,#485,#486);
#413=AXIS2_PLACEMENT_3D('',#606,#487,#488);
#414=AXIS2_PLACEMENT_3D('',#607,#489,#490);
#415=AXIS2_PLACEMENT_3D('',#609,#491,#492);
#416=AXIS2_PLACEMENT_3D('',#610,#493,#494);
#417=AXIS2_PLACEMENT_3D('',#612,#495,#496);
#418=AXIS2_PLACEMENT_3D('',#613,#497,#498);
#419=AXIS2_PLACEMENT_3D('',#615,#499,#500);
#420=AXIS2_PLACEMENT_3D('',#617,#501,#502);
#421=AXIS2_PLACEMENT_3D('',#618,#503,#504);
#422=AXIS2_PLACEMENT_3D('',#620,#505,#506);
#423=AXIS2_PLACEMENT_3D('',#622,#507,#508);
#424=AXIS2_PLACEMENT_3D('',#623,#509,#510);
#425=AXIS2_PLACEMENT_3D('',#625,#511,#512);
#426=AXIS2_PLACEMENT_3D('',#627,#513,#514);
#427=AXIS2_PLACEMENT_3D('',#628,#515,#516);
#428=AXIS2_PLACEMENT_3D('',#630,#517,#518);
#429=AXIS2_PLACEMENT_3D('',#631,#519,#520);
#430=AXIS2_PLACEMENT_3D('',#632,#521,#522);
#431=AXIS2_PLACEMENT_3D('',#633,#523,#524);
#432=AXIS2_PLACEMENT_3D('',#634,#525,#526);
#433=AXIS2_PLACEMENT_3D('',#635,#527,#528);
#434=AXIS2_PLACEMENT_3D('',#636,#529,#530);
#435=AXIS2_PLACEMENT_3D('',#637,#531,#532);
#436=AXIS2_PLACEMENT_3D('',#641,#535,#536);
#437=AXIS2_PLACEMENT_3D('',#645,#539,#540);
#438=AXIS2_PLACEMENT_3D('',#646,#541,#542);
#439=AXIS2_PLACEMENT_3D('',#647,#543,#544);
#440=AXIS2_PLACEMENT_3D('',#648,#545,#546);
#441=DIRECTION('',(0.,0.,1.));
#442=DIRECTION('',(1.,0.,0.));
#443=DIRECTION('',(1.17145536458252E-15,1.,0.));
#444=DIRECTION('',(-1.,1.17145536458252E-15,0.));
#445=DIRECTION('',(1.17145536458252E-15,1.,0.));
#446=DIRECTION('',(0.,-1.,0.));
#447=DIRECTION('',(0.,0.,-1.));
#448=DIRECTION('',(-1.17145536458252E-15,-1.,0.));
#449=DIRECTION('',(1.17145536458252E-15,1.,0.));
#450=DIRECTION('',(-1.,1.16767818878127E-15,0.));
#451=DIRECTION('',(1.17145536458252E-15,1.,0.));
#452=DIRECTION('',(-1.,1.17145536458252E-15,0.));
#453=DIRECTION('',(0.,0.,1.));
#454=DIRECTION('',(0.,0.,-1.));
#455=DIRECTION('',(-1.17145536458252E-15,-1.,0.));
#456=DIRECTION('',(-1.,1.17203224304452E-15,0.));
#457=DIRECTION('',(1.17145536458252E-15,1.,0.));
#458=DIRECTION('',(-1.,1.17137202715334E-15,0.));
#459=DIRECTION('',(-1.17145536458252E-15,-1.,0.));
#460=DIRECTION('',(-1.,1.17602522721817E-15,0.));
#461=DIRECTION('',(-1.17145536458252E-15,-1.,0.));
#462=DIRECTION('',(-1.,1.16672674729411E-15,0.));
#463=DIRECTION('',(1.17145536458252E-15,1.,0.));
#464=DIRECTION('',(-1.,1.17469463727563E-15,0.));
#465=DIRECTION('',(1.17145536458252E-15,1.,0.));
#466=DIRECTION('',(-1.,1.16675150770611E-15,0.));
#467=DIRECTION('',(-1.17145536458252E-15,-1.,0.));
#468=DIRECTION('',(-1.,1.16615634473419E-15,0.));
#469=DIRECTION('',(1.17145536458252E-15,1.,0.));
#470=DIRECTION('',(-1.,1.17137202715334E-15,0.));
#471=DIRECTION('',(1.17145536458252E-15,1.,0.));
#472=DIRECTION('',(-1.,1.18084466910329E-15,0.));
#473=DIRECTION('',(1.17145536458252E-15,1.,0.));
#474=DIRECTION('',(-1.,1.15674579830526E-15,0.));
#475=DIRECTION('',(1.17145536458252E-15,1.,0.));
#476=DIRECTION('',(-1.,1.17145536458252E-15,0.));
#477=DIRECTION('',(1.17145536458252E-15,1.,0.));
#478=DIRECTION('',(-1.,1.17553351768242E-15,0.));
#479=DIRECTION('',(-1.17145536458252E-15,-1.,0.));
#480=DIRECTION('',(1.,-1.17180570802233E-15,0.));
#481=DIRECTION('',(1.17145536458252E-15,1.,0.));
#482=DIRECTION('',(-1.,1.17553351768242E-15,0.));
#483=DIRECTION('',(1.17145536458252E-15,1.,0.));
#484=DIRECTION('',(-1.,1.17145536458252E-15,0.));
#485=DIRECTION('',(1.17145536458252E-15,1.,0.));
#486=DIRECTION('',(-1.,1.15952801089315E-15,0.));
#487=DIRECTION('',(-1.17145536458252E-15,-1.,0.));
#488=DIRECTION('',(1.,-1.17137202715334E-15,0.));
#489=DIRECTION('',(1.17145536458252E-15,1.,0.));
#490=DIRECTION('',(-1.,1.18154222681765E-15,0.));
#491=DIRECTION('',(1.17145536458252E-15,1.,0.));
#492=DIRECTION('',(-1.,1.16836339098184E-15,0.));
#493=DIRECTION('',(-1.17145536458252E-15,-1.,0.));
#494=DIRECTION('',(-1.,1.16409742092938E-15,0.));
#495=DIRECTION('',(-1.17145536458252E-15,-1.,0.));
#496=DIRECTION('',(1.,-1.17545390091184E-15,0.));
#497=DIRECTION('',(1.17145536458252E-15,1.,0.));
#498=DIRECTION('',(1.,-1.19585801912393E-15,0.));
#499=DIRECTION('',(-1.17145536458252E-15,-1.,0.));
#500=DIRECTION('',(-1.,1.19888937021718E-15,0.));
#501=DIRECTION('',(1.17145536458252E-15,1.,0.));
#502=DIRECTION('',(-1.,1.12435445456172E-15,0.));
#503=DIRECTION('',(-1.17145536458252E-15,-1.,0.));
#504=DIRECTION('',(-1.,1.16341976268816E-15,0.));
#505=DIRECTION('',(1.17145536458252E-15,1.,0.));
#506=DIRECTION('',(1.,-1.17923820497699E-15,0.));
#507=DIRECTION('',(-1.17145536458252E-15,-1.,0.));
#508=DIRECTION('',(1.,-1.16989512545635E-15,0.));
#509=DIRECTION('',(-1.17145536458252E-15,-1.,0.));
#510=DIRECTION('',(-1.,1.17485515534468E-15,0.));
#511=DIRECTION('',(1.17145536458252E-15,1.,0.));
#512=DIRECTION('',(1.,-1.13440251233249E-15,0.));
#513=DIRECTION('',(1.17145536458252E-15,1.,0.));
#514=DIRECTION('',(-1.,1.23609630909228E-15,0.));
#515=DIRECTION('',(1.17145536458252E-15,1.,0.));
#516=DIRECTION('',(1.,-1.11131882911009E-15,0.));
#517=DIRECTION('',(1.23268770453989E-15,1.,0.));
#518=DIRECTION('',(1.,-1.17650834276003E-15,0.));
#519=DIRECTION('',(1.17145536458252E-15,1.,0.));
#520=DIRECTION('',(-1.,1.17145536458252E-15,0.));
#521=DIRECTION('',(1.17145536458252E-15,1.,0.));
#522=DIRECTION('',(-1.,1.17910013566331E-15,0.));
#523=DIRECTION('',(-1.17145536458252E-15,-1.,0.));
#524=DIRECTION('',(1.,-1.18840984011699E-15,0.));
#525=DIRECTION('',(-1.17145536458252E-15,-1.,0.));
#526=DIRECTION('',(1.,-1.16602164978356E-15,0.));
#527=DIRECTION('',(-1.17145536458252E-15,-1.,0.));
#528=DIRECTION('',(1.,-1.163133453589E-15,0.));
#529=DIRECTION('',(1.17145536458252E-15,1.,0.));
#530=DIRECTION('',(-1.,1.18084466910329E-15,0.));
#531=DIRECTION('',(1.17145536458252E-15,1.,0.));
#532=DIRECTION('',(-1.,1.18303897962099E-15,0.));
#533=DIRECTION('',(0.,0.,1.));
#534=DIRECTION('',(0.,-1.,0.));
#535=DIRECTION('',(1.,0.,0.));
#536=DIRECTION('',(0.,0.,-1.));
#537=DIRECTION('',(0.,0.,-1.));
#538=DIRECTION('',(0.,-1.,0.));
#539=DIRECTION('',(-1.,0.,0.));
#540=DIRECTION('',(0.,0.,1.));
#541=DIRECTION('',(0.,1.,0.));
#542=DIRECTION('',(1.,0.,6.12323399573677E-17));
#543=DIRECTION('',(0.,-1.,0.));
#544=DIRECTION('',(0.,0.,-1.));
#545=DIRECTION('',(0.,-1.,0.));
#546=DIRECTION('',(0.,0.,-1.));
#547=CARTESIAN_POINT('',(0.,0.,0.));
#548=CARTESIAN_POINT('',(4.51489223827818E-31,3.8540881494765E-16,0.));
#549=CARTESIAN_POINT('',(-0.329,7.70817629895301E-16,0.));
#550=CARTESIAN_POINT('',(-0.258499999999998,0.,-0.203515969889345));
#551=CARTESIAN_POINT('',(-0.258499999999998,0.03,-0.203515969889345));
#552=CARTESIAN_POINT('',(-0.258499999999998,0.0640000000000007,-0.203515969889345));
#553=CARTESIAN_POINT('',(3.51436609374757E-17,0.03,0.));
#554=CARTESIAN_POINT('',(0.258499999999998,0.03,-0.203515969889345));
#555=CARTESIAN_POINT('',(0.258499999999998,0.,-0.203515969889345));
#556=CARTESIAN_POINT('',(0.258499999999998,0.0640000000000001,-0.203515969889345));
#557=CARTESIAN_POINT('',(7.4973143333282E-17,0.0640000000000004,0.));
#558=CARTESIAN_POINT('',(0.,0.,0.));
#559=CARTESIAN_POINT('',(-0.258499999999998,0.0640000000000009,0.));
#560=CARTESIAN_POINT('',(-0.258499999999998,0.0640000000000009,-0.530356248195494));
#561=CARTESIAN_POINT('',(0.258499999999998,0.0640000000000003,0.));
#562=CARTESIAN_POINT('',(0.258499999999998,0.0640000000000003,-0.530356248195494));
#563=CARTESIAN_POINT('',(7.49731433332822E-17,0.0640000000000006,0.));
#564=CARTESIAN_POINT('',(0.329,0.0640000000000002,0.));
#565=CARTESIAN_POINT('',(1.07773893541593E-16,0.0920000000000009,0.));
#566=CARTESIAN_POINT('',(-0.624292856398963,0.0920000000000016,0.));
#567=CARTESIAN_POINT('',(7.66822736764707E-17,0.0654589803375037,0.));
#568=CARTESIAN_POINT('',(-0.258499999999998,0.0654589803375041,-0.541458908874903));
#569=CARTESIAN_POINT('',(0.258499999999998,0.0654589803375044,-0.541458908874903));
#570=CARTESIAN_POINT('',(-0.258499999999998,0.0640000000000009,-0.530356248195494));
#571=CARTESIAN_POINT('',(-0.258499999999998,0.0640000000000009,-0.530530501007165));
#572=CARTESIAN_POINT('',(-0.258499999999998,0.0640010515411999,-0.530704756995245));
#573=CARTESIAN_POINT('',(-0.258499999999998,0.0640031551591428,-0.530878997108785));
#574=CARTESIAN_POINT('',(-0.258499999999998,0.0640336626615375,-0.533405896396224));
#575=CARTESIAN_POINT('',(-0.258499999999998,0.064286930548863,-0.535940097572516));
#576=CARTESIAN_POINT('',(-0.258499999999998,0.0647614638568343,-0.538422227475682));
#577=CARTESIAN_POINT('',(-0.258499999999998,0.0649564886942639,-0.539442339178512));
#578=CARTESIAN_POINT('',(-0.258499999999998,0.0651891414690716,-0.540455988360332));
#579=CARTESIAN_POINT('',(-0.258499999999998,0.0654589803375041,-0.541458908874903));
#580=CARTESIAN_POINT('',(0.258499999999998,0.0654589803375044,-0.541458908874903));
#581=CARTESIAN_POINT('',(0.258499999999998,0.0645340785231506,-0.538021290680875));
#582=CARTESIAN_POINT('',(0.258499999999998,0.0640461306654236,-0.534438605980638));
#583=CARTESIAN_POINT('',(0.258499999999998,0.0640031551591432,-0.53087899710887));
#584=CARTESIAN_POINT('',(0.258499999999998,0.0640010515411996,-0.530704756995301));
#585=CARTESIAN_POINT('',(0.258499999999998,0.0640000000000003,-0.530530501007193));
#586=CARTESIAN_POINT('',(0.258499999999998,0.0640000000000003,-0.530356248195494));
#587=CARTESIAN_POINT('',(1.15974081093671E-16,0.0990000000000006,0.));
#588=CARTESIAN_POINT('',(1.26517179374914E-16,0.108000000000001,0.));
#589=CARTESIAN_POINT('',(-0.64388877434123,0.108000000000002,0.));
#590=CARTESIAN_POINT('',(1.26517179374914E-16,0.108000000000001,0.));
#591=CARTESIAN_POINT('',(-0.6735,0.108000000000002,0.));
#592=CARTESIAN_POINT('',(0.625,0.108,0.));
#593=CARTESIAN_POINT('',(1.67518117135302E-16,0.143000000000001,0.));
#594=CARTESIAN_POINT('',(-0.7085,0.143000000000002,0.));
#595=CARTESIAN_POINT('',(2.28433796093593E-16,0.195000000000001,0.));
#596=CARTESIAN_POINT('',(-0.708499999999999,0.195000000000002,0.));
#597=CARTESIAN_POINT('',(0.,0.,0.));
#598=CARTESIAN_POINT('',(2.28433796093593E-16,0.195000000000001,0.));
#599=CARTESIAN_POINT('',(-0.610029478147645,0.195000000000001,0.));
#600=CARTESIAN_POINT('',(0.7085,0.195,0.));
#601=CARTESIAN_POINT('',(1.65754086392186E-16,0.141494154539346,0.));
#602=CARTESIAN_POINT('',(-0.610029478147645,0.141494154539347,0.));
#603=CARTESIAN_POINT('',(0.,0.,0.));
#604=CARTESIAN_POINT('',(1.65754086392186E-16,0.141494154539346,0.));
#605=CARTESIAN_POINT('',(-0.589,0.141494154539347,0.));
#606=CARTESIAN_POINT('',(0.610029478147645,0.141494154539345,0.));
#607=CARTESIAN_POINT('',(1.1868070544112E-16,0.101310480133756,0.));
#608=CARTESIAN_POINT('',(-0.462420712803839,0.101310480133757,0.));
#609=CARTESIAN_POINT('',(2.73184799366426E-16,0.262242725862016,0.));
#610=CARTESIAN_POINT('',(1.37579097097301E-16,0.117442884515135,0.));
#611=CARTESIAN_POINT('',(-0.322678405067632,0.117442884515135,0.));
#612=CARTESIAN_POINT('',(1.1868070544112E-16,0.101310480133756,0.));
#613=CARTESIAN_POINT('',(1.26088087615923E-16,0.107633710534807,0.));
#614=CARTESIAN_POINT('',(0.299830785456543,0.107633710534807,0.));
#615=CARTESIAN_POINT('',(1.24907150289685E-16,0.106625616362428,0.));
#616=CARTESIAN_POINT('',(-0.299072673489031,0.106625616362429,0.));
#617=CARTESIAN_POINT('',(1.39504206986212E-16,0.119086233418657,0.));
#618=CARTESIAN_POINT('',(1.26799313236312E-16,0.108240840470691,0.));
#619=CARTESIAN_POINT('',(-0.205460408282314,0.108240840470691,0.));
#620=CARTESIAN_POINT('',(1.13598953364213E-16,0.0969724983117016,0.));
#621=CARTESIAN_POINT('',(0.275098744154037,0.0969724983117013,0.));
#622=CARTESIAN_POINT('',(1.10774331878781E-16,0.0945612912176629,0.));
#623=CARTESIAN_POINT('',(2.02479554686883E-16,0.0796697726289066,0.));
#624=CARTESIAN_POINT('',(-0.145328978493458,0.0796697726289068,0.));
#625=CARTESIAN_POINT('',(1.20562712102236E-16,0.102917034440489,0.));
#626=CARTESIAN_POINT('',(0.180613668691143,0.102917034440489,0.));
#627=CARTESIAN_POINT('',(1.29350813514539E-16,0.110418900647261,0.));
#628=CARTESIAN_POINT('',(2.01931580859991E-16,0.0792020007927279,0.));
#629=CARTESIAN_POINT('',(0.107546409358076,0.0792020007927278,0.));
#630=CARTESIAN_POINT('',(0.,-0.09317467438,0.));
#631=CARTESIAN_POINT('',(2.25744611913909E-31,1.92704407473825E-16,0.));
#632=CARTESIAN_POINT('',(1.42509299864267E-16,0.121651497933985,0.));
#633=CARTESIAN_POINT('',(1.0848593804134E-16,0.0926078289632502,0.));
#634=CARTESIAN_POINT('',(2.36717438652883E-16,0.108896566069902,0.));
#635=CARTESIAN_POINT('',(8.63248281362364E-17,0.0736902409994941,0.));
#636=CARTESIAN_POINT('',(1.67518117135302E-16,0.143000000000001,0.));
#637=CARTESIAN_POINT('',(1.03088072083263E-16,0.0880000000000008,0.));
#638=CARTESIAN_POINT('',(-0.258499999999998,0.03,-0.541458908874903));
#639=CARTESIAN_POINT('',(-0.258499999999998,0.03,-0.541458908874903));
#640=CARTESIAN_POINT('',(-0.258499999999998,0.214500000000002,-0.541458908874903));
#641=CARTESIAN_POINT('',(-0.258499999999998,0.214500000000002,-0.541458908874903));
#642=CARTESIAN_POINT('',(0.258499999999998,0.03,-0.196984136417126));
#643=CARTESIAN_POINT('',(0.258499999999998,0.03,-0.541458908874903));
#644=CARTESIAN_POINT('',(0.258499999999998,0.214500000000002,-0.541458908874903));
#645=CARTESIAN_POINT('',(0.258499999999998,0.214500000000002,-0.196984136417126));
#646=CARTESIAN_POINT('',(0.,0.03,0.));
#647=CARTESIAN_POINT('',(0.,0.214500000000002,0.));
#648=CARTESIAN_POINT('',(0.,0.03,0.));
#649=MECHANICAL_DESIGN_GEOMETRIC_PRESENTATION_REPRESENTATION('',(#78),#650);
#650=(
GEOMETRIC_REPRESENTATION_CONTEXT(3)
GLOBAL_UNCERTAINTY_ASSIGNED_CONTEXT((#651))
GLOBAL_UNIT_ASSIGNED_CONTEXT((#656,#653,#652))
REPRESENTATION_CONTEXT('16 ohm 36 mm speaker','TOP_LEVEL_ASSEMBLY_PART')
);
#651=UNCERTAINTY_MEASURE_WITH_UNIT(LENGTH_MEASURE(0.002),#656,
'DISTANCE_ACCURACY_VALUE','Maximum Tolerance applied to model');
#652=(
NAMED_UNIT(*)
SI_UNIT($,.STERADIAN.)
SOLID_ANGLE_UNIT()
);
#653=(
CONVERSION_BASED_UNIT('DEGREE',#654)
NAMED_UNIT(#658)
PLANE_ANGLE_UNIT()
);
#654=PLANE_ANGLE_MEASURE_WITH_UNIT(PLANE_ANGLE_MEASURE(0.0174532925),#655);
#655=(
NAMED_UNIT(*)
PLANE_ANGLE_UNIT()
SI_UNIT($,.RADIAN.)
);
#656=(
CONVERSION_BASED_UNIT('INCH',#659)
LENGTH_UNIT()
NAMED_UNIT(#657)
);
#657=DIMENSIONAL_EXPONENTS(1.,0.,0.,0.,0.,0.,0.);
#658=DIMENSIONAL_EXPONENTS(0.,0.,0.,0.,0.,0.,0.);
#659=LENGTH_MEASURE_WITH_UNIT(LENGTH_MEASURE(25.4),#660);
#660=(
LENGTH_UNIT()
NAMED_UNIT(*)
SI_UNIT(.MILLI.,.METRE.)
);
ENDSEC;
END-ISO-10303-21;
