ISO-10303-21;
HEADER;
/* Generated by software containing ST-Developer
 * from STEP Tools, Inc. (www.steptools.com) 
 */

FILE_DESCRIPTION(
/* description */ (''),
/* implementation_level */ '2;1');

FILE_NAME(
/* name */ 'Bottom case.step',
/* time_stamp */ '2026-09-15T13:42:36+05:30',
/* author */ (''),
/* organization */ (''),
/* preprocessor_version */ 'ST-DEVELOPER v20.2',
/* originating_system */ 'Autodesk Translation Framework v15.15.0.0',
/* authorisation */ '');

FILE_SCHEMA (('AP203_CONFIGURATION_CONTROLLED_3D_DESIGN_OF_MECHANICAL_PARTS_AND_ASSEMBLIES_MIM_LF { 1 0 10303 203 3 1 4 }',
'AUTOMOTIVE_DESIGN { 1 0 10303 214 3 1 1 }'));
ENDSEC;

DATA;
#10=MECHANICAL_DESIGN_GEOMETRIC_PRESENTATION_REPRESENTATION('',(#13),#1895);
#11=SHAPE_REPRESENTATION_RELATIONSHIP('SRR','None',#1902,#12);
#12=ADVANCED_BREP_SHAPE_REPRESENTATION('',(#14),#1894);
#13=STYLED_ITEM('',(#1911),#14);
#14=MANIFOLD_SOLID_BREP('Body2',#1147);
#15=ELLIPSE('',#1220,4.24264068711929,3.);
#16=ELLIPSE('',#1221,4.24264068711929,3.);
#17=ELLIPSE('',#1223,4.24264068711929,3.);
#18=ELLIPSE('',#1225,4.24264068711929,3.);
#19=ELLIPSE('',#1240,4.24264068711929,3.);
#20=ELLIPSE('',#1241,4.24264068711929,3.);
#21=ELLIPSE('',#1243,4.24264068711929,3.);
#22=ELLIPSE('',#1244,4.24264068711929,3.);
#23=TOROIDAL_SURFACE('',#1206,19.5,2.);
#24=TOROIDAL_SURFACE('',#1214,19.5,2.);
#25=FACE_BOUND('',#139,.T.);
#26=FACE_BOUND('',#144,.T.);
#27=FACE_BOUND('',#145,.T.);
#28=FACE_BOUND('',#149,.T.);
#29=FACE_BOUND('',#151,.T.);
#30=FACE_BOUND('',#152,.T.);
#31=FACE_BOUND('',#156,.T.);
#32=FACE_BOUND('',#170,.T.);
#33=FACE_BOUND('',#171,.T.);
#34=FACE_BOUND('',#174,.T.);
#35=FACE_BOUND('',#175,.T.);
#36=FACE_BOUND('',#200,.T.);
#37=FACE_BOUND('',#206,.T.);
#38=PLANE('',#1164);
#39=PLANE('',#1165);
#40=PLANE('',#1172);
#41=PLANE('',#1173);
#42=PLANE('',#1182);
#43=PLANE('',#1186);
#44=PLANE('',#1191);
#45=PLANE('',#1194);
#46=PLANE('',#1195);
#47=PLANE('',#1196);
#48=PLANE('',#1197);
#49=PLANE('',#1198);
#50=PLANE('',#1199);
#51=PLANE('',#1200);
#52=PLANE('',#1201);
#53=PLANE('',#1202);
#54=PLANE('',#1203);
#55=PLANE('',#1204);
#56=PLANE('',#1205);
#57=PLANE('',#1211);
#58=PLANE('',#1227);
#59=PLANE('',#1228);
#60=PLANE('',#1229);
#61=PLANE('',#1230);
#62=PLANE('',#1231);
#63=PLANE('',#1232);
#64=PLANE('',#1233);
#65=PLANE('',#1234);
#66=PLANE('',#1235);
#67=PLANE('',#1236);
#68=PLANE('',#1237);
#69=PLANE('',#1238);
#70=PLANE('',#1247);
#71=PLANE('',#1248);
#72=PLANE('',#1249);
#73=PLANE('',#1250);
#74=PLANE('',#1251);
#75=PLANE('',#1252);
#76=PLANE('',#1253);
#77=FACE_OUTER_BOUND('',#136,.T.);
#78=FACE_OUTER_BOUND('',#137,.T.);
#79=FACE_OUTER_BOUND('',#138,.T.);
#80=FACE_OUTER_BOUND('',#140,.T.);
#81=FACE_OUTER_BOUND('',#141,.T.);
#82=FACE_OUTER_BOUND('',#142,.T.);
#83=FACE_OUTER_BOUND('',#143,.T.);
#84=FACE_OUTER_BOUND('',#146,.T.);
#85=FACE_OUTER_BOUND('',#147,.T.);
#86=FACE_OUTER_BOUND('',#148,.T.);
#87=FACE_OUTER_BOUND('',#150,.T.);
#88=FACE_OUTER_BOUND('',#153,.T.);
#89=FACE_OUTER_BOUND('',#154,.T.);
#90=FACE_OUTER_BOUND('',#155,.T.);
#91=FACE_OUTER_BOUND('',#157,.T.);
#92=FACE_OUTER_BOUND('',#158,.T.);
#93=FACE_OUTER_BOUND('',#159,.T.);
#94=FACE_OUTER_BOUND('',#160,.T.);
#95=FACE_OUTER_BOUND('',#161,.T.);
#96=FACE_OUTER_BOUND('',#162,.T.);
#97=FACE_OUTER_BOUND('',#163,.T.);
#98=FACE_OUTER_BOUND('',#164,.T.);
#99=FACE_OUTER_BOUND('',#165,.T.);
#100=FACE_OUTER_BOUND('',#166,.T.);
#101=FACE_OUTER_BOUND('',#167,.T.);
#102=FACE_OUTER_BOUND('',#168,.T.);
#103=FACE_OUTER_BOUND('',#169,.T.);
#104=FACE_OUTER_BOUND('',#172,.T.);
#105=FACE_OUTER_BOUND('',#173,.T.);
#106=FACE_OUTER_BOUND('',#176,.T.);
#107=FACE_OUTER_BOUND('',#177,.T.);
#108=FACE_OUTER_BOUND('',#178,.T.);
#109=FACE_OUTER_BOUND('',#179,.T.);
#110=FACE_OUTER_BOUND('',#180,.T.);
#111=FACE_OUTER_BOUND('',#181,.T.);
#112=FACE_OUTER_BOUND('',#182,.T.);
#113=FACE_OUTER_BOUND('',#183,.T.);
#114=FACE_OUTER_BOUND('',#184,.T.);
#115=FACE_OUTER_BOUND('',#185,.T.);
#116=FACE_OUTER_BOUND('',#186,.T.);
#117=FACE_OUTER_BOUND('',#187,.T.);
#118=FACE_OUTER_BOUND('',#188,.T.);
#119=FACE_OUTER_BOUND('',#189,.T.);
#120=FACE_OUTER_BOUND('',#190,.T.);
#121=FACE_OUTER_BOUND('',#191,.T.);
#122=FACE_OUTER_BOUND('',#192,.T.);
#123=FACE_OUTER_BOUND('',#193,.T.);
#124=FACE_OUTER_BOUND('',#194,.T.);
#125=FACE_OUTER_BOUND('',#195,.T.);
#126=FACE_OUTER_BOUND('',#196,.T.);
#127=FACE_OUTER_BOUND('',#197,.T.);
#128=FACE_OUTER_BOUND('',#198,.T.);
#129=FACE_OUTER_BOUND('',#199,.T.);
#130=FACE_OUTER_BOUND('',#201,.T.);
#131=FACE_OUTER_BOUND('',#202,.T.);
#132=FACE_OUTER_BOUND('',#203,.T.);
#133=FACE_OUTER_BOUND('',#204,.T.);
#134=FACE_OUTER_BOUND('',#205,.T.);
#135=FACE_OUTER_BOUND('',#207,.T.);
#136=EDGE_LOOP('',(#750,#751,#752,#753));
#137=EDGE_LOOP('',(#754,#755,#756,#757,#758));
#138=EDGE_LOOP('',(#759,#760,#761,#762,#763,#764,#765,#766));
#139=EDGE_LOOP('',(#767,#768,#769,#770));
#140=EDGE_LOOP('',(#771,#772,#773,#774));
#141=EDGE_LOOP('',(#775,#776,#777,#778));
#142=EDGE_LOOP('',(#779,#780,#781,#782,#783));
#143=EDGE_LOOP('',(#784,#785,#786,#787,#788,#789,#790,#791));
#144=EDGE_LOOP('',(#792));
#145=EDGE_LOOP('',(#793));
#146=EDGE_LOOP('',(#794,#795,#796,#797));
#147=EDGE_LOOP('',(#798,#799,#800,#801));
#148=EDGE_LOOP('',(#802,#803,#804,#805,#806,#807,#808,#809));
#149=EDGE_LOOP('',(#810,#811,#812,#813,#814,#815,#816,#817));
#150=EDGE_LOOP('',(#818,#819,#820,#821));
#151=EDGE_LOOP('',(#822,#823,#824,#825));
#152=EDGE_LOOP('',(#826,#827,#828,#829));
#153=EDGE_LOOP('',(#830,#831,#832,#833));
#154=EDGE_LOOP('',(#834,#835,#836,#837));
#155=EDGE_LOOP('',(#838,#839,#840,#841));
#156=EDGE_LOOP('',(#842,#843,#844,#845));
#157=EDGE_LOOP('',(#846,#847,#848,#849));
#158=EDGE_LOOP('',(#850,#851,#852,#853));
#159=EDGE_LOOP('',(#854,#855,#856,#857));
#160=EDGE_LOOP('',(#858,#859,#860,#861,#862));
#161=EDGE_LOOP('',(#863,#864,#865,#866));
#162=EDGE_LOOP('',(#867,#868,#869,#870));
#163=EDGE_LOOP('',(#871,#872,#873,#874,#875,#876,#877,#878,#879,#880,#881,
#882));
#164=EDGE_LOOP('',(#883,#884,#885,#886));
#165=EDGE_LOOP('',(#887,#888,#889,#890));
#166=EDGE_LOOP('',(#891,#892,#893,#894));
#167=EDGE_LOOP('',(#895,#896,#897,#898));
#168=EDGE_LOOP('',(#899,#900,#901,#902,#903));
#169=EDGE_LOOP('',(#904,#905,#906,#907,#908,#909,#910,#911));
#170=EDGE_LOOP('',(#912,#913,#914,#915));
#171=EDGE_LOOP('',(#916,#917,#918,#919));
#172=EDGE_LOOP('',(#920,#921,#922,#923,#924));
#173=EDGE_LOOP('',(#925,#926,#927,#928));
#174=EDGE_LOOP('',(#929));
#175=EDGE_LOOP('',(#930));
#176=EDGE_LOOP('',(#931,#932,#933,#934,#935));
#177=EDGE_LOOP('',(#936,#937,#938,#939,#940));
#178=EDGE_LOOP('',(#941,#942,#943,#944,#945));
#179=EDGE_LOOP('',(#946,#947,#948,#949));
#180=EDGE_LOOP('',(#950,#951,#952,#953));
#181=EDGE_LOOP('',(#954,#955,#956,#957));
#182=EDGE_LOOP('',(#958,#959,#960,#961));
#183=EDGE_LOOP('',(#962,#963,#964,#965));
#184=EDGE_LOOP('',(#966,#967,#968,#969));
#185=EDGE_LOOP('',(#970,#971,#972,#973));
#186=EDGE_LOOP('',(#974,#975,#976,#977));
#187=EDGE_LOOP('',(#978,#979,#980,#981));
#188=EDGE_LOOP('',(#982,#983,#984,#985));
#189=EDGE_LOOP('',(#986,#987,#988,#989));
#190=EDGE_LOOP('',(#990,#991,#992,#993));
#191=EDGE_LOOP('',(#994,#995,#996,#997));
#192=EDGE_LOOP('',(#998,#999,#1000,#1001));
#193=EDGE_LOOP('',(#1002,#1003,#1004,#1005));
#194=EDGE_LOOP('',(#1006,#1007,#1008,#1009));
#195=EDGE_LOOP('',(#1010,#1011,#1012,#1013));
#196=EDGE_LOOP('',(#1014,#1015,#1016,#1017));
#197=EDGE_LOOP('',(#1018,#1019,#1020,#1021));
#198=EDGE_LOOP('',(#1022,#1023,#1024,#1025));
#199=EDGE_LOOP('',(#1026,#1027,#1028,#1029));
#200=EDGE_LOOP('',(#1030,#1031,#1032,#1033));
#201=EDGE_LOOP('',(#1034,#1035,#1036,#1037));
#202=EDGE_LOOP('',(#1038,#1039,#1040,#1041));
#203=EDGE_LOOP('',(#1042,#1043,#1044,#1045));
#204=EDGE_LOOP('',(#1046,#1047,#1048,#1049));
#205=EDGE_LOOP('',(#1050,#1051,#1052,#1053,#1054,#1055,#1056,#1057));
#206=EDGE_LOOP('',(#1058,#1059,#1060,#1061));
#207=EDGE_LOOP('',(#1062,#1063,#1064,#1065,#1066,#1067,#1068,#1069));
#208=LINE('',#1574,#334);
#209=LINE('',#1577,#335);
#210=LINE('',#1580,#336);
#211=LINE('',#1582,#337);
#212=LINE('',#1584,#338);
#213=LINE('',#1585,#339);
#214=LINE('',#1588,#340);
#215=LINE('',#1590,#341);
#216=LINE('',#1592,#342);
#217=LINE('',#1594,#343);
#218=LINE('',#1596,#344);
#219=LINE('',#1597,#345);
#220=LINE('',#1600,#346);
#221=LINE('',#1602,#347);
#222=LINE('',#1604,#348);
#223=LINE('',#1605,#349);
#224=LINE('',#1611,#350);
#225=LINE('',#1617,#351);
#226=LINE('',#1620,#352);
#227=LINE('',#1623,#353);
#228=LINE('',#1625,#354);
#229=LINE('',#1627,#355);
#230=LINE('',#1628,#356);
#231=LINE('',#1631,#357);
#232=LINE('',#1633,#358);
#233=LINE('',#1635,#359);
#234=LINE('',#1637,#360);
#235=LINE('',#1639,#361);
#236=LINE('',#1640,#362);
#237=LINE('',#1650,#363);
#238=LINE('',#1656,#364);
#239=LINE('',#1659,#365);
#240=LINE('',#1662,#366);
#241=LINE('',#1666,#367);
#242=LINE('',#1670,#368);
#243=LINE('',#1673,#369);
#244=LINE('',#1674,#370);
#245=LINE('',#1675,#371);
#246=LINE('',#1678,#372);
#247=LINE('',#1679,#373);
#248=LINE('',#1682,#374);
#249=LINE('',#1684,#375);
#250=LINE('',#1686,#376);
#251=LINE('',#1687,#377);
#252=LINE('',#1690,#378);
#253=LINE('',#1692,#379);
#254=LINE('',#1694,#380);
#255=LINE('',#1695,#381);
#256=LINE('',#1699,#382);
#257=LINE('',#1702,#383);
#258=LINE('',#1705,#384);
#259=LINE('',#1708,#385);
#260=LINE('',#1709,#386);
#261=LINE('',#1712,#387);
#262=LINE('',#1714,#388);
#263=LINE('',#1716,#389);
#264=LINE('',#1717,#390);
#265=LINE('',#1720,#391);
#266=LINE('',#1724,#392);
#267=LINE('',#1726,#393);
#268=LINE('',#1727,#394);
#269=LINE('',#1730,#395);
#270=LINE('',#1732,#396);
#271=LINE('',#1733,#397);
#272=LINE('',#1735,#398);
#273=LINE('',#1739,#399);
#274=LINE('',#1740,#400);
#275=LINE('',#1741,#401);
#276=LINE('',#1743,#402);
#277=LINE('',#1745,#403);
#278=LINE('',#1747,#404);
#279=LINE('',#1749,#405);
#280=LINE('',#1751,#406);
#281=LINE('',#1753,#407);
#282=LINE('',#1754,#408);
#283=LINE('',#1756,#409);
#284=LINE('',#1757,#410);
#285=LINE('',#1761,#411);
#286=LINE('',#1762,#412);
#287=LINE('',#1765,#413);
#288=LINE('',#1766,#414);
#289=LINE('',#1768,#415);
#290=LINE('',#1772,#416);
#291=LINE('',#1774,#417);
#292=LINE('',#1776,#418);
#293=LINE('',#1777,#419);
#294=LINE('',#1780,#420);
#295=LINE('',#1782,#421);
#296=LINE('',#1784,#422);
#297=LINE('',#1785,#423);
#298=LINE('',#1795,#424);
#299=LINE('',#1799,#425);
#300=LINE('',#1807,#426);
#301=LINE('',#1812,#427);
#302=LINE('',#1816,#428);
#303=LINE('',#1820,#429);
#304=LINE('',#1823,#430);
#305=LINE('',#1826,#431);
#306=LINE('',#1828,#432);
#307=LINE('',#1829,#433);
#308=LINE('',#1832,#434);
#309=LINE('',#1833,#435);
#310=LINE('',#1836,#436);
#311=LINE('',#1837,#437);
#312=LINE('',#1839,#438);
#313=LINE('',#1841,#439);
#314=LINE('',#1842,#440);
#315=LINE('',#1844,#441);
#316=LINE('',#1848,#442);
#317=LINE('',#1849,#443);
#318=LINE('',#1850,#444);
#319=LINE('',#1853,#445);
#320=LINE('',#1854,#446);
#321=LINE('',#1857,#447);
#322=LINE('',#1858,#448);
#323=LINE('',#1860,#449);
#324=LINE('',#1862,#450);
#325=LINE('',#1863,#451);
#326=LINE('',#1865,#452);
#327=LINE('',#1869,#453);
#328=LINE('',#1876,#454);
#329=LINE('',#1879,#455);
#330=LINE('',#1881,#456);
#331=LINE('',#1883,#457);
#332=LINE('',#1885,#458);
#333=LINE('',#1888,#459);
#334=VECTOR('',#1260,10.);
#335=VECTOR('',#1263,10.);
#336=VECTOR('',#1266,10.);
#337=VECTOR('',#1267,10.);
#338=VECTOR('',#1268,10.);
#339=VECTOR('',#1269,10.);
#340=VECTOR('',#1272,10.);
#341=VECTOR('',#1273,10.);
#342=VECTOR('',#1274,10.);
#343=VECTOR('',#1275,10.);
#344=VECTOR('',#1276,10.);
#345=VECTOR('',#1277,10.);
#346=VECTOR('',#1278,10.);
#347=VECTOR('',#1279,10.);
#348=VECTOR('',#1280,10.);
#349=VECTOR('',#1281,10.);
#350=VECTOR('',#1288,10.);
#351=VECTOR('',#1293,10.);
#352=VECTOR('',#1296,10.);
#353=VECTOR('',#1299,10.);
#354=VECTOR('',#1300,10.);
#355=VECTOR('',#1301,10.);
#356=VECTOR('',#1302,10.);
#357=VECTOR('',#1305,10.);
#358=VECTOR('',#1306,10.);
#359=VECTOR('',#1307,10.);
#360=VECTOR('',#1308,10.);
#361=VECTOR('',#1309,10.);
#362=VECTOR('',#1310,10.);
#363=VECTOR('',#1321,10.);
#364=VECTOR('',#1326,10.);
#365=VECTOR('',#1329,10.);
#366=VECTOR('',#1332,10.);
#367=VECTOR('',#1335,10.);
#368=VECTOR('',#1338,10.);
#369=VECTOR('',#1341,10.);
#370=VECTOR('',#1342,10.);
#371=VECTOR('',#1343,10.);
#372=VECTOR('',#1346,10.);
#373=VECTOR('',#1347,10.);
#374=VECTOR('',#1348,10.);
#375=VECTOR('',#1349,10.);
#376=VECTOR('',#1350,10.);
#377=VECTOR('',#1351,10.);
#378=VECTOR('',#1352,10.);
#379=VECTOR('',#1353,10.);
#380=VECTOR('',#1354,10.);
#381=VECTOR('',#1355,10.);
#382=VECTOR('',#1360,10.);
#383=VECTOR('',#1363,10.);
#384=VECTOR('',#1366,10.);
#385=VECTOR('',#1369,10.);
#386=VECTOR('',#1370,10.);
#387=VECTOR('',#1371,10.);
#388=VECTOR('',#1372,10.);
#389=VECTOR('',#1373,10.);
#390=VECTOR('',#1374,10.);
#391=VECTOR('',#1377,10.);
#392=VECTOR('',#1382,10.);
#393=VECTOR('',#1383,10.);
#394=VECTOR('',#1384,10.);
#395=VECTOR('',#1387,10.);
#396=VECTOR('',#1388,10.);
#397=VECTOR('',#1389,10.);
#398=VECTOR('',#1392,10.);
#399=VECTOR('',#1395,10.);
#400=VECTOR('',#1396,10.);
#401=VECTOR('',#1397,10.);
#402=VECTOR('',#1400,10.);
#403=VECTOR('',#1403,10.);
#404=VECTOR('',#1404,10.);
#405=VECTOR('',#1405,10.);
#406=VECTOR('',#1406,10.);
#407=VECTOR('',#1407,10.);
#408=VECTOR('',#1408,10.);
#409=VECTOR('',#1411,10.);
#410=VECTOR('',#1412,10.);
#411=VECTOR('',#1417,10.);
#412=VECTOR('',#1418,10.);
#413=VECTOR('',#1421,10.);
#414=VECTOR('',#1422,10.);
#415=VECTOR('',#1425,10.);
#416=VECTOR('',#1428,10.);
#417=VECTOR('',#1429,10.);
#418=VECTOR('',#1430,10.);
#419=VECTOR('',#1431,10.);
#420=VECTOR('',#1432,10.);
#421=VECTOR('',#1433,10.);
#422=VECTOR('',#1434,10.);
#423=VECTOR('',#1435,10.);
#424=VECTOR('',#1448,10.);
#425=VECTOR('',#1453,17.5);
#426=VECTOR('',#1464,17.5);
#427=VECTOR('',#1469,10.);
#428=VECTOR('',#1474,10.);
#429=VECTOR('',#1479,10.);
#430=VECTOR('',#1484,10.);
#431=VECTOR('',#1487,10.);
#432=VECTOR('',#1488,10.);
#433=VECTOR('',#1489,10.);
#434=VECTOR('',#1492,10.);
#435=VECTOR('',#1493,10.);
#436=VECTOR('',#1496,10.);
#437=VECTOR('',#1497,10.);
#438=VECTOR('',#1500,10.);
#439=VECTOR('',#1503,10.);
#440=VECTOR('',#1504,10.);
#441=VECTOR('',#1507,10.);
#442=VECTOR('',#1510,10.);
#443=VECTOR('',#1511,10.);
#444=VECTOR('',#1512,10.);
#445=VECTOR('',#1515,10.);
#446=VECTOR('',#1516,10.);
#447=VECTOR('',#1519,10.);
#448=VECTOR('',#1520,10.);
#449=VECTOR('',#1523,10.);
#450=VECTOR('',#1526,10.);
#451=VECTOR('',#1527,10.);
#452=VECTOR('',#1530,10.);
#453=VECTOR('',#1533,10.);
#454=VECTOR('',#1542,10.);
#455=VECTOR('',#1547,10.);
#456=VECTOR('',#1550,10.);
#457=VECTOR('',#1553,10.);
#458=VECTOR('',#1556,10.);
#459=VECTOR('',#1561,10.);
#460=CIRCLE('',#1162,2.);
#461=CIRCLE('',#1163,2.);
#462=CIRCLE('',#1167,2.);
#463=CIRCLE('',#1168,2.);
#464=CIRCLE('',#1170,2.);
#465=CIRCLE('',#1171,2.);
#466=CIRCLE('',#1174,17.5);
#467=CIRCLE('',#1175,17.5);
#468=CIRCLE('',#1177,2.);
#469=CIRCLE('',#1178,2.);
#470=CIRCLE('',#1180,3.);
#471=CIRCLE('',#1181,3.);
#472=CIRCLE('',#1183,3.);
#473=CIRCLE('',#1184,3.);
#474=CIRCLE('',#1185,3.);
#475=CIRCLE('',#1188,3.);
#476=CIRCLE('',#1190,3.);
#477=CIRCLE('',#1193,3.);
#478=CIRCLE('',#1207,19.5);
#479=CIRCLE('',#1208,2.);
#480=CIRCLE('',#1209,17.5);
#481=CIRCLE('',#1210,17.5);
#482=CIRCLE('',#1212,19.5);
#483=CIRCLE('',#1215,2.);
#484=CIRCLE('',#1216,17.5);
#485=CIRCLE('',#1217,17.5);
#486=VERTEX_POINT('',#1570);
#487=VERTEX_POINT('',#1571);
#488=VERTEX_POINT('',#1573);
#489=VERTEX_POINT('',#1575);
#490=VERTEX_POINT('',#1579);
#491=VERTEX_POINT('',#1581);
#492=VERTEX_POINT('',#1583);
#493=VERTEX_POINT('',#1587);
#494=VERTEX_POINT('',#1589);
#495=VERTEX_POINT('',#1591);
#496=VERTEX_POINT('',#1593);
#497=VERTEX_POINT('',#1595);
#498=VERTEX_POINT('',#1598);
#499=VERTEX_POINT('',#1599);
#500=VERTEX_POINT('',#1601);
#501=VERTEX_POINT('',#1603);
#502=VERTEX_POINT('',#1607);
#503=VERTEX_POINT('',#1609);
#504=VERTEX_POINT('',#1613);
#505=VERTEX_POINT('',#1614);
#506=VERTEX_POINT('',#1616);
#507=VERTEX_POINT('',#1618);
#508=VERTEX_POINT('',#1622);
#509=VERTEX_POINT('',#1624);
#510=VERTEX_POINT('',#1626);
#511=VERTEX_POINT('',#1630);
#512=VERTEX_POINT('',#1632);
#513=VERTEX_POINT('',#1634);
#514=VERTEX_POINT('',#1636);
#515=VERTEX_POINT('',#1638);
#516=VERTEX_POINT('',#1641);
#517=VERTEX_POINT('',#1643);
#518=VERTEX_POINT('',#1646);
#519=VERTEX_POINT('',#1648);
#520=VERTEX_POINT('',#1652);
#521=VERTEX_POINT('',#1653);
#522=VERTEX_POINT('',#1655);
#523=VERTEX_POINT('',#1657);
#524=VERTEX_POINT('',#1661);
#525=VERTEX_POINT('',#1663);
#526=VERTEX_POINT('',#1665);
#527=VERTEX_POINT('',#1667);
#528=VERTEX_POINT('',#1669);
#529=VERTEX_POINT('',#1671);
#530=VERTEX_POINT('',#1677);
#531=VERTEX_POINT('',#1680);
#532=VERTEX_POINT('',#1681);
#533=VERTEX_POINT('',#1683);
#534=VERTEX_POINT('',#1685);
#535=VERTEX_POINT('',#1688);
#536=VERTEX_POINT('',#1689);
#537=VERTEX_POINT('',#1691);
#538=VERTEX_POINT('',#1693);
#539=VERTEX_POINT('',#1697);
#540=VERTEX_POINT('',#1701);
#541=VERTEX_POINT('',#1703);
#542=VERTEX_POINT('',#1707);
#543=VERTEX_POINT('',#1710);
#544=VERTEX_POINT('',#1711);
#545=VERTEX_POINT('',#1713);
#546=VERTEX_POINT('',#1715);
#547=VERTEX_POINT('',#1719);
#548=VERTEX_POINT('',#1723);
#549=VERTEX_POINT('',#1725);
#550=VERTEX_POINT('',#1729);
#551=VERTEX_POINT('',#1731);
#552=VERTEX_POINT('',#1737);
#553=VERTEX_POINT('',#1738);
#554=VERTEX_POINT('',#1746);
#555=VERTEX_POINT('',#1748);
#556=VERTEX_POINT('',#1750);
#557=VERTEX_POINT('',#1752);
#558=VERTEX_POINT('',#1760);
#559=VERTEX_POINT('',#1764);
#560=VERTEX_POINT('',#1770);
#561=VERTEX_POINT('',#1771);
#562=VERTEX_POINT('',#1773);
#563=VERTEX_POINT('',#1775);
#564=VERTEX_POINT('',#1778);
#565=VERTEX_POINT('',#1779);
#566=VERTEX_POINT('',#1781);
#567=VERTEX_POINT('',#1783);
#568=VERTEX_POINT('',#1787);
#569=VERTEX_POINT('',#1789);
#570=VERTEX_POINT('',#1791);
#571=VERTEX_POINT('',#1796);
#572=VERTEX_POINT('',#1801);
#573=VERTEX_POINT('',#1803);
#574=VERTEX_POINT('',#1809);
#575=VERTEX_POINT('',#1811);
#576=VERTEX_POINT('',#1815);
#577=VERTEX_POINT('',#1819);
#578=VERTEX_POINT('',#1825);
#579=VERTEX_POINT('',#1827);
#580=VERTEX_POINT('',#1831);
#581=VERTEX_POINT('',#1835);
#582=VERTEX_POINT('',#1846);
#583=VERTEX_POINT('',#1847);
#584=VERTEX_POINT('',#1852);
#585=VERTEX_POINT('',#1856);
#586=VERTEX_POINT('',#1867);
#587=VERTEX_POINT('',#1868);
#588=VERTEX_POINT('',#1873);
#589=VERTEX_POINT('',#1875);
#590=EDGE_CURVE('',#486,#487,#460,.T.);
#591=EDGE_CURVE('',#486,#488,#208,.T.);
#592=EDGE_CURVE('',#488,#489,#461,.T.);
#593=EDGE_CURVE('',#489,#487,#209,.T.);
#594=EDGE_CURVE('',#490,#487,#210,.T.);
#595=EDGE_CURVE('',#490,#491,#211,.T.);
#596=EDGE_CURVE('',#491,#492,#212,.T.);
#597=EDGE_CURVE('',#486,#492,#213,.T.);
#598=EDGE_CURVE('',#493,#489,#214,.T.);
#599=EDGE_CURVE('',#494,#493,#215,.T.);
#600=EDGE_CURVE('',#494,#495,#216,.T.);
#601=EDGE_CURVE('',#495,#496,#217,.T.);
#602=EDGE_CURVE('',#497,#496,#218,.T.);
#603=EDGE_CURVE('',#497,#490,#219,.T.);
#604=EDGE_CURVE('',#498,#499,#220,.T.);
#605=EDGE_CURVE('',#499,#500,#221,.T.);
#606=EDGE_CURVE('',#500,#501,#222,.T.);
#607=EDGE_CURVE('',#501,#498,#223,.T.);
#608=EDGE_CURVE('',#494,#502,#462,.T.);
#609=EDGE_CURVE('',#493,#503,#463,.T.);
#610=EDGE_CURVE('',#503,#502,#224,.T.);
#611=EDGE_CURVE('',#504,#505,#464,.T.);
#612=EDGE_CURVE('',#504,#506,#225,.T.);
#613=EDGE_CURVE('',#506,#507,#465,.T.);
#614=EDGE_CURVE('',#507,#505,#226,.T.);
#615=EDGE_CURVE('',#508,#505,#227,.T.);
#616=EDGE_CURVE('',#508,#509,#228,.T.);
#617=EDGE_CURVE('',#509,#510,#229,.T.);
#618=EDGE_CURVE('',#504,#510,#230,.T.);
#619=EDGE_CURVE('',#511,#507,#231,.T.);
#620=EDGE_CURVE('',#512,#511,#232,.T.);
#621=EDGE_CURVE('',#512,#513,#233,.T.);
#622=EDGE_CURVE('',#513,#514,#234,.T.);
#623=EDGE_CURVE('',#515,#514,#235,.T.);
#624=EDGE_CURVE('',#515,#508,#236,.T.);
#625=EDGE_CURVE('',#516,#516,#466,.T.);
#626=EDGE_CURVE('',#517,#517,#467,.T.);
#627=EDGE_CURVE('',#512,#518,#468,.T.);
#628=EDGE_CURVE('',#511,#519,#469,.T.);
#629=EDGE_CURVE('',#519,#518,#237,.T.);
#630=EDGE_CURVE('',#520,#521,#470,.T.);
#631=EDGE_CURVE('',#521,#522,#238,.T.);
#632=EDGE_CURVE('',#522,#523,#471,.T.);
#633=EDGE_CURVE('',#523,#520,#239,.T.);
#634=EDGE_CURVE('',#520,#524,#240,.T.);
#635=EDGE_CURVE('',#525,#524,#472,.T.);
#636=EDGE_CURVE('',#525,#526,#241,.T.);
#637=EDGE_CURVE('',#527,#526,#473,.T.);
#638=EDGE_CURVE('',#527,#528,#242,.T.);
#639=EDGE_CURVE('',#529,#528,#474,.T.);
#640=EDGE_CURVE('',#529,#521,#243,.T.);
#641=EDGE_CURVE('',#488,#519,#244,.T.);
#642=EDGE_CURVE('',#506,#503,#245,.T.);
#643=EDGE_CURVE('',#530,#523,#246,.T.);
#644=EDGE_CURVE('',#524,#530,#247,.T.);
#645=EDGE_CURVE('',#531,#532,#248,.T.);
#646=EDGE_CURVE('',#533,#531,#249,.T.);
#647=EDGE_CURVE('',#534,#533,#250,.T.);
#648=EDGE_CURVE('',#532,#534,#251,.T.);
#649=EDGE_CURVE('',#535,#536,#252,.T.);
#650=EDGE_CURVE('',#537,#535,#253,.T.);
#651=EDGE_CURVE('',#538,#537,#254,.T.);
#652=EDGE_CURVE('',#536,#538,#255,.T.);
#653=EDGE_CURVE('',#530,#539,#475,.T.);
#654=EDGE_CURVE('',#539,#525,#256,.T.);
#655=EDGE_CURVE('',#528,#540,#257,.T.);
#656=EDGE_CURVE('',#540,#541,#476,.T.);
#657=EDGE_CURVE('',#541,#529,#258,.T.);
#658=EDGE_CURVE('',#542,#527,#259,.T.);
#659=EDGE_CURVE('',#540,#542,#260,.T.);
#660=EDGE_CURVE('',#543,#544,#261,.T.);
#661=EDGE_CURVE('',#545,#543,#262,.T.);
#662=EDGE_CURVE('',#546,#545,#263,.T.);
#663=EDGE_CURVE('',#544,#546,#264,.T.);
#664=EDGE_CURVE('',#526,#547,#265,.T.);
#665=EDGE_CURVE('',#547,#542,#477,.T.);
#666=EDGE_CURVE('',#514,#548,#266,.T.);
#667=EDGE_CURVE('',#549,#513,#267,.T.);
#668=EDGE_CURVE('',#548,#549,#268,.T.);
#669=EDGE_CURVE('',#548,#550,#269,.T.);
#670=EDGE_CURVE('',#551,#549,#270,.T.);
#671=EDGE_CURVE('',#550,#551,#271,.T.);
#672=EDGE_CURVE('',#551,#518,#272,.T.);
#673=EDGE_CURVE('',#552,#553,#273,.T.);
#674=EDGE_CURVE('',#492,#552,#274,.T.);
#675=EDGE_CURVE('',#553,#491,#275,.T.);
#676=EDGE_CURVE('',#553,#497,#276,.T.);
#677=EDGE_CURVE('',#550,#552,#277,.T.);
#678=EDGE_CURVE('',#496,#554,#278,.T.);
#679=EDGE_CURVE('',#554,#555,#279,.T.);
#680=EDGE_CURVE('',#555,#556,#280,.T.);
#681=EDGE_CURVE('',#556,#557,#281,.T.);
#682=EDGE_CURVE('',#557,#515,#282,.T.);
#683=EDGE_CURVE('',#510,#556,#283,.T.);
#684=EDGE_CURVE('',#557,#509,#284,.T.);
#685=EDGE_CURVE('',#558,#495,#285,.T.);
#686=EDGE_CURVE('',#554,#558,#286,.T.);
#687=EDGE_CURVE('',#559,#558,#287,.T.);
#688=EDGE_CURVE('',#555,#559,#288,.T.);
#689=EDGE_CURVE('',#559,#502,#289,.T.);
#690=EDGE_CURVE('',#560,#561,#290,.T.);
#691=EDGE_CURVE('',#561,#562,#291,.T.);
#692=EDGE_CURVE('',#562,#563,#292,.T.);
#693=EDGE_CURVE('',#563,#560,#293,.T.);
#694=EDGE_CURVE('',#564,#565,#294,.T.);
#695=EDGE_CURVE('',#565,#566,#295,.T.);
#696=EDGE_CURVE('',#566,#567,#296,.T.);
#697=EDGE_CURVE('',#567,#564,#297,.T.);
#698=EDGE_CURVE('',#568,#568,#478,.T.);
#699=EDGE_CURVE('',#568,#569,#479,.T.);
#700=EDGE_CURVE('',#569,#570,#480,.T.);
#701=EDGE_CURVE('',#570,#569,#481,.T.);
#702=EDGE_CURVE('',#547,#539,#298,.T.);
#703=EDGE_CURVE('',#571,#571,#482,.T.);
#704=EDGE_CURVE('',#570,#516,#299,.T.);
#705=EDGE_CURVE('',#571,#572,#483,.T.);
#706=EDGE_CURVE('',#572,#573,#484,.T.);
#707=EDGE_CURVE('',#573,#572,#485,.T.);
#708=EDGE_CURVE('',#573,#517,#300,.T.);
#709=EDGE_CURVE('',#544,#574,#15,.T.);
#710=EDGE_CURVE('',#575,#574,#301,.T.);
#711=EDGE_CURVE('',#575,#543,#16,.T.);
#712=EDGE_CURVE('',#576,#575,#302,.T.);
#713=EDGE_CURVE('',#576,#545,#17,.T.);
#714=EDGE_CURVE('',#577,#576,#303,.T.);
#715=EDGE_CURVE('',#577,#546,#18,.T.);
#716=EDGE_CURVE('',#574,#577,#304,.T.);
#717=EDGE_CURVE('',#536,#578,#305,.T.);
#718=EDGE_CURVE('',#578,#579,#306,.T.);
#719=EDGE_CURVE('',#579,#535,#307,.T.);
#720=EDGE_CURVE('',#580,#578,#308,.T.);
#721=EDGE_CURVE('',#580,#538,#309,.T.);
#722=EDGE_CURVE('',#579,#581,#310,.T.);
#723=EDGE_CURVE('',#581,#537,#311,.T.);
#724=EDGE_CURVE('',#581,#580,#312,.T.);
#725=EDGE_CURVE('',#564,#579,#313,.T.);
#726=EDGE_CURVE('',#567,#581,#314,.T.);
#727=EDGE_CURVE('',#565,#578,#315,.T.);
#728=EDGE_CURVE('',#582,#583,#316,.T.);
#729=EDGE_CURVE('',#583,#531,#317,.T.);
#730=EDGE_CURVE('',#532,#582,#318,.T.);
#731=EDGE_CURVE('',#583,#584,#319,.T.);
#732=EDGE_CURVE('',#584,#533,#320,.T.);
#733=EDGE_CURVE('',#584,#585,#321,.T.);
#734=EDGE_CURVE('',#585,#534,#322,.T.);
#735=EDGE_CURVE('',#585,#582,#323,.T.);
#736=EDGE_CURVE('',#560,#583,#324,.T.);
#737=EDGE_CURVE('',#563,#584,#325,.T.);
#738=EDGE_CURVE('',#561,#582,#326,.T.);
#739=EDGE_CURVE('',#586,#587,#327,.T.);
#740=EDGE_CURVE('',#587,#499,#19,.T.);
#741=EDGE_CURVE('',#498,#586,#20,.T.);
#742=EDGE_CURVE('',#500,#588,#21,.T.);
#743=EDGE_CURVE('',#588,#589,#328,.T.);
#744=EDGE_CURVE('',#501,#589,#22,.T.);
#745=EDGE_CURVE('',#587,#588,#329,.T.);
#746=EDGE_CURVE('',#589,#586,#330,.T.);
#747=EDGE_CURVE('',#522,#541,#331,.T.);
#748=EDGE_CURVE('',#566,#580,#332,.T.);
#749=EDGE_CURVE('',#562,#585,#333,.T.);
#750=ORIENTED_EDGE('',*,*,#590,.F.);
#751=ORIENTED_EDGE('',*,*,#591,.T.);
#752=ORIENTED_EDGE('',*,*,#592,.T.);
#753=ORIENTED_EDGE('',*,*,#593,.T.);
#754=ORIENTED_EDGE('',*,*,#590,.T.);
#755=ORIENTED_EDGE('',*,*,#594,.F.);
#756=ORIENTED_EDGE('',*,*,#595,.T.);
#757=ORIENTED_EDGE('',*,*,#596,.T.);
#758=ORIENTED_EDGE('',*,*,#597,.F.);
#759=ORIENTED_EDGE('',*,*,#593,.F.);
#760=ORIENTED_EDGE('',*,*,#598,.F.);
#761=ORIENTED_EDGE('',*,*,#599,.F.);
#762=ORIENTED_EDGE('',*,*,#600,.T.);
#763=ORIENTED_EDGE('',*,*,#601,.T.);
#764=ORIENTED_EDGE('',*,*,#602,.F.);
#765=ORIENTED_EDGE('',*,*,#603,.T.);
#766=ORIENTED_EDGE('',*,*,#594,.T.);
#767=ORIENTED_EDGE('',*,*,#604,.T.);
#768=ORIENTED_EDGE('',*,*,#605,.T.);
#769=ORIENTED_EDGE('',*,*,#606,.T.);
#770=ORIENTED_EDGE('',*,*,#607,.T.);
#771=ORIENTED_EDGE('',*,*,#608,.F.);
#772=ORIENTED_EDGE('',*,*,#599,.T.);
#773=ORIENTED_EDGE('',*,*,#609,.T.);
#774=ORIENTED_EDGE('',*,*,#610,.T.);
#775=ORIENTED_EDGE('',*,*,#611,.F.);
#776=ORIENTED_EDGE('',*,*,#612,.T.);
#777=ORIENTED_EDGE('',*,*,#613,.T.);
#778=ORIENTED_EDGE('',*,*,#614,.T.);
#779=ORIENTED_EDGE('',*,*,#611,.T.);
#780=ORIENTED_EDGE('',*,*,#615,.F.);
#781=ORIENTED_EDGE('',*,*,#616,.T.);
#782=ORIENTED_EDGE('',*,*,#617,.T.);
#783=ORIENTED_EDGE('',*,*,#618,.F.);
#784=ORIENTED_EDGE('',*,*,#614,.F.);
#785=ORIENTED_EDGE('',*,*,#619,.F.);
#786=ORIENTED_EDGE('',*,*,#620,.F.);
#787=ORIENTED_EDGE('',*,*,#621,.T.);
#788=ORIENTED_EDGE('',*,*,#622,.T.);
#789=ORIENTED_EDGE('',*,*,#623,.F.);
#790=ORIENTED_EDGE('',*,*,#624,.T.);
#791=ORIENTED_EDGE('',*,*,#615,.T.);
#792=ORIENTED_EDGE('',*,*,#625,.T.);
#793=ORIENTED_EDGE('',*,*,#626,.T.);
#794=ORIENTED_EDGE('',*,*,#627,.F.);
#795=ORIENTED_EDGE('',*,*,#620,.T.);
#796=ORIENTED_EDGE('',*,*,#628,.T.);
#797=ORIENTED_EDGE('',*,*,#629,.T.);
#798=ORIENTED_EDGE('',*,*,#630,.T.);
#799=ORIENTED_EDGE('',*,*,#631,.T.);
#800=ORIENTED_EDGE('',*,*,#632,.T.);
#801=ORIENTED_EDGE('',*,*,#633,.T.);
#802=ORIENTED_EDGE('',*,*,#630,.F.);
#803=ORIENTED_EDGE('',*,*,#634,.T.);
#804=ORIENTED_EDGE('',*,*,#635,.F.);
#805=ORIENTED_EDGE('',*,*,#636,.T.);
#806=ORIENTED_EDGE('',*,*,#637,.F.);
#807=ORIENTED_EDGE('',*,*,#638,.T.);
#808=ORIENTED_EDGE('',*,*,#639,.F.);
#809=ORIENTED_EDGE('',*,*,#640,.T.);
#810=ORIENTED_EDGE('',*,*,#598,.T.);
#811=ORIENTED_EDGE('',*,*,#592,.F.);
#812=ORIENTED_EDGE('',*,*,#641,.T.);
#813=ORIENTED_EDGE('',*,*,#628,.F.);
#814=ORIENTED_EDGE('',*,*,#619,.T.);
#815=ORIENTED_EDGE('',*,*,#613,.F.);
#816=ORIENTED_EDGE('',*,*,#642,.T.);
#817=ORIENTED_EDGE('',*,*,#609,.F.);
#818=ORIENTED_EDGE('',*,*,#633,.F.);
#819=ORIENTED_EDGE('',*,*,#643,.F.);
#820=ORIENTED_EDGE('',*,*,#644,.F.);
#821=ORIENTED_EDGE('',*,*,#634,.F.);
#822=ORIENTED_EDGE('',*,*,#645,.F.);
#823=ORIENTED_EDGE('',*,*,#646,.F.);
#824=ORIENTED_EDGE('',*,*,#647,.F.);
#825=ORIENTED_EDGE('',*,*,#648,.F.);
#826=ORIENTED_EDGE('',*,*,#649,.F.);
#827=ORIENTED_EDGE('',*,*,#650,.F.);
#828=ORIENTED_EDGE('',*,*,#651,.F.);
#829=ORIENTED_EDGE('',*,*,#652,.F.);
#830=ORIENTED_EDGE('',*,*,#635,.T.);
#831=ORIENTED_EDGE('',*,*,#644,.T.);
#832=ORIENTED_EDGE('',*,*,#653,.T.);
#833=ORIENTED_EDGE('',*,*,#654,.T.);
#834=ORIENTED_EDGE('',*,*,#639,.T.);
#835=ORIENTED_EDGE('',*,*,#655,.T.);
#836=ORIENTED_EDGE('',*,*,#656,.T.);
#837=ORIENTED_EDGE('',*,*,#657,.T.);
#838=ORIENTED_EDGE('',*,*,#655,.F.);
#839=ORIENTED_EDGE('',*,*,#638,.F.);
#840=ORIENTED_EDGE('',*,*,#658,.F.);
#841=ORIENTED_EDGE('',*,*,#659,.F.);
#842=ORIENTED_EDGE('',*,*,#660,.F.);
#843=ORIENTED_EDGE('',*,*,#661,.F.);
#844=ORIENTED_EDGE('',*,*,#662,.F.);
#845=ORIENTED_EDGE('',*,*,#663,.F.);
#846=ORIENTED_EDGE('',*,*,#637,.T.);
#847=ORIENTED_EDGE('',*,*,#664,.T.);
#848=ORIENTED_EDGE('',*,*,#665,.T.);
#849=ORIENTED_EDGE('',*,*,#658,.T.);
#850=ORIENTED_EDGE('',*,*,#666,.F.);
#851=ORIENTED_EDGE('',*,*,#622,.F.);
#852=ORIENTED_EDGE('',*,*,#667,.F.);
#853=ORIENTED_EDGE('',*,*,#668,.F.);
#854=ORIENTED_EDGE('',*,*,#669,.F.);
#855=ORIENTED_EDGE('',*,*,#668,.T.);
#856=ORIENTED_EDGE('',*,*,#670,.F.);
#857=ORIENTED_EDGE('',*,*,#671,.F.);
#858=ORIENTED_EDGE('',*,*,#627,.T.);
#859=ORIENTED_EDGE('',*,*,#672,.F.);
#860=ORIENTED_EDGE('',*,*,#670,.T.);
#861=ORIENTED_EDGE('',*,*,#667,.T.);
#862=ORIENTED_EDGE('',*,*,#621,.F.);
#863=ORIENTED_EDGE('',*,*,#673,.F.);
#864=ORIENTED_EDGE('',*,*,#674,.F.);
#865=ORIENTED_EDGE('',*,*,#596,.F.);
#866=ORIENTED_EDGE('',*,*,#675,.F.);
#867=ORIENTED_EDGE('',*,*,#676,.F.);
#868=ORIENTED_EDGE('',*,*,#675,.T.);
#869=ORIENTED_EDGE('',*,*,#595,.F.);
#870=ORIENTED_EDGE('',*,*,#603,.F.);
#871=ORIENTED_EDGE('',*,*,#669,.T.);
#872=ORIENTED_EDGE('',*,*,#677,.T.);
#873=ORIENTED_EDGE('',*,*,#673,.T.);
#874=ORIENTED_EDGE('',*,*,#676,.T.);
#875=ORIENTED_EDGE('',*,*,#602,.T.);
#876=ORIENTED_EDGE('',*,*,#678,.T.);
#877=ORIENTED_EDGE('',*,*,#679,.T.);
#878=ORIENTED_EDGE('',*,*,#680,.T.);
#879=ORIENTED_EDGE('',*,*,#681,.T.);
#880=ORIENTED_EDGE('',*,*,#682,.T.);
#881=ORIENTED_EDGE('',*,*,#623,.T.);
#882=ORIENTED_EDGE('',*,*,#666,.T.);
#883=ORIENTED_EDGE('',*,*,#681,.F.);
#884=ORIENTED_EDGE('',*,*,#683,.F.);
#885=ORIENTED_EDGE('',*,*,#617,.F.);
#886=ORIENTED_EDGE('',*,*,#684,.F.);
#887=ORIENTED_EDGE('',*,*,#682,.F.);
#888=ORIENTED_EDGE('',*,*,#684,.T.);
#889=ORIENTED_EDGE('',*,*,#616,.F.);
#890=ORIENTED_EDGE('',*,*,#624,.F.);
#891=ORIENTED_EDGE('',*,*,#678,.F.);
#892=ORIENTED_EDGE('',*,*,#601,.F.);
#893=ORIENTED_EDGE('',*,*,#685,.F.);
#894=ORIENTED_EDGE('',*,*,#686,.F.);
#895=ORIENTED_EDGE('',*,*,#679,.F.);
#896=ORIENTED_EDGE('',*,*,#686,.T.);
#897=ORIENTED_EDGE('',*,*,#687,.F.);
#898=ORIENTED_EDGE('',*,*,#688,.F.);
#899=ORIENTED_EDGE('',*,*,#608,.T.);
#900=ORIENTED_EDGE('',*,*,#689,.F.);
#901=ORIENTED_EDGE('',*,*,#687,.T.);
#902=ORIENTED_EDGE('',*,*,#685,.T.);
#903=ORIENTED_EDGE('',*,*,#600,.F.);
#904=ORIENTED_EDGE('',*,*,#610,.F.);
#905=ORIENTED_EDGE('',*,*,#642,.F.);
#906=ORIENTED_EDGE('',*,*,#612,.F.);
#907=ORIENTED_EDGE('',*,*,#618,.T.);
#908=ORIENTED_EDGE('',*,*,#683,.T.);
#909=ORIENTED_EDGE('',*,*,#680,.F.);
#910=ORIENTED_EDGE('',*,*,#688,.T.);
#911=ORIENTED_EDGE('',*,*,#689,.T.);
#912=ORIENTED_EDGE('',*,*,#690,.T.);
#913=ORIENTED_EDGE('',*,*,#691,.T.);
#914=ORIENTED_EDGE('',*,*,#692,.T.);
#915=ORIENTED_EDGE('',*,*,#693,.T.);
#916=ORIENTED_EDGE('',*,*,#694,.T.);
#917=ORIENTED_EDGE('',*,*,#695,.T.);
#918=ORIENTED_EDGE('',*,*,#696,.T.);
#919=ORIENTED_EDGE('',*,*,#697,.T.);
#920=ORIENTED_EDGE('',*,*,#698,.T.);
#921=ORIENTED_EDGE('',*,*,#699,.T.);
#922=ORIENTED_EDGE('',*,*,#700,.T.);
#923=ORIENTED_EDGE('',*,*,#701,.T.);
#924=ORIENTED_EDGE('',*,*,#699,.F.);
#925=ORIENTED_EDGE('',*,*,#654,.F.);
#926=ORIENTED_EDGE('',*,*,#702,.F.);
#927=ORIENTED_EDGE('',*,*,#664,.F.);
#928=ORIENTED_EDGE('',*,*,#636,.F.);
#929=ORIENTED_EDGE('',*,*,#703,.F.);
#930=ORIENTED_EDGE('',*,*,#698,.F.);
#931=ORIENTED_EDGE('',*,*,#701,.F.);
#932=ORIENTED_EDGE('',*,*,#704,.T.);
#933=ORIENTED_EDGE('',*,*,#625,.F.);
#934=ORIENTED_EDGE('',*,*,#704,.F.);
#935=ORIENTED_EDGE('',*,*,#700,.F.);
#936=ORIENTED_EDGE('',*,*,#703,.T.);
#937=ORIENTED_EDGE('',*,*,#705,.T.);
#938=ORIENTED_EDGE('',*,*,#706,.T.);
#939=ORIENTED_EDGE('',*,*,#707,.T.);
#940=ORIENTED_EDGE('',*,*,#705,.F.);
#941=ORIENTED_EDGE('',*,*,#707,.F.);
#942=ORIENTED_EDGE('',*,*,#708,.T.);
#943=ORIENTED_EDGE('',*,*,#626,.F.);
#944=ORIENTED_EDGE('',*,*,#708,.F.);
#945=ORIENTED_EDGE('',*,*,#706,.F.);
#946=ORIENTED_EDGE('',*,*,#660,.T.);
#947=ORIENTED_EDGE('',*,*,#709,.T.);
#948=ORIENTED_EDGE('',*,*,#710,.F.);
#949=ORIENTED_EDGE('',*,*,#711,.T.);
#950=ORIENTED_EDGE('',*,*,#712,.F.);
#951=ORIENTED_EDGE('',*,*,#713,.T.);
#952=ORIENTED_EDGE('',*,*,#661,.T.);
#953=ORIENTED_EDGE('',*,*,#711,.F.);
#954=ORIENTED_EDGE('',*,*,#662,.T.);
#955=ORIENTED_EDGE('',*,*,#713,.F.);
#956=ORIENTED_EDGE('',*,*,#714,.F.);
#957=ORIENTED_EDGE('',*,*,#715,.T.);
#958=ORIENTED_EDGE('',*,*,#663,.T.);
#959=ORIENTED_EDGE('',*,*,#715,.F.);
#960=ORIENTED_EDGE('',*,*,#716,.F.);
#961=ORIENTED_EDGE('',*,*,#709,.F.);
#962=ORIENTED_EDGE('',*,*,#649,.T.);
#963=ORIENTED_EDGE('',*,*,#717,.T.);
#964=ORIENTED_EDGE('',*,*,#718,.T.);
#965=ORIENTED_EDGE('',*,*,#719,.T.);
#966=ORIENTED_EDGE('',*,*,#720,.T.);
#967=ORIENTED_EDGE('',*,*,#717,.F.);
#968=ORIENTED_EDGE('',*,*,#652,.T.);
#969=ORIENTED_EDGE('',*,*,#721,.F.);
#970=ORIENTED_EDGE('',*,*,#650,.T.);
#971=ORIENTED_EDGE('',*,*,#719,.F.);
#972=ORIENTED_EDGE('',*,*,#722,.T.);
#973=ORIENTED_EDGE('',*,*,#723,.T.);
#974=ORIENTED_EDGE('',*,*,#651,.T.);
#975=ORIENTED_EDGE('',*,*,#723,.F.);
#976=ORIENTED_EDGE('',*,*,#724,.T.);
#977=ORIENTED_EDGE('',*,*,#721,.T.);
#978=ORIENTED_EDGE('',*,*,#722,.F.);
#979=ORIENTED_EDGE('',*,*,#725,.F.);
#980=ORIENTED_EDGE('',*,*,#697,.F.);
#981=ORIENTED_EDGE('',*,*,#726,.T.);
#982=ORIENTED_EDGE('',*,*,#718,.F.);
#983=ORIENTED_EDGE('',*,*,#727,.F.);
#984=ORIENTED_EDGE('',*,*,#694,.F.);
#985=ORIENTED_EDGE('',*,*,#725,.T.);
#986=ORIENTED_EDGE('',*,*,#728,.T.);
#987=ORIENTED_EDGE('',*,*,#729,.T.);
#988=ORIENTED_EDGE('',*,*,#645,.T.);
#989=ORIENTED_EDGE('',*,*,#730,.T.);
#990=ORIENTED_EDGE('',*,*,#646,.T.);
#991=ORIENTED_EDGE('',*,*,#729,.F.);
#992=ORIENTED_EDGE('',*,*,#731,.T.);
#993=ORIENTED_EDGE('',*,*,#732,.T.);
#994=ORIENTED_EDGE('',*,*,#647,.T.);
#995=ORIENTED_EDGE('',*,*,#732,.F.);
#996=ORIENTED_EDGE('',*,*,#733,.T.);
#997=ORIENTED_EDGE('',*,*,#734,.T.);
#998=ORIENTED_EDGE('',*,*,#648,.T.);
#999=ORIENTED_EDGE('',*,*,#734,.F.);
#1000=ORIENTED_EDGE('',*,*,#735,.T.);
#1001=ORIENTED_EDGE('',*,*,#730,.F.);
#1002=ORIENTED_EDGE('',*,*,#731,.F.);
#1003=ORIENTED_EDGE('',*,*,#736,.F.);
#1004=ORIENTED_EDGE('',*,*,#693,.F.);
#1005=ORIENTED_EDGE('',*,*,#737,.T.);
#1006=ORIENTED_EDGE('',*,*,#728,.F.);
#1007=ORIENTED_EDGE('',*,*,#738,.F.);
#1008=ORIENTED_EDGE('',*,*,#690,.F.);
#1009=ORIENTED_EDGE('',*,*,#736,.T.);
#1010=ORIENTED_EDGE('',*,*,#739,.T.);
#1011=ORIENTED_EDGE('',*,*,#740,.T.);
#1012=ORIENTED_EDGE('',*,*,#604,.F.);
#1013=ORIENTED_EDGE('',*,*,#741,.T.);
#1014=ORIENTED_EDGE('',*,*,#606,.F.);
#1015=ORIENTED_EDGE('',*,*,#742,.T.);
#1016=ORIENTED_EDGE('',*,*,#743,.T.);
#1017=ORIENTED_EDGE('',*,*,#744,.F.);
#1018=ORIENTED_EDGE('',*,*,#745,.T.);
#1019=ORIENTED_EDGE('',*,*,#742,.F.);
#1020=ORIENTED_EDGE('',*,*,#605,.F.);
#1021=ORIENTED_EDGE('',*,*,#740,.F.);
#1022=ORIENTED_EDGE('',*,*,#746,.T.);
#1023=ORIENTED_EDGE('',*,*,#741,.F.);
#1024=ORIENTED_EDGE('',*,*,#607,.F.);
#1025=ORIENTED_EDGE('',*,*,#744,.T.);
#1026=ORIENTED_EDGE('',*,*,#631,.F.);
#1027=ORIENTED_EDGE('',*,*,#640,.F.);
#1028=ORIENTED_EDGE('',*,*,#657,.F.);
#1029=ORIENTED_EDGE('',*,*,#747,.F.);
#1030=ORIENTED_EDGE('',*,*,#743,.F.);
#1031=ORIENTED_EDGE('',*,*,#745,.F.);
#1032=ORIENTED_EDGE('',*,*,#739,.F.);
#1033=ORIENTED_EDGE('',*,*,#746,.F.);
#1034=ORIENTED_EDGE('',*,*,#724,.F.);
#1035=ORIENTED_EDGE('',*,*,#726,.F.);
#1036=ORIENTED_EDGE('',*,*,#696,.F.);
#1037=ORIENTED_EDGE('',*,*,#748,.T.);
#1038=ORIENTED_EDGE('',*,*,#720,.F.);
#1039=ORIENTED_EDGE('',*,*,#748,.F.);
#1040=ORIENTED_EDGE('',*,*,#695,.F.);
#1041=ORIENTED_EDGE('',*,*,#727,.T.);
#1042=ORIENTED_EDGE('',*,*,#733,.F.);
#1043=ORIENTED_EDGE('',*,*,#737,.F.);
#1044=ORIENTED_EDGE('',*,*,#692,.F.);
#1045=ORIENTED_EDGE('',*,*,#749,.T.);
#1046=ORIENTED_EDGE('',*,*,#735,.F.);
#1047=ORIENTED_EDGE('',*,*,#749,.F.);
#1048=ORIENTED_EDGE('',*,*,#691,.F.);
#1049=ORIENTED_EDGE('',*,*,#738,.T.);
#1050=ORIENTED_EDGE('',*,*,#591,.F.);
#1051=ORIENTED_EDGE('',*,*,#597,.T.);
#1052=ORIENTED_EDGE('',*,*,#674,.T.);
#1053=ORIENTED_EDGE('',*,*,#677,.F.);
#1054=ORIENTED_EDGE('',*,*,#671,.T.);
#1055=ORIENTED_EDGE('',*,*,#672,.T.);
#1056=ORIENTED_EDGE('',*,*,#629,.F.);
#1057=ORIENTED_EDGE('',*,*,#641,.F.);
#1058=ORIENTED_EDGE('',*,*,#710,.T.);
#1059=ORIENTED_EDGE('',*,*,#716,.T.);
#1060=ORIENTED_EDGE('',*,*,#714,.T.);
#1061=ORIENTED_EDGE('',*,*,#712,.T.);
#1062=ORIENTED_EDGE('',*,*,#632,.F.);
#1063=ORIENTED_EDGE('',*,*,#747,.T.);
#1064=ORIENTED_EDGE('',*,*,#656,.F.);
#1065=ORIENTED_EDGE('',*,*,#659,.T.);
#1066=ORIENTED_EDGE('',*,*,#665,.F.);
#1067=ORIENTED_EDGE('',*,*,#702,.T.);
#1068=ORIENTED_EDGE('',*,*,#653,.F.);
#1069=ORIENTED_EDGE('',*,*,#643,.T.);
#1070=CYLINDRICAL_SURFACE('',#1161,2.);
#1071=CYLINDRICAL_SURFACE('',#1166,2.);
#1072=CYLINDRICAL_SURFACE('',#1169,2.);
#1073=CYLINDRICAL_SURFACE('',#1176,2.);
#1074=CYLINDRICAL_SURFACE('',#1179,3.);
#1075=CYLINDRICAL_SURFACE('',#1187,3.);
#1076=CYLINDRICAL_SURFACE('',#1189,3.);
#1077=CYLINDRICAL_SURFACE('',#1192,3.);
#1078=CYLINDRICAL_SURFACE('',#1213,17.5);
#1079=CYLINDRICAL_SURFACE('',#1218,17.5);
#1080=CYLINDRICAL_SURFACE('',#1219,3.);
#1081=CYLINDRICAL_SURFACE('',#1222,3.);
#1082=CYLINDRICAL_SURFACE('',#1224,3.);
#1083=CYLINDRICAL_SURFACE('',#1226,3.);
#1084=CYLINDRICAL_SURFACE('',#1239,3.);
#1085=CYLINDRICAL_SURFACE('',#1242,3.);
#1086=CYLINDRICAL_SURFACE('',#1245,3.);
#1087=CYLINDRICAL_SURFACE('',#1246,3.);
#1088=ADVANCED_FACE('',(#77),#1070,.F.);
#1089=ADVANCED_FACE('',(#78),#38,.T.);
#1090=ADVANCED_FACE('',(#79,#25),#39,.T.);
#1091=ADVANCED_FACE('',(#80),#1071,.F.);
#1092=ADVANCED_FACE('',(#81),#1072,.F.);
#1093=ADVANCED_FACE('',(#82),#40,.T.);
#1094=ADVANCED_FACE('',(#83,#26,#27),#41,.T.);
#1095=ADVANCED_FACE('',(#84),#1073,.F.);
#1096=ADVANCED_FACE('',(#85),#1074,.T.);
#1097=ADVANCED_FACE('',(#86,#28),#42,.T.);
#1098=ADVANCED_FACE('',(#87,#29,#30),#43,.T.);
#1099=ADVANCED_FACE('',(#88),#1075,.T.);
#1100=ADVANCED_FACE('',(#89),#1076,.T.);
#1101=ADVANCED_FACE('',(#90,#31),#44,.T.);
#1102=ADVANCED_FACE('',(#91),#1077,.T.);
#1103=ADVANCED_FACE('',(#92),#45,.T.);
#1104=ADVANCED_FACE('',(#93),#46,.T.);
#1105=ADVANCED_FACE('',(#94),#47,.T.);
#1106=ADVANCED_FACE('',(#95),#48,.T.);
#1107=ADVANCED_FACE('',(#96),#49,.T.);
#1108=ADVANCED_FACE('',(#97),#50,.T.);
#1109=ADVANCED_FACE('',(#98),#51,.T.);
#1110=ADVANCED_FACE('',(#99),#52,.T.);
#1111=ADVANCED_FACE('',(#100),#53,.T.);
#1112=ADVANCED_FACE('',(#101),#54,.T.);
#1113=ADVANCED_FACE('',(#102),#55,.T.);
#1114=ADVANCED_FACE('',(#103,#32,#33),#56,.T.);
#1115=ADVANCED_FACE('',(#104),#23,.T.);
#1116=ADVANCED_FACE('',(#105,#34,#35),#57,.T.);
#1117=ADVANCED_FACE('',(#106),#1078,.F.);
#1118=ADVANCED_FACE('',(#107),#24,.T.);
#1119=ADVANCED_FACE('',(#108),#1079,.F.);
#1120=ADVANCED_FACE('',(#109),#1080,.T.);
#1121=ADVANCED_FACE('',(#110),#1081,.T.);
#1122=ADVANCED_FACE('',(#111),#1082,.T.);
#1123=ADVANCED_FACE('',(#112),#1083,.T.);
#1124=ADVANCED_FACE('',(#113),#58,.T.);
#1125=ADVANCED_FACE('',(#114),#59,.T.);
#1126=ADVANCED_FACE('',(#115),#60,.T.);
#1127=ADVANCED_FACE('',(#116),#61,.T.);
#1128=ADVANCED_FACE('',(#117),#62,.F.);
#1129=ADVANCED_FACE('',(#118),#63,.F.);
#1130=ADVANCED_FACE('',(#119),#64,.T.);
#1131=ADVANCED_FACE('',(#120),#65,.T.);
#1132=ADVANCED_FACE('',(#121),#66,.T.);
#1133=ADVANCED_FACE('',(#122),#67,.T.);
#1134=ADVANCED_FACE('',(#123),#68,.F.);
#1135=ADVANCED_FACE('',(#124),#69,.F.);
#1136=ADVANCED_FACE('',(#125),#1084,.T.);
#1137=ADVANCED_FACE('',(#126),#1085,.T.);
#1138=ADVANCED_FACE('',(#127),#1086,.T.);
#1139=ADVANCED_FACE('',(#128),#1087,.T.);
#1140=ADVANCED_FACE('',(#129,#36),#70,.T.);
#1141=ADVANCED_FACE('',(#130),#71,.F.);
#1142=ADVANCED_FACE('',(#131),#72,.F.);
#1143=ADVANCED_FACE('',(#132),#73,.F.);
#1144=ADVANCED_FACE('',(#133),#74,.F.);
#1145=ADVANCED_FACE('',(#134,#37),#75,.T.);
#1146=ADVANCED_FACE('',(#135),#76,.F.);
#1147=CLOSED_SHELL('',(#1088,#1089,#1090,#1091,#1092,#1093,#1094,#1095,
#1096,#1097,#1098,#1099,#1100,#1101,#1102,#1103,#1104,#1105,#1106,#1107,
#1108,#1109,#1110,#1111,#1112,#1113,#1114,#1115,#1116,#1117,#1118,#1119,
#1120,#1121,#1122,#1123,#1124,#1125,#1126,#1127,#1128,#1129,#1130,#1131,
#1132,#1133,#1134,#1135,#1136,#1137,#1138,#1139,#1140,#1141,#1142,#1143,
#1144,#1145,#1146));
#1148=DERIVED_UNIT_ELEMENT(#1150,1.);
#1149=DERIVED_UNIT_ELEMENT(#1897,-3.);
#1150=(
MASS_UNIT()
NAMED_UNIT(*)
SI_UNIT(.KILO.,.GRAM.)
);
#1151=DERIVED_UNIT((#1148,#1149));
#1152=MEASURE_REPRESENTATION_ITEM('density measure',
POSITIVE_RATIO_MEASURE(7850.),#1151);
#1153=PROPERTY_DEFINITION_REPRESENTATION(#1158,#1155);
#1154=PROPERTY_DEFINITION_REPRESENTATION(#1159,#1156);
#1155=REPRESENTATION('material name',(#1157),#1894);
#1156=REPRESENTATION('density',(#1152),#1894);
#1157=DESCRIPTIVE_REPRESENTATION_ITEM('Steel','Steel');
#1158=PROPERTY_DEFINITION('material property','material name',#1904);
#1159=PROPERTY_DEFINITION('material property','density of part',#1904);
#1160=AXIS2_PLACEMENT_3D('',#1568,#1254,#1255);
#1161=AXIS2_PLACEMENT_3D('',#1569,#1256,#1257);
#1162=AXIS2_PLACEMENT_3D('',#1572,#1258,#1259);
#1163=AXIS2_PLACEMENT_3D('',#1576,#1261,#1262);
#1164=AXIS2_PLACEMENT_3D('',#1578,#1264,#1265);
#1165=AXIS2_PLACEMENT_3D('',#1586,#1270,#1271);
#1166=AXIS2_PLACEMENT_3D('',#1606,#1282,#1283);
#1167=AXIS2_PLACEMENT_3D('',#1608,#1284,#1285);
#1168=AXIS2_PLACEMENT_3D('',#1610,#1286,#1287);
#1169=AXIS2_PLACEMENT_3D('',#1612,#1289,#1290);
#1170=AXIS2_PLACEMENT_3D('',#1615,#1291,#1292);
#1171=AXIS2_PLACEMENT_3D('',#1619,#1294,#1295);
#1172=AXIS2_PLACEMENT_3D('',#1621,#1297,#1298);
#1173=AXIS2_PLACEMENT_3D('',#1629,#1303,#1304);
#1174=AXIS2_PLACEMENT_3D('',#1642,#1311,#1312);
#1175=AXIS2_PLACEMENT_3D('',#1644,#1313,#1314);
#1176=AXIS2_PLACEMENT_3D('',#1645,#1315,#1316);
#1177=AXIS2_PLACEMENT_3D('',#1647,#1317,#1318);
#1178=AXIS2_PLACEMENT_3D('',#1649,#1319,#1320);
#1179=AXIS2_PLACEMENT_3D('',#1651,#1322,#1323);
#1180=AXIS2_PLACEMENT_3D('',#1654,#1324,#1325);
#1181=AXIS2_PLACEMENT_3D('',#1658,#1327,#1328);
#1182=AXIS2_PLACEMENT_3D('',#1660,#1330,#1331);
#1183=AXIS2_PLACEMENT_3D('',#1664,#1333,#1334);
#1184=AXIS2_PLACEMENT_3D('',#1668,#1336,#1337);
#1185=AXIS2_PLACEMENT_3D('',#1672,#1339,#1340);
#1186=AXIS2_PLACEMENT_3D('',#1676,#1344,#1345);
#1187=AXIS2_PLACEMENT_3D('',#1696,#1356,#1357);
#1188=AXIS2_PLACEMENT_3D('',#1698,#1358,#1359);
#1189=AXIS2_PLACEMENT_3D('',#1700,#1361,#1362);
#1190=AXIS2_PLACEMENT_3D('',#1704,#1364,#1365);
#1191=AXIS2_PLACEMENT_3D('',#1706,#1367,#1368);
#1192=AXIS2_PLACEMENT_3D('',#1718,#1375,#1376);
#1193=AXIS2_PLACEMENT_3D('',#1721,#1378,#1379);
#1194=AXIS2_PLACEMENT_3D('',#1722,#1380,#1381);
#1195=AXIS2_PLACEMENT_3D('',#1728,#1385,#1386);
#1196=AXIS2_PLACEMENT_3D('',#1734,#1390,#1391);
#1197=AXIS2_PLACEMENT_3D('',#1736,#1393,#1394);
#1198=AXIS2_PLACEMENT_3D('',#1742,#1398,#1399);
#1199=AXIS2_PLACEMENT_3D('',#1744,#1401,#1402);
#1200=AXIS2_PLACEMENT_3D('',#1755,#1409,#1410);
#1201=AXIS2_PLACEMENT_3D('',#1758,#1413,#1414);
#1202=AXIS2_PLACEMENT_3D('',#1759,#1415,#1416);
#1203=AXIS2_PLACEMENT_3D('',#1763,#1419,#1420);
#1204=AXIS2_PLACEMENT_3D('',#1767,#1423,#1424);
#1205=AXIS2_PLACEMENT_3D('',#1769,#1426,#1427);
#1206=AXIS2_PLACEMENT_3D('',#1786,#1436,#1437);
#1207=AXIS2_PLACEMENT_3D('',#1788,#1438,#1439);
#1208=AXIS2_PLACEMENT_3D('',#1790,#1440,#1441);
#1209=AXIS2_PLACEMENT_3D('',#1792,#1442,#1443);
#1210=AXIS2_PLACEMENT_3D('',#1793,#1444,#1445);
#1211=AXIS2_PLACEMENT_3D('',#1794,#1446,#1447);
#1212=AXIS2_PLACEMENT_3D('',#1797,#1449,#1450);
#1213=AXIS2_PLACEMENT_3D('',#1798,#1451,#1452);
#1214=AXIS2_PLACEMENT_3D('',#1800,#1454,#1455);
#1215=AXIS2_PLACEMENT_3D('',#1802,#1456,#1457);
#1216=AXIS2_PLACEMENT_3D('',#1804,#1458,#1459);
#1217=AXIS2_PLACEMENT_3D('',#1805,#1460,#1461);
#1218=AXIS2_PLACEMENT_3D('',#1806,#1462,#1463);
#1219=AXIS2_PLACEMENT_3D('',#1808,#1465,#1466);
#1220=AXIS2_PLACEMENT_3D('',#1810,#1467,#1468);
#1221=AXIS2_PLACEMENT_3D('',#1813,#1470,#1471);
#1222=AXIS2_PLACEMENT_3D('',#1814,#1472,#1473);
#1223=AXIS2_PLACEMENT_3D('',#1817,#1475,#1476);
#1224=AXIS2_PLACEMENT_3D('',#1818,#1477,#1478);
#1225=AXIS2_PLACEMENT_3D('',#1821,#1480,#1481);
#1226=AXIS2_PLACEMENT_3D('',#1822,#1482,#1483);
#1227=AXIS2_PLACEMENT_3D('',#1824,#1485,#1486);
#1228=AXIS2_PLACEMENT_3D('',#1830,#1490,#1491);
#1229=AXIS2_PLACEMENT_3D('',#1834,#1494,#1495);
#1230=AXIS2_PLACEMENT_3D('',#1838,#1498,#1499);
#1231=AXIS2_PLACEMENT_3D('',#1840,#1501,#1502);
#1232=AXIS2_PLACEMENT_3D('',#1843,#1505,#1506);
#1233=AXIS2_PLACEMENT_3D('',#1845,#1508,#1509);
#1234=AXIS2_PLACEMENT_3D('',#1851,#1513,#1514);
#1235=AXIS2_PLACEMENT_3D('',#1855,#1517,#1518);
#1236=AXIS2_PLACEMENT_3D('',#1859,#1521,#1522);
#1237=AXIS2_PLACEMENT_3D('',#1861,#1524,#1525);
#1238=AXIS2_PLACEMENT_3D('',#1864,#1528,#1529);
#1239=AXIS2_PLACEMENT_3D('',#1866,#1531,#1532);
#1240=AXIS2_PLACEMENT_3D('',#1870,#1534,#1535);
#1241=AXIS2_PLACEMENT_3D('',#1871,#1536,#1537);
#1242=AXIS2_PLACEMENT_3D('',#1872,#1538,#1539);
#1243=AXIS2_PLACEMENT_3D('',#1874,#1540,#1541);
#1244=AXIS2_PLACEMENT_3D('',#1877,#1543,#1544);
#1245=AXIS2_PLACEMENT_3D('',#1878,#1545,#1546);
#1246=AXIS2_PLACEMENT_3D('',#1880,#1548,#1549);
#1247=AXIS2_PLACEMENT_3D('',#1882,#1551,#1552);
#1248=AXIS2_PLACEMENT_3D('',#1884,#1554,#1555);
#1249=AXIS2_PLACEMENT_3D('',#1886,#1557,#1558);
#1250=AXIS2_PLACEMENT_3D('',#1887,#1559,#1560);
#1251=AXIS2_PLACEMENT_3D('',#1889,#1562,#1563);
#1252=AXIS2_PLACEMENT_3D('',#1890,#1564,#1565);
#1253=AXIS2_PLACEMENT_3D('',#1891,#1566,#1567);
#1254=DIRECTION('axis',(0.,0.,1.));
#1255=DIRECTION('refdir',(1.,0.,0.));
#1256=DIRECTION('center_axis',(0.,0.,1.));
#1257=DIRECTION('ref_axis',(-0.707106781186548,0.707106781186548,0.));
#1258=DIRECTION('center_axis',(0.,0.,1.));
#1259=DIRECTION('ref_axis',(-0.707106781186548,0.707106781186548,0.));
#1260=DIRECTION('',(0.,0.,1.));
#1261=DIRECTION('center_axis',(0.,0.,1.));
#1262=DIRECTION('ref_axis',(-0.707106781186548,0.707106781186548,0.));
#1263=DIRECTION('',(0.,0.,-1.));
#1264=DIRECTION('center_axis',(0.,0.,1.));
#1265=DIRECTION('ref_axis',(1.,0.,0.));
#1266=DIRECTION('',(0.,1.,0.));
#1267=DIRECTION('',(1.,0.,0.));
#1268=DIRECTION('',(0.,1.,0.));
#1269=DIRECTION('',(1.,0.,0.));
#1270=DIRECTION('center_axis',(1.,0.,0.));
#1271=DIRECTION('ref_axis',(0.,1.,0.));
#1272=DIRECTION('',(0.,1.,0.));
#1273=DIRECTION('',(0.,0.,1.));
#1274=DIRECTION('',(0.,1.,0.));
#1275=DIRECTION('',(0.,0.,-1.));
#1276=DIRECTION('',(0.,-1.,0.));
#1277=DIRECTION('',(0.,0.,1.));
#1278=DIRECTION('',(0.,0.,-1.));
#1279=DIRECTION('',(0.,-1.,0.));
#1280=DIRECTION('',(0.,0.,1.));
#1281=DIRECTION('',(0.,1.,0.));
#1282=DIRECTION('center_axis',(0.,0.,1.));
#1283=DIRECTION('ref_axis',(-0.707106781186549,-0.707106781186546,0.));
#1284=DIRECTION('center_axis',(0.,0.,1.));
#1285=DIRECTION('ref_axis',(-0.707106781186549,-0.707106781186546,0.));
#1286=DIRECTION('center_axis',(0.,0.,1.));
#1287=DIRECTION('ref_axis',(-0.707106781186549,-0.707106781186546,0.));
#1288=DIRECTION('',(0.,0.,-1.));
#1289=DIRECTION('center_axis',(0.,0.,1.));
#1290=DIRECTION('ref_axis',(0.707106781186544,-0.707106781186551,0.));
#1291=DIRECTION('center_axis',(0.,0.,1.));
#1292=DIRECTION('ref_axis',(0.707106781186544,-0.707106781186551,0.));
#1293=DIRECTION('',(0.,0.,1.));
#1294=DIRECTION('center_axis',(0.,0.,1.));
#1295=DIRECTION('ref_axis',(0.707106781186544,-0.707106781186551,0.));
#1296=DIRECTION('',(0.,0.,-1.));
#1297=DIRECTION('center_axis',(0.,0.,1.));
#1298=DIRECTION('ref_axis',(1.,0.,0.));
#1299=DIRECTION('',(0.,-1.,0.));
#1300=DIRECTION('',(-1.,0.,0.));
#1301=DIRECTION('',(0.,-1.,0.));
#1302=DIRECTION('',(-1.,0.,0.));
#1303=DIRECTION('center_axis',(-1.,0.,0.));
#1304=DIRECTION('ref_axis',(0.,-1.,0.));
#1305=DIRECTION('',(0.,-1.,0.));
#1306=DIRECTION('',(0.,0.,1.));
#1307=DIRECTION('',(0.,-1.,0.));
#1308=DIRECTION('',(0.,0.,-1.));
#1309=DIRECTION('',(0.,1.,0.));
#1310=DIRECTION('',(0.,0.,1.));
#1311=DIRECTION('center_axis',(1.,0.,0.));
#1312=DIRECTION('ref_axis',(0.,1.,0.));
#1313=DIRECTION('center_axis',(1.,0.,0.));
#1314=DIRECTION('ref_axis',(0.,1.,0.));
#1315=DIRECTION('center_axis',(0.,0.,1.));
#1316=DIRECTION('ref_axis',(0.707106781186549,0.707106781186546,0.));
#1317=DIRECTION('center_axis',(0.,0.,1.));
#1318=DIRECTION('ref_axis',(0.707106781186549,0.707106781186546,0.));
#1319=DIRECTION('center_axis',(0.,0.,1.));
#1320=DIRECTION('ref_axis',(0.707106781186549,0.707106781186546,0.));
#1321=DIRECTION('',(0.,0.,-1.));
#1322=DIRECTION('center_axis',(0.,0.,1.));
#1323=DIRECTION('ref_axis',(-0.707106781186547,-0.707106781186548,0.));
#1324=DIRECTION('center_axis',(0.,0.,-1.));
#1325=DIRECTION('ref_axis',(-0.707106781186547,-0.707106781186548,0.));
#1326=DIRECTION('',(0.,0.,-1.));
#1327=DIRECTION('center_axis',(0.,0.,1.));
#1328=DIRECTION('ref_axis',(-0.707106781186547,-0.707106781186548,0.));
#1329=DIRECTION('',(0.,0.,1.));
#1330=DIRECTION('center_axis',(0.,0.,1.));
#1331=DIRECTION('ref_axis',(1.,0.,0.));
#1332=DIRECTION('',(1.,0.,0.));
#1333=DIRECTION('center_axis',(0.,0.,-1.));
#1334=DIRECTION('ref_axis',(0.707106781186548,-0.707106781186548,0.));
#1335=DIRECTION('',(0.,1.,0.));
#1336=DIRECTION('center_axis',(0.,0.,-1.));
#1337=DIRECTION('ref_axis',(0.707106781186549,0.707106781186546,0.));
#1338=DIRECTION('',(-1.,0.,0.));
#1339=DIRECTION('center_axis',(0.,0.,-1.));
#1340=DIRECTION('ref_axis',(-0.707106781186547,0.707106781186548,0.));
#1341=DIRECTION('',(0.,-1.,0.));
#1342=DIRECTION('',(1.,0.,0.));
#1343=DIRECTION('',(-1.,0.,0.));
#1344=DIRECTION('center_axis',(0.,-1.,0.));
#1345=DIRECTION('ref_axis',(1.,0.,0.));
#1346=DIRECTION('',(-1.,0.,0.));
#1347=DIRECTION('',(0.,0.,-1.));
#1348=DIRECTION('',(0.,0.,-1.));
#1349=DIRECTION('',(-1.,0.,0.));
#1350=DIRECTION('',(0.,0.,1.));
#1351=DIRECTION('',(1.,0.,0.));
#1352=DIRECTION('',(0.,0.,-1.));
#1353=DIRECTION('',(-1.,0.,0.));
#1354=DIRECTION('',(0.,0.,1.));
#1355=DIRECTION('',(1.,0.,0.));
#1356=DIRECTION('center_axis',(0.,0.,1.));
#1357=DIRECTION('ref_axis',(0.707106781186548,-0.707106781186548,0.));
#1358=DIRECTION('center_axis',(0.,0.,1.));
#1359=DIRECTION('ref_axis',(0.707106781186548,-0.707106781186548,0.));
#1360=DIRECTION('',(0.,0.,1.));
#1361=DIRECTION('center_axis',(0.,0.,1.));
#1362=DIRECTION('ref_axis',(-0.707106781186547,0.707106781186548,0.));
#1363=DIRECTION('',(0.,0.,-1.));
#1364=DIRECTION('center_axis',(0.,0.,1.));
#1365=DIRECTION('ref_axis',(-0.707106781186547,0.707106781186548,0.));
#1366=DIRECTION('',(0.,0.,1.));
#1367=DIRECTION('center_axis',(3.27817862874423E-33,1.,0.));
#1368=DIRECTION('ref_axis',(-1.,3.27817862874423E-33,0.));
#1369=DIRECTION('',(0.,0.,1.));
#1370=DIRECTION('',(1.,-3.27817862874423E-33,0.));
#1371=DIRECTION('',(0.,0.,-1.));
#1372=DIRECTION('',(1.,-3.27817862874423E-33,0.));
#1373=DIRECTION('',(-1.46940262954019E-26,4.81696429717923E-59,1.));
#1374=DIRECTION('',(-1.,3.27817862874423E-33,0.));
#1375=DIRECTION('center_axis',(0.,0.,1.));
#1376=DIRECTION('ref_axis',(0.707106781186549,0.707106781186546,0.));
#1377=DIRECTION('',(0.,0.,-1.));
#1378=DIRECTION('center_axis',(0.,0.,1.));
#1379=DIRECTION('ref_axis',(0.707106781186549,0.707106781186546,0.));
#1380=DIRECTION('center_axis',(0.,-1.,0.));
#1381=DIRECTION('ref_axis',(1.,0.,0.));
#1382=DIRECTION('',(-1.,0.,0.));
#1383=DIRECTION('',(1.,0.,0.));
#1384=DIRECTION('',(0.,0.,1.));
#1385=DIRECTION('center_axis',(-1.,0.,0.));
#1386=DIRECTION('ref_axis',(0.,-1.,0.));
#1387=DIRECTION('',(0.,1.,0.));
#1388=DIRECTION('',(0.,-1.,0.));
#1389=DIRECTION('',(0.,0.,1.));
#1390=DIRECTION('center_axis',(0.,0.,1.));
#1391=DIRECTION('ref_axis',(1.,0.,0.));
#1392=DIRECTION('',(1.,0.,0.));
#1393=DIRECTION('center_axis',(1.,0.,0.));
#1394=DIRECTION('ref_axis',(0.,1.,0.));
#1395=DIRECTION('',(0.,-1.,0.));
#1396=DIRECTION('',(0.,0.,-1.));
#1397=DIRECTION('',(0.,0.,1.));
#1398=DIRECTION('center_axis',(0.,-1.,0.));
#1399=DIRECTION('ref_axis',(1.,0.,0.));
#1400=DIRECTION('',(-1.,0.,0.));
#1401=DIRECTION('center_axis',(0.,0.,1.));
#1402=DIRECTION('ref_axis',(1.,0.,0.));
#1403=DIRECTION('',(-1.,0.,0.));
#1404=DIRECTION('',(1.,0.,0.));
#1405=DIRECTION('',(0.,-1.,0.));
#1406=DIRECTION('',(1.,0.,0.));
#1407=DIRECTION('',(0.,1.,0.));
#1408=DIRECTION('',(1.,0.,0.));
#1409=DIRECTION('center_axis',(-1.,0.,0.));
#1410=DIRECTION('ref_axis',(0.,-1.,0.));
#1411=DIRECTION('',(0.,0.,-1.));
#1412=DIRECTION('',(0.,0.,1.));
#1413=DIRECTION('center_axis',(0.,1.,0.));
#1414=DIRECTION('ref_axis',(-1.,0.,0.));
#1415=DIRECTION('center_axis',(0.,1.,0.));
#1416=DIRECTION('ref_axis',(-1.,0.,0.));
#1417=DIRECTION('',(-1.,0.,0.));
#1418=DIRECTION('',(0.,0.,1.));
#1419=DIRECTION('center_axis',(1.,0.,0.));
#1420=DIRECTION('ref_axis',(0.,1.,0.));
#1421=DIRECTION('',(0.,1.,0.));
#1422=DIRECTION('',(0.,0.,1.));
#1423=DIRECTION('center_axis',(0.,0.,1.));
#1424=DIRECTION('ref_axis',(1.,0.,0.));
#1425=DIRECTION('',(-1.,0.,0.));
#1426=DIRECTION('center_axis',(0.,1.,0.));
#1427=DIRECTION('ref_axis',(-1.,0.,0.));
#1428=DIRECTION('',(0.,0.,-1.));
#1429=DIRECTION('',(1.,0.,0.));
#1430=DIRECTION('',(0.,0.,1.));
#1431=DIRECTION('',(-1.,0.,0.));
#1432=DIRECTION('',(0.,0.,-1.));
#1433=DIRECTION('',(1.,0.,0.));
#1434=DIRECTION('',(0.,0.,1.));
#1435=DIRECTION('',(-1.,0.,0.));
#1436=DIRECTION('center_axis',(-1.,0.,0.));
#1437=DIRECTION('ref_axis',(0.,0.,1.));
#1438=DIRECTION('center_axis',(1.,0.,0.));
#1439=DIRECTION('ref_axis',(0.,1.,0.));
#1440=DIRECTION('center_axis',(0.,-1.,2.06553120860494E-16));
#1441=DIRECTION('ref_axis',(0.,-2.06553120860494E-16,-1.));
#1442=DIRECTION('center_axis',(-1.,0.,0.));
#1443=DIRECTION('ref_axis',(0.,1.,0.));
#1444=DIRECTION('center_axis',(-1.,0.,0.));
#1445=DIRECTION('ref_axis',(0.,1.,0.));
#1446=DIRECTION('center_axis',(1.,0.,0.));
#1447=DIRECTION('ref_axis',(0.,1.,0.));
#1448=DIRECTION('',(0.,-1.,0.));
#1449=DIRECTION('center_axis',(1.,0.,0.));
#1450=DIRECTION('ref_axis',(0.,1.,0.));
#1451=DIRECTION('center_axis',(-1.,0.,0.));
#1452=DIRECTION('ref_axis',(0.,1.,0.));
#1453=DIRECTION('',(-1.,0.,0.));
#1454=DIRECTION('center_axis',(-1.,0.,0.));
#1455=DIRECTION('ref_axis',(0.,0.,1.));
#1456=DIRECTION('center_axis',(0.,-1.,2.06553120860494E-16));
#1457=DIRECTION('ref_axis',(0.,-2.06553120860494E-16,-1.));
#1458=DIRECTION('center_axis',(-1.,0.,0.));
#1459=DIRECTION('ref_axis',(0.,1.,0.));
#1460=DIRECTION('center_axis',(-1.,0.,0.));
#1461=DIRECTION('ref_axis',(0.,1.,0.));
#1462=DIRECTION('center_axis',(-1.,0.,0.));
#1463=DIRECTION('ref_axis',(0.,1.,0.));
#1464=DIRECTION('',(-1.,0.,0.));
#1465=DIRECTION('center_axis',(0.,0.,1.));
#1466=DIRECTION('ref_axis',(-0.707106781186573,0.707106781186522,0.));
#1467=DIRECTION('center_axis',(0.707106781186548,0.,0.707106781186547));
#1468=DIRECTION('ref_axis',(0.707106781186547,0.,-0.707106781186548));
#1469=DIRECTION('',(0.,0.,-1.));
#1470=DIRECTION('center_axis',(0.707106781186548,0.,-0.707106781186548));
#1471=DIRECTION('ref_axis',(-0.707106781186547,0.,-0.707106781186547));
#1472=DIRECTION('center_axis',(-1.,3.27817862874423E-33,0.));
#1473=DIRECTION('ref_axis',(0.,0.707106781186548,-0.707106781186547));
#1474=DIRECTION('',(1.,0.,0.));
#1475=DIRECTION('center_axis',(0.707106781186547,0.,0.707106781186548));
#1476=DIRECTION('ref_axis',(0.707106781186548,-4.63604467665173E-33,-0.707106781186547));
#1477=DIRECTION('center_axis',(1.46940262954019E-26,-4.81696429717923E-59,
-1.));
#1478=DIRECTION('ref_axis',(0.707106781186522,0.707106781186573,0.));
#1479=DIRECTION('',(-1.46940262954019E-26,0.,1.));
#1480=DIRECTION('center_axis',(-0.707106781186548,5.23364152894592E-16,
0.707106781186548));
#1481=DIRECTION('ref_axis',(0.707106781186547,-5.23364152894592E-16,0.707106781186547));
#1482=DIRECTION('center_axis',(1.,-3.27817862874423E-33,0.));
#1483=DIRECTION('ref_axis',(0.,0.707106781186547,0.707106781186548));
#1484=DIRECTION('',(-1.,0.,0.));
#1485=DIRECTION('center_axis',(0.707106781186549,-0.707106781186546,0.));
#1486=DIRECTION('ref_axis',(0.,0.,-1.));
#1487=DIRECTION('',(0.577350269189625,0.577350269189628,0.577350269189625));
#1488=DIRECTION('',(0.,0.,1.));
#1489=DIRECTION('',(-0.577350269189625,-0.577350269189628,0.577350269189625));
#1490=DIRECTION('center_axis',(0.,-0.707106781186546,0.707106781186549));
#1491=DIRECTION('ref_axis',(1.,0.,0.));
#1492=DIRECTION('',(-1.,0.,0.));
#1493=DIRECTION('',(0.577350269189625,-0.577350269189628,-0.577350269189625));
#1494=DIRECTION('center_axis',(0.,-0.707106781186546,-0.707106781186549));
#1495=DIRECTION('ref_axis',(-1.,0.,0.));
#1496=DIRECTION('',(1.,0.,0.));
#1497=DIRECTION('',(0.577350269189625,-0.577350269189628,0.577350269189625));
#1498=DIRECTION('center_axis',(-0.707106781186549,-0.707106781186546,0.));
#1499=DIRECTION('ref_axis',(0.,0.,1.));
#1500=DIRECTION('',(0.,0.,-1.));
#1501=DIRECTION('center_axis',(0.,0.,1.));
#1502=DIRECTION('ref_axis',(-1.,0.,0.));
#1503=DIRECTION('',(0.,-1.,0.));
#1504=DIRECTION('',(0.,-1.,0.));
#1505=DIRECTION('center_axis',(-1.,0.,0.));
#1506=DIRECTION('ref_axis',(0.,0.,-1.));
#1507=DIRECTION('',(0.,-1.,0.));
#1508=DIRECTION('center_axis',(0.707106781186546,-0.707106781186549,0.));
#1509=DIRECTION('ref_axis',(0.,0.,-1.));
#1510=DIRECTION('',(0.,0.,1.));
#1511=DIRECTION('',(-0.577350269189627,-0.577350269189624,0.577350269189627));
#1512=DIRECTION('',(0.577350269189627,0.577350269189624,0.577350269189627));
#1513=DIRECTION('center_axis',(0.,-0.707106781186546,-0.707106781186549));
#1514=DIRECTION('ref_axis',(-1.,0.,0.));
#1515=DIRECTION('',(1.,0.,0.));
#1516=DIRECTION('',(0.577350269189627,-0.577350269189624,0.577350269189627));
#1517=DIRECTION('center_axis',(-0.707106781186546,-0.707106781186549,0.));
#1518=DIRECTION('ref_axis',(0.,0.,1.));
#1519=DIRECTION('',(0.,0.,-1.));
#1520=DIRECTION('',(0.577350269189627,-0.577350269189624,-0.577350269189627));
#1521=DIRECTION('center_axis',(0.,-0.707106781186549,0.707106781186546));
#1522=DIRECTION('ref_axis',(1.,0.,0.));
#1523=DIRECTION('',(-1.,0.,0.));
#1524=DIRECTION('center_axis',(0.,0.,1.));
#1525=DIRECTION('ref_axis',(-1.,-8.24576513701284E-14,0.));
#1526=DIRECTION('',(0.,-1.,0.));
#1527=DIRECTION('',(0.,-1.,0.));
#1528=DIRECTION('center_axis',(-1.,0.,0.));
#1529=DIRECTION('ref_axis',(0.,0.,-1.));
#1530=DIRECTION('',(0.,-1.,0.));
#1531=DIRECTION('center_axis',(0.,0.,1.));
#1532=DIRECTION('ref_axis',(-0.707106781186548,-0.707106781186547,0.));
#1533=DIRECTION('',(0.,0.,-1.));
#1534=DIRECTION('center_axis',(0.,0.707106781186548,0.707106781186547));
#1535=DIRECTION('ref_axis',(0.,0.707106781186547,-0.707106781186548));
#1536=DIRECTION('center_axis',(0.,0.707106781186548,-0.707106781186548));
#1537=DIRECTION('ref_axis',(0.,-0.707106781186547,-0.707106781186547));
#1538=DIRECTION('center_axis',(0.,0.,-1.));
#1539=DIRECTION('ref_axis',(-0.707106781186548,0.707106781186547,0.));
#1540=DIRECTION('center_axis',(0.,-0.707106781186548,0.707106781186547));
#1541=DIRECTION('ref_axis',(0.,0.707106781186547,0.707106781186548));
#1542=DIRECTION('',(0.,0.,1.));
#1543=DIRECTION('center_axis',(0.,0.707106781186548,0.707106781186548));
#1544=DIRECTION('ref_axis',(3.51442096455857E-33,0.707106781186547,-0.707106781186547));
#1545=DIRECTION('center_axis',(2.48507089598353E-33,1.,0.));
#1546=DIRECTION('ref_axis',(-0.707106781186548,0.,0.707106781186547));
#1547=DIRECTION('',(-2.48507089598353E-33,-1.,0.));
#1548=DIRECTION('center_axis',(-2.48507089598353E-33,-1.,0.));
#1549=DIRECTION('ref_axis',(-0.707106781186548,0.,-0.707106781186547));
#1550=DIRECTION('',(2.48507089598353E-33,1.,0.));
#1551=DIRECTION('center_axis',(-1.,2.48507089598353E-33,0.));
#1552=DIRECTION('ref_axis',(-2.48507089598353E-33,-1.,0.));
#1553=DIRECTION('',(2.48507089598353E-33,1.,0.));
#1554=DIRECTION('center_axis',(1.,0.,0.));
#1555=DIRECTION('ref_axis',(0.,0.,1.));
#1556=DIRECTION('',(0.,-1.,0.));
#1557=DIRECTION('center_axis',(0.,0.,-1.));
#1558=DIRECTION('ref_axis',(1.,0.,0.));
#1559=DIRECTION('center_axis',(1.,0.,0.));
#1560=DIRECTION('ref_axis',(0.,8.34458256209022E-14,1.));
#1561=DIRECTION('',(0.,-1.,0.));
#1562=DIRECTION('center_axis',(0.,0.,-1.));
#1563=DIRECTION('ref_axis',(1.,0.,0.));
#1564=DIRECTION('center_axis',(0.,-1.,0.));
#1565=DIRECTION('ref_axis',(1.,0.,0.));
#1566=DIRECTION('center_axis',(0.,0.,1.));
#1567=DIRECTION('ref_axis',(1.,0.,0.));
#1568=CARTESIAN_POINT('',(0.,0.,0.));
#1569=CARTESIAN_POINT('Origin',(5.,-5.,3.));
#1570=CARTESIAN_POINT('',(5.,-3.,13.));
#1571=CARTESIAN_POINT('',(3.,-5.,13.));
#1572=CARTESIAN_POINT('Origin',(5.,-5.,13.));
#1573=CARTESIAN_POINT('',(5.,-3.,113.));
#1574=CARTESIAN_POINT('',(5.,-3.,3.));
#1575=CARTESIAN_POINT('',(3.,-5.,113.));
#1576=CARTESIAN_POINT('Origin',(5.,-5.,113.));
#1577=CARTESIAN_POINT('',(3.,-5.,3.));
#1578=CARTESIAN_POINT('Origin',(5.5,-5.5,13.));
#1579=CARTESIAN_POINT('',(3.,-8.,13.));
#1580=CARTESIAN_POINT('',(3.,-32.25,13.));
#1581=CARTESIAN_POINT('',(8.,-8.,13.));
#1582=CARTESIAN_POINT('',(8.,-8.,13.));
#1583=CARTESIAN_POINT('',(8.,-3.,13.));
#1584=CARTESIAN_POINT('',(8.,-3.,13.));
#1585=CARTESIAN_POINT('',(4.25,-3.,13.));
#1586=CARTESIAN_POINT('Origin',(3.,-59.,3.));
#1587=CARTESIAN_POINT('',(3.,-57.,113.));
#1588=CARTESIAN_POINT('',(3.,0.,113.));
#1589=CARTESIAN_POINT('',(3.,-57.,13.));
#1590=CARTESIAN_POINT('',(3.,-57.,3.));
#1591=CARTESIAN_POINT('',(3.,-54.,13.));
#1592=CARTESIAN_POINT('',(3.,-57.75,13.));
#1593=CARTESIAN_POINT('',(3.,-54.,3.));
#1594=CARTESIAN_POINT('',(3.,-54.,3.));
#1595=CARTESIAN_POINT('',(3.,-8.,3.));
#1596=CARTESIAN_POINT('',(3.,-45.,3.));
#1597=CARTESIAN_POINT('',(3.,-8.,3.));
#1598=CARTESIAN_POINT('',(3.,-30.,21.6));
#1599=CARTESIAN_POINT('',(3.,-30.,15.8));
#1600=CARTESIAN_POINT('',(3.,-30.,12.3));
#1601=CARTESIAN_POINT('',(3.,-36.1,15.8));
#1602=CARTESIAN_POINT('',(3.,-44.5,15.8));
#1603=CARTESIAN_POINT('',(3.,-36.1,21.6));
#1604=CARTESIAN_POINT('',(3.,-36.1,9.4));
#1605=CARTESIAN_POINT('',(3.,-47.55,21.6));
#1606=CARTESIAN_POINT('Origin',(5.,-57.,3.));
#1607=CARTESIAN_POINT('',(5.,-59.,13.));
#1608=CARTESIAN_POINT('Origin',(5.,-57.,13.));
#1609=CARTESIAN_POINT('',(5.,-59.,113.));
#1610=CARTESIAN_POINT('Origin',(5.,-57.,113.));
#1611=CARTESIAN_POINT('',(5.,-59.,3.));
#1612=CARTESIAN_POINT('Origin',(42.,-57.,3.));
#1613=CARTESIAN_POINT('',(42.,-59.,13.));
#1614=CARTESIAN_POINT('',(44.,-57.,13.));
#1615=CARTESIAN_POINT('Origin',(42.,-57.,13.));
#1616=CARTESIAN_POINT('',(42.,-59.,113.));
#1617=CARTESIAN_POINT('',(42.,-59.,3.));
#1618=CARTESIAN_POINT('',(44.,-57.,113.));
#1619=CARTESIAN_POINT('Origin',(42.,-57.,113.));
#1620=CARTESIAN_POINT('',(44.,-57.,3.));
#1621=CARTESIAN_POINT('Origin',(41.5,-56.5,13.));
#1622=CARTESIAN_POINT('',(44.,-54.,13.));
#1623=CARTESIAN_POINT('',(44.,-29.75,13.));
#1624=CARTESIAN_POINT('',(39.,-54.,13.));
#1625=CARTESIAN_POINT('',(39.,-54.,13.));
#1626=CARTESIAN_POINT('',(39.,-59.,13.));
#1627=CARTESIAN_POINT('',(39.,-59.,13.));
#1628=CARTESIAN_POINT('',(42.75,-59.,13.));
#1629=CARTESIAN_POINT('Origin',(44.,-3.,3.));
#1630=CARTESIAN_POINT('',(44.,-5.,113.));
#1631=CARTESIAN_POINT('',(44.,0.,113.));
#1632=CARTESIAN_POINT('',(44.,-5.,13.));
#1633=CARTESIAN_POINT('',(44.,-5.,3.));
#1634=CARTESIAN_POINT('',(44.,-8.,13.));
#1635=CARTESIAN_POINT('',(44.,-4.25,13.));
#1636=CARTESIAN_POINT('',(44.,-8.,3.));
#1637=CARTESIAN_POINT('',(44.,-8.,3.));
#1638=CARTESIAN_POINT('',(44.,-54.,3.));
#1639=CARTESIAN_POINT('',(44.,-17.,3.));
#1640=CARTESIAN_POINT('',(44.,-54.,3.));
#1641=CARTESIAN_POINT('',(44.,-48.5,38.));
#1642=CARTESIAN_POINT('Origin',(44.,-31.,38.));
#1643=CARTESIAN_POINT('',(44.,-48.5,83.));
#1644=CARTESIAN_POINT('Origin',(44.,-31.,83.));
#1645=CARTESIAN_POINT('Origin',(42.,-5.,3.));
#1646=CARTESIAN_POINT('',(42.,-3.,13.));
#1647=CARTESIAN_POINT('Origin',(42.,-5.,13.));
#1648=CARTESIAN_POINT('',(42.,-3.,113.));
#1649=CARTESIAN_POINT('Origin',(42.,-5.,113.));
#1650=CARTESIAN_POINT('',(42.,-3.,3.));
#1651=CARTESIAN_POINT('Origin',(3.,-59.,0.));
#1652=CARTESIAN_POINT('',(3.,-62.,113.));
#1653=CARTESIAN_POINT('',(0.,-59.,113.));
#1654=CARTESIAN_POINT('Origin',(3.,-59.,113.));
#1655=CARTESIAN_POINT('',(-1.46619182863028E-31,-59.,0.));
#1656=CARTESIAN_POINT('',(0.,-59.,0.));
#1657=CARTESIAN_POINT('',(3.,-62.,0.));
#1658=CARTESIAN_POINT('Origin',(3.,-59.,0.));
#1659=CARTESIAN_POINT('',(3.,-62.,0.));
#1660=CARTESIAN_POINT('Origin',(23.5,-31.,113.));
#1661=CARTESIAN_POINT('',(44.,-62.,113.));
#1662=CARTESIAN_POINT('',(0.,-62.,113.));
#1663=CARTESIAN_POINT('',(47.,-59.,113.));
#1664=CARTESIAN_POINT('Origin',(44.,-59.,113.));
#1665=CARTESIAN_POINT('',(47.,-3.,113.));
#1666=CARTESIAN_POINT('',(47.,-62.,113.));
#1667=CARTESIAN_POINT('',(44.,0.,113.));
#1668=CARTESIAN_POINT('Origin',(44.,-3.,113.));
#1669=CARTESIAN_POINT('',(3.,0.,113.));
#1670=CARTESIAN_POINT('',(47.,0.,113.));
#1671=CARTESIAN_POINT('',(0.,-3.,113.));
#1672=CARTESIAN_POINT('Origin',(3.,-3.,113.));
#1673=CARTESIAN_POINT('',(0.,-62.,113.));
#1674=CARTESIAN_POINT('',(47.,-3.,113.));
#1675=CARTESIAN_POINT('',(47.,-59.,113.));
#1676=CARTESIAN_POINT('Origin',(0.,-62.,0.));
#1677=CARTESIAN_POINT('',(44.,-62.,0.));
#1678=CARTESIAN_POINT('',(47.,-62.,0.));
#1679=CARTESIAN_POINT('',(44.,-62.,0.));
#1680=CARTESIAN_POINT('',(13.39,-62.,24.31));
#1681=CARTESIAN_POINT('',(13.39,-62.,14.8));
#1682=CARTESIAN_POINT('',(13.39,-62.,11.655));
#1683=CARTESIAN_POINT('',(22.99,-62.,24.31));
#1684=CARTESIAN_POINT('',(10.995,-62.,24.31));
#1685=CARTESIAN_POINT('',(22.99,-62.,14.8));
#1686=CARTESIAN_POINT('',(22.99,-62.,7.9));
#1687=CARTESIAN_POINT('',(7.195,-62.,14.8));
#1688=CARTESIAN_POINT('',(24.33,-62.,24.31));
#1689=CARTESIAN_POINT('',(24.33,-62.,14.8));
#1690=CARTESIAN_POINT('',(24.33,-62.,11.655));
#1691=CARTESIAN_POINT('',(33.93,-62.,24.31));
#1692=CARTESIAN_POINT('',(16.465,-62.,24.31));
#1693=CARTESIAN_POINT('',(33.93,-62.,14.8));
#1694=CARTESIAN_POINT('',(33.93,-62.,7.9));
#1695=CARTESIAN_POINT('',(12.665,-62.,14.8));
#1696=CARTESIAN_POINT('Origin',(44.,-59.,0.));
#1697=CARTESIAN_POINT('',(47.,-59.,0.));
#1698=CARTESIAN_POINT('Origin',(44.,-59.,0.));
#1699=CARTESIAN_POINT('',(47.,-59.,0.));
#1700=CARTESIAN_POINT('Origin',(3.,-3.,0.));
#1701=CARTESIAN_POINT('',(3.,-9.83453588623269E-33,0.));
#1702=CARTESIAN_POINT('',(3.,0.,0.));
#1703=CARTESIAN_POINT('',(-7.4552126879506E-33,-3.,0.));
#1704=CARTESIAN_POINT('Origin',(3.,-3.,0.));
#1705=CARTESIAN_POINT('',(0.,-3.,0.));
#1706=CARTESIAN_POINT('Origin',(47.,-1.54074395550979E-31,0.));
#1707=CARTESIAN_POINT('',(44.,-1.44239859664746E-31,0.));
#1708=CARTESIAN_POINT('',(44.,0.,0.));
#1709=CARTESIAN_POINT('',(0.,0.,0.));
#1710=CARTESIAN_POINT('',(30.93,0.,22.5));
#1711=CARTESIAN_POINT('',(30.93,2.14228973388436E-32,12.8));
#1712=CARTESIAN_POINT('',(30.93,0.,9.75));
#1713=CARTESIAN_POINT('',(14.93,5.74828622550301E-32,22.5));
#1714=CARTESIAN_POINT('',(32.465,0.,22.5));
#1715=CARTESIAN_POINT('',(14.93,2.36031250561782E-58,12.8));
#1716=CARTESIAN_POINT('',(14.93,0.,7.9));
#1717=CARTESIAN_POINT('',(37.465,0.,12.8));
#1718=CARTESIAN_POINT('Origin',(44.,-3.,0.));
#1719=CARTESIAN_POINT('',(47.,-3.,0.));
#1720=CARTESIAN_POINT('',(47.,-3.,0.));
#1721=CARTESIAN_POINT('Origin',(44.,-3.,0.));
#1722=CARTESIAN_POINT('Origin',(39.,-8.,3.));
#1723=CARTESIAN_POINT('',(39.,-8.,3.));
#1724=CARTESIAN_POINT('',(31.25,-8.,3.));
#1725=CARTESIAN_POINT('',(39.,-8.,13.));
#1726=CARTESIAN_POINT('',(39.,-8.,13.));
#1727=CARTESIAN_POINT('',(39.,-8.,3.));
#1728=CARTESIAN_POINT('Origin',(39.,-3.,3.));
#1729=CARTESIAN_POINT('',(39.,-3.,3.));
#1730=CARTESIAN_POINT('',(39.,-17.,3.));
#1731=CARTESIAN_POINT('',(39.,-3.,13.));
#1732=CARTESIAN_POINT('',(39.,-3.,13.));
#1733=CARTESIAN_POINT('',(39.,-3.,3.));
#1734=CARTESIAN_POINT('Origin',(41.5,-5.5,13.));
#1735=CARTESIAN_POINT('',(22.25,-3.,13.));
#1736=CARTESIAN_POINT('Origin',(8.,-8.,3.));
#1737=CARTESIAN_POINT('',(8.,-3.,3.));
#1738=CARTESIAN_POINT('',(8.,-8.,3.));
#1739=CARTESIAN_POINT('',(8.,-19.5,3.));
#1740=CARTESIAN_POINT('',(8.,-3.,3.));
#1741=CARTESIAN_POINT('',(8.,-8.,3.));
#1742=CARTESIAN_POINT('Origin',(3.,-8.,3.));
#1743=CARTESIAN_POINT('',(13.25,-8.,3.));
#1744=CARTESIAN_POINT('Origin',(23.5,-31.,3.));
#1745=CARTESIAN_POINT('',(13.25,-3.,3.));
#1746=CARTESIAN_POINT('',(8.,-54.,3.));
#1747=CARTESIAN_POINT('',(15.75,-54.,3.));
#1748=CARTESIAN_POINT('',(8.,-59.,3.));
#1749=CARTESIAN_POINT('',(8.,-45.,3.));
#1750=CARTESIAN_POINT('',(39.,-59.,3.));
#1751=CARTESIAN_POINT('',(33.75,-59.,3.));
#1752=CARTESIAN_POINT('',(39.,-54.,3.));
#1753=CARTESIAN_POINT('',(39.,-42.5,3.));
#1754=CARTESIAN_POINT('',(33.75,-54.,3.));
#1755=CARTESIAN_POINT('Origin',(39.,-54.,3.));
#1756=CARTESIAN_POINT('',(39.,-59.,3.));
#1757=CARTESIAN_POINT('',(39.,-54.,3.));
#1758=CARTESIAN_POINT('Origin',(44.,-54.,3.));
#1759=CARTESIAN_POINT('Origin',(8.,-54.,3.));
#1760=CARTESIAN_POINT('',(8.,-54.,13.));
#1761=CARTESIAN_POINT('',(8.,-54.,13.));
#1762=CARTESIAN_POINT('',(8.,-54.,3.));
#1763=CARTESIAN_POINT('Origin',(8.,-59.,3.));
#1764=CARTESIAN_POINT('',(8.,-59.,13.));
#1765=CARTESIAN_POINT('',(8.,-59.,13.));
#1766=CARTESIAN_POINT('',(8.,-59.,3.));
#1767=CARTESIAN_POINT('Origin',(5.5,-56.5,13.));
#1768=CARTESIAN_POINT('',(24.75,-59.,13.));
#1769=CARTESIAN_POINT('Origin',(44.,-59.,3.));
#1770=CARTESIAN_POINT('',(14.39,-59.0000000000006,23.31));
#1771=CARTESIAN_POINT('',(14.39,-59.0000000000006,15.8));
#1772=CARTESIAN_POINT('',(14.39,-59.,13.155));
#1773=CARTESIAN_POINT('',(21.99,-59.0000000000006,15.8));
#1774=CARTESIAN_POINT('',(29.195,-59.,15.8));
#1775=CARTESIAN_POINT('',(21.99,-59.,23.31));
#1776=CARTESIAN_POINT('',(21.99,-59.,9.4));
#1777=CARTESIAN_POINT('',(32.995,-59.,23.31));
#1778=CARTESIAN_POINT('',(25.33,-59.,23.31));
#1779=CARTESIAN_POINT('',(25.33,-59.,15.8));
#1780=CARTESIAN_POINT('',(25.33,-59.,13.155));
#1781=CARTESIAN_POINT('',(32.93,-59.,15.8));
#1782=CARTESIAN_POINT('',(34.665,-59.,15.8));
#1783=CARTESIAN_POINT('',(32.93,-59.,23.31));
#1784=CARTESIAN_POINT('',(32.93,-59.,9.4));
#1785=CARTESIAN_POINT('',(38.465,-59.,23.31));
#1786=CARTESIAN_POINT('Origin',(45.,-31.,38.));
#1787=CARTESIAN_POINT('',(47.,-31.,18.5));
#1788=CARTESIAN_POINT('Origin',(47.,-31.,38.));
#1789=CARTESIAN_POINT('',(45.,-31.,20.5));
#1790=CARTESIAN_POINT('Origin',(45.,-31.,18.5));
#1791=CARTESIAN_POINT('',(45.,-48.5,38.));
#1792=CARTESIAN_POINT('Origin',(45.,-31.,38.));
#1793=CARTESIAN_POINT('Origin',(45.,-31.,38.));
#1794=CARTESIAN_POINT('Origin',(47.,-62.,0.));
#1795=CARTESIAN_POINT('',(47.,-1.54074395550979E-31,0.));
#1796=CARTESIAN_POINT('',(47.,-31.,63.5));
#1797=CARTESIAN_POINT('Origin',(47.,-31.,83.));
#1798=CARTESIAN_POINT('Origin',(47.,-31.,38.));
#1799=CARTESIAN_POINT('',(47.,-48.5,38.));
#1800=CARTESIAN_POINT('Origin',(45.,-31.,83.));
#1801=CARTESIAN_POINT('',(45.,-31.,65.5));
#1802=CARTESIAN_POINT('Origin',(45.,-31.,63.5));
#1803=CARTESIAN_POINT('',(45.,-48.5,83.));
#1804=CARTESIAN_POINT('Origin',(45.,-31.,83.));
#1805=CARTESIAN_POINT('Origin',(45.,-31.,83.));
#1806=CARTESIAN_POINT('Origin',(47.,-31.,83.));
#1807=CARTESIAN_POINT('',(47.,-48.5,83.));
#1808=CARTESIAN_POINT('Origin',(30.93,-3.,9.75));
#1809=CARTESIAN_POINT('',(27.93,-2.99999999999928,15.8));
#1810=CARTESIAN_POINT('Origin',(30.93,-3.,12.8));
#1811=CARTESIAN_POINT('',(27.93,-2.99999999999928,19.5));
#1812=CARTESIAN_POINT('',(27.93,-3.,11.25));
#1813=CARTESIAN_POINT('Origin',(30.93,-3.,22.5));
#1814=CARTESIAN_POINT('Origin',(32.465,-3.,22.5));
#1815=CARTESIAN_POINT('',(17.93,-3.00000000000002,19.5));
#1816=CARTESIAN_POINT('',(10.465,-3.,19.5));
#1817=CARTESIAN_POINT('Origin',(14.93,-3.,22.5));
#1818=CARTESIAN_POINT('Origin',(14.93,-3.,7.9));
#1819=CARTESIAN_POINT('',(17.93,-2.99999999999928,15.8));
#1820=CARTESIAN_POINT('',(17.93,-3.,9.4));
#1821=CARTESIAN_POINT('Origin',(14.93,-3.,12.8));
#1822=CARTESIAN_POINT('Origin',(37.465,-3.,12.8));
#1823=CARTESIAN_POINT('',(15.465,-3.,15.8));
#1824=CARTESIAN_POINT('Origin',(24.83,-61.5,11.655));
#1825=CARTESIAN_POINT('',(25.33,-61.,15.8));
#1826=CARTESIAN_POINT('',(24.33,-62.,14.8));
#1827=CARTESIAN_POINT('',(25.33,-61.,23.31));
#1828=CARTESIAN_POINT('',(25.33,-61.,11.655));
#1829=CARTESIAN_POINT('',(25.33,-61.,23.31));
#1830=CARTESIAN_POINT('Origin',(12.665,-61.5,15.3));
#1831=CARTESIAN_POINT('',(32.93,-61.,15.8));
#1832=CARTESIAN_POINT('',(12.665,-61.,15.8));
#1833=CARTESIAN_POINT('',(32.93,-61.,15.8));
#1834=CARTESIAN_POINT('Origin',(16.465,-61.5,23.81));
#1835=CARTESIAN_POINT('',(32.93,-61.,23.31));
#1836=CARTESIAN_POINT('',(16.465,-61.,23.31));
#1837=CARTESIAN_POINT('',(32.93,-61.,23.31));
#1838=CARTESIAN_POINT('Origin',(33.43,-61.5,7.9));
#1839=CARTESIAN_POINT('',(32.93,-61.,7.9));
#1840=CARTESIAN_POINT('Origin',(32.93,-59.,23.31));
#1841=CARTESIAN_POINT('',(25.33,-59.,23.31));
#1842=CARTESIAN_POINT('',(32.93,-59.,23.31));
#1843=CARTESIAN_POINT('Origin',(25.33,-59.,23.31));
#1844=CARTESIAN_POINT('',(25.33,-59.,15.8));
#1845=CARTESIAN_POINT('Origin',(13.89,-61.5,11.655));
#1846=CARTESIAN_POINT('',(14.39,-61.,15.8));
#1847=CARTESIAN_POINT('',(14.39,-61.,23.31));
#1848=CARTESIAN_POINT('',(14.39,-61.,11.655));
#1849=CARTESIAN_POINT('',(14.39,-61.,23.31));
#1850=CARTESIAN_POINT('',(13.39,-62.,14.8));
#1851=CARTESIAN_POINT('Origin',(10.995,-61.5,23.81));
#1852=CARTESIAN_POINT('',(21.99,-61.,23.31));
#1853=CARTESIAN_POINT('',(10.995,-61.,23.31));
#1854=CARTESIAN_POINT('',(21.99,-61.,23.31));
#1855=CARTESIAN_POINT('Origin',(22.49,-61.5,7.9));
#1856=CARTESIAN_POINT('',(21.99,-61.,15.8));
#1857=CARTESIAN_POINT('',(21.99,-61.,7.9));
#1858=CARTESIAN_POINT('',(21.99,-61.,15.8));
#1859=CARTESIAN_POINT('Origin',(7.195,-61.5,15.3));
#1860=CARTESIAN_POINT('',(7.195,-61.,15.8));
#1861=CARTESIAN_POINT('Origin',(21.99,-59.,23.31));
#1862=CARTESIAN_POINT('',(14.39,-59.0000000000006,23.31));
#1863=CARTESIAN_POINT('',(21.99,-59.,23.31));
#1864=CARTESIAN_POINT('Origin',(14.39,-59.0000000000006,23.31));
#1865=CARTESIAN_POINT('',(14.39,-59.0000000000006,15.8));
#1866=CARTESIAN_POINT('Origin',(3.,-27.,10.8));
#1867=CARTESIAN_POINT('',(0.,-27.,24.6));
#1868=CARTESIAN_POINT('',(-2.98208507518024E-32,-27.,12.8));
#1869=CARTESIAN_POINT('',(0.,-27.,10.8));
#1870=CARTESIAN_POINT('Origin',(3.,-27.,12.8));
#1871=CARTESIAN_POINT('Origin',(3.,-27.,24.6));
#1872=CARTESIAN_POINT('Origin',(3.,-39.1,7.9));
#1873=CARTESIAN_POINT('',(0.,-39.1,12.8));
#1874=CARTESIAN_POINT('Origin',(3.,-39.1,12.8));
#1875=CARTESIAN_POINT('',(-5.23107423604533E-32,-39.1,24.6));
#1876=CARTESIAN_POINT('',(0.,-39.1,7.9));
#1877=CARTESIAN_POINT('Origin',(3.,-39.1,24.6));
#1878=CARTESIAN_POINT('Origin',(3.,-15.,12.8));
#1879=CARTESIAN_POINT('',(0.,-15.,12.8));
#1880=CARTESIAN_POINT('Origin',(3.,-18.05,24.6));
#1881=CARTESIAN_POINT('',(0.,-18.05,24.6));
#1882=CARTESIAN_POINT('Origin',(0.,0.,0.));
#1883=CARTESIAN_POINT('',(-1.54074395550979E-31,-62.,0.));
#1884=CARTESIAN_POINT('Origin',(32.93,-59.,15.8));
#1885=CARTESIAN_POINT('',(32.93,-59.,15.8));
#1886=CARTESIAN_POINT('Origin',(25.33,-59.,15.8));
#1887=CARTESIAN_POINT('Origin',(21.99,-59.0000000000006,15.8));
#1888=CARTESIAN_POINT('',(21.99,-59.0000000000006,15.8));
#1889=CARTESIAN_POINT('Origin',(14.39,-59.0000000000006,15.8));
#1890=CARTESIAN_POINT('Origin',(3.,-3.,3.));
#1891=CARTESIAN_POINT('Origin',(23.5,-31.,0.));
#1892=UNCERTAINTY_MEASURE_WITH_UNIT(LENGTH_MEASURE(0.01),#1896,
'DISTANCE_ACCURACY_VALUE',
'Maximum model space distance between geometric entities at asserted c
onnectivities');
#1893=UNCERTAINTY_MEASURE_WITH_UNIT(LENGTH_MEASURE(0.01),#1896,
'DISTANCE_ACCURACY_VALUE',
'Maximum model space distance between geometric entities at asserted c
onnectivities');
#1894=(
GEOMETRIC_REPRESENTATION_CONTEXT(3)
GLOBAL_UNCERTAINTY_ASSIGNED_CONTEXT((#1892))
GLOBAL_UNIT_ASSIGNED_CONTEXT((#1896,#1898,#1899))
REPRESENTATION_CONTEXT('','3D')
);
#1895=(
GEOMETRIC_REPRESENTATION_CONTEXT(3)
GLOBAL_UNCERTAINTY_ASSIGNED_CONTEXT((#1893))
GLOBAL_UNIT_ASSIGNED_CONTEXT((#1896,#1898,#1899))
REPRESENTATION_CONTEXT('','3D')
);
#1896=(
LENGTH_UNIT()
NAMED_UNIT(*)
SI_UNIT(.MILLI.,.METRE.)
);
#1897=(
LENGTH_UNIT()
NAMED_UNIT(*)
SI_UNIT($,.METRE.)
);
#1898=(
NAMED_UNIT(*)
PLANE_ANGLE_UNIT()
SI_UNIT($,.RADIAN.)
);
#1899=(
NAMED_UNIT(*)
SI_UNIT($,.STERADIAN.)
SOLID_ANGLE_UNIT()
);
#1900=SHAPE_DEFINITION_REPRESENTATION(#1901,#1902);
#1901=PRODUCT_DEFINITION_SHAPE('',$,#1904);
#1902=SHAPE_REPRESENTATION('',(#1160),#1894);
#1903=PRODUCT_DEFINITION_CONTEXT('part definition',#1908,'design');
#1904=PRODUCT_DEFINITION('2026-09-14-20-59-23-248','Bottom case',#1905,
#1903);
#1905=PRODUCT_DEFINITION_FORMATION('',$,#1910);
#1906=PRODUCT_RELATED_PRODUCT_CATEGORY('Bottom case','Bottom case',(#1910));
#1907=APPLICATION_PROTOCOL_DEFINITION('international standard',
'automotive_design',2009,#1908);
#1908=APPLICATION_CONTEXT(
'Core Data for Automotive Mechanical Design Process');
#1909=PRODUCT_CONTEXT('part definition',#1908,'mechanical');
#1910=PRODUCT('2026-09-14-20-59-23-248','Bottom case',$,(#1909));
#1911=PRESENTATION_STYLE_ASSIGNMENT((#1912));
#1912=SURFACE_STYLE_USAGE(.BOTH.,#1913);
#1913=SURFACE_SIDE_STYLE('',(#1914));
#1914=SURFACE_STYLE_FILL_AREA(#1915);
#1915=FILL_AREA_STYLE('Steel - Satin',(#1916));
#1916=FILL_AREA_STYLE_COLOUR('Steel - Satin',#1917);
#1917=COLOUR_RGB('Steel - Satin',0.627450980392157,0.627450980392157,0.627450980392157);
ENDSEC;
END-ISO-10303-21;
