ISO-10303-21;
HEADER;
/* Generated by software containing ST-Developer
 * from STEP Tools, Inc. (www.steptools.com) 
 */

FILE_DESCRIPTION(
/* description */ (''),
/* implementation_level */ '2;1');

FILE_NAME(
/* name */ 'Top case.step',
/* time_stamp */ '2026-09-15T13:07:06+05:30',
/* author */ (''),
/* organization */ (''),
/* preprocessor_version */ 'ST-DEVELOPER v20.2',
/* originating_system */ 'Autodesk Translation Framework v15.15.0.0',
/* authorisation */ '');

FILE_SCHEMA (('AUTOMOTIVE_DESIGN { 1 0 10303 214 3 1 1 }'));
ENDSEC;

DATA;
#10=MECHANICAL_DESIGN_GEOMETRIC_PRESENTATION_REPRESENTATION('',(#13),#570);
#11=SHAPE_REPRESENTATION_RELATIONSHIP('SRR','None',#577,#12);
#12=ADVANCED_BREP_SHAPE_REPRESENTATION('',(#14),#569);
#13=STYLED_ITEM('',(#586),#14);
#14=MANIFOLD_SOLID_BREP('Body1',#330);
#15=FACE_BOUND('',#54,.T.);
#16=PLANE('',#347);
#17=PLANE('',#351);
#18=PLANE('',#355);
#19=PLANE('',#359);
#20=PLANE('',#360);
#21=PLANE('',#366);
#22=PLANE('',#369);
#23=PLANE('',#372);
#24=PLANE('',#373);
#25=PLANE('',#374);
#26=PLANE('',#375);
#27=FACE_OUTER_BOUND('',#45,.T.);
#28=FACE_OUTER_BOUND('',#46,.T.);
#29=FACE_OUTER_BOUND('',#47,.T.);
#30=FACE_OUTER_BOUND('',#48,.T.);
#31=FACE_OUTER_BOUND('',#49,.T.);
#32=FACE_OUTER_BOUND('',#50,.T.);
#33=FACE_OUTER_BOUND('',#51,.T.);
#34=FACE_OUTER_BOUND('',#52,.T.);
#35=FACE_OUTER_BOUND('',#53,.T.);
#36=FACE_OUTER_BOUND('',#55,.T.);
#37=FACE_OUTER_BOUND('',#56,.T.);
#38=FACE_OUTER_BOUND('',#57,.T.);
#39=FACE_OUTER_BOUND('',#58,.T.);
#40=FACE_OUTER_BOUND('',#59,.T.);
#41=FACE_OUTER_BOUND('',#60,.T.);
#42=FACE_OUTER_BOUND('',#61,.T.);
#43=FACE_OUTER_BOUND('',#62,.T.);
#44=FACE_OUTER_BOUND('',#63,.T.);
#45=EDGE_LOOP('',(#215,#216,#217,#218));
#46=EDGE_LOOP('',(#219,#220,#221,#222));
#47=EDGE_LOOP('',(#223,#224,#225,#226));
#48=EDGE_LOOP('',(#227,#228,#229,#230));
#49=EDGE_LOOP('',(#231,#232,#233,#234));
#50=EDGE_LOOP('',(#235,#236,#237,#238));
#51=EDGE_LOOP('',(#239,#240,#241,#242));
#52=EDGE_LOOP('',(#243,#244,#245,#246));
#53=EDGE_LOOP('',(#247,#248,#249,#250,#251,#252,#253,#254));
#54=EDGE_LOOP('',(#255,#256,#257,#258,#259,#260,#261));
#55=EDGE_LOOP('',(#262,#263,#264,#265));
#56=EDGE_LOOP('',(#266,#267,#268,#269));
#57=EDGE_LOOP('',(#270,#271,#272,#273));
#58=EDGE_LOOP('',(#274,#275,#276,#277));
#59=EDGE_LOOP('',(#278,#279,#280,#281));
#60=EDGE_LOOP('',(#282,#283,#284,#285));
#61=EDGE_LOOP('',(#286,#287,#288,#289));
#62=EDGE_LOOP('',(#290,#291,#292,#293,#294,#295,#296));
#63=EDGE_LOOP('',(#297,#298,#299,#300,#301,#302,#303,#304));
#64=LINE('',#479,#95);
#65=LINE('',#482,#96);
#66=LINE('',#485,#97);
#67=LINE('',#487,#98);
#68=LINE('',#488,#99);
#69=LINE('',#494,#100);
#70=LINE('',#497,#101);
#71=LINE('',#500,#102);
#72=LINE('',#502,#103);
#73=LINE('',#503,#104);
#74=LINE('',#509,#105);
#75=LINE('',#511,#106);
#76=LINE('',#512,#107);
#77=LINE('',#518,#108);
#78=LINE('',#521,#109);
#79=LINE('',#524,#110);
#80=LINE('',#526,#111);
#81=LINE('',#527,#112);
#82=LINE('',#530,#113);
#83=LINE('',#534,#114);
#84=LINE('',#538,#115);
#85=LINE('',#540,#116);
#86=LINE('',#543,#117);
#87=LINE('',#547,#118);
#88=LINE('',#548,#119);
#89=LINE('',#551,#120);
#90=LINE('',#555,#121);
#91=LINE('',#556,#122);
#92=LINE('',#559,#123);
#93=LINE('',#562,#124);
#94=LINE('',#564,#125);
#95=VECTOR('',#382,10.);
#96=VECTOR('',#385,10.);
#97=VECTOR('',#388,10.);
#98=VECTOR('',#389,10.);
#99=VECTOR('',#390,10.);
#100=VECTOR('',#395,10.);
#101=VECTOR('',#398,10.);
#102=VECTOR('',#401,10.);
#103=VECTOR('',#402,10.);
#104=VECTOR('',#403,10.);
#105=VECTOR('',#410,10.);
#106=VECTOR('',#413,10.);
#107=VECTOR('',#414,10.);
#108=VECTOR('',#419,10.);
#109=VECTOR('',#422,10.);
#110=VECTOR('',#425,10.);
#111=VECTOR('',#426,10.);
#112=VECTOR('',#427,10.);
#113=VECTOR('',#430,10.);
#114=VECTOR('',#433,10.);
#115=VECTOR('',#436,10.);
#116=VECTOR('',#439,10.);
#117=VECTOR('',#442,10.);
#118=VECTOR('',#447,10.);
#119=VECTOR('',#448,10.);
#120=VECTOR('',#451,10.);
#121=VECTOR('',#456,10.);
#122=VECTOR('',#457,10.);
#123=VECTOR('',#460,10.);
#124=VECTOR('',#465,10.);
#125=VECTOR('',#468,10.);
#126=CIRCLE('',#345,2.);
#127=CIRCLE('',#346,2.);
#128=CIRCLE('',#349,2.);
#129=CIRCLE('',#350,2.);
#130=CIRCLE('',#353,2.);
#131=CIRCLE('',#354,2.);
#132=CIRCLE('',#357,3.);
#133=CIRCLE('',#358,3.);
#134=CIRCLE('',#361,3.);
#135=CIRCLE('',#362,3.);
#136=CIRCLE('',#363,3.);
#137=CIRCLE('',#365,3.);
#138=CIRCLE('',#368,3.);
#139=CIRCLE('',#371,3.);
#140=VERTEX_POINT('',#475);
#141=VERTEX_POINT('',#476);
#142=VERTEX_POINT('',#478);
#143=VERTEX_POINT('',#480);
#144=VERTEX_POINT('',#484);
#145=VERTEX_POINT('',#486);
#146=VERTEX_POINT('',#490);
#147=VERTEX_POINT('',#491);
#148=VERTEX_POINT('',#493);
#149=VERTEX_POINT('',#495);
#150=VERTEX_POINT('',#499);
#151=VERTEX_POINT('',#501);
#152=VERTEX_POINT('',#505);
#153=VERTEX_POINT('',#507);
#154=VERTEX_POINT('',#514);
#155=VERTEX_POINT('',#515);
#156=VERTEX_POINT('',#517);
#157=VERTEX_POINT('',#519);
#158=VERTEX_POINT('',#523);
#159=VERTEX_POINT('',#525);
#160=VERTEX_POINT('',#529);
#161=VERTEX_POINT('',#531);
#162=VERTEX_POINT('',#533);
#163=VERTEX_POINT('',#535);
#164=VERTEX_POINT('',#537);
#165=VERTEX_POINT('',#542);
#166=VERTEX_POINT('',#546);
#167=VERTEX_POINT('',#550);
#168=VERTEX_POINT('',#554);
#169=VERTEX_POINT('',#558);
#170=EDGE_CURVE('',#140,#141,#126,.T.);
#171=EDGE_CURVE('',#140,#142,#64,.T.);
#172=EDGE_CURVE('',#142,#143,#127,.T.);
#173=EDGE_CURVE('',#143,#141,#65,.T.);
#174=EDGE_CURVE('',#144,#143,#66,.T.);
#175=EDGE_CURVE('',#145,#144,#67,.T.);
#176=EDGE_CURVE('',#141,#145,#68,.T.);
#177=EDGE_CURVE('',#146,#147,#128,.T.);
#178=EDGE_CURVE('',#146,#148,#69,.T.);
#179=EDGE_CURVE('',#148,#149,#129,.T.);
#180=EDGE_CURVE('',#149,#147,#70,.T.);
#181=EDGE_CURVE('',#150,#149,#71,.T.);
#182=EDGE_CURVE('',#151,#150,#72,.T.);
#183=EDGE_CURVE('',#147,#151,#73,.T.);
#184=EDGE_CURVE('',#145,#152,#130,.T.);
#185=EDGE_CURVE('',#144,#153,#131,.T.);
#186=EDGE_CURVE('',#153,#152,#74,.T.);
#187=EDGE_CURVE('',#152,#146,#75,.T.);
#188=EDGE_CURVE('',#148,#153,#76,.T.);
#189=EDGE_CURVE('',#154,#155,#132,.T.);
#190=EDGE_CURVE('',#155,#156,#77,.T.);
#191=EDGE_CURVE('',#156,#157,#133,.T.);
#192=EDGE_CURVE('',#157,#154,#78,.T.);
#193=EDGE_CURVE('',#158,#155,#79,.T.);
#194=EDGE_CURVE('',#159,#158,#80,.T.);
#195=EDGE_CURVE('',#156,#159,#81,.T.);
#196=EDGE_CURVE('',#154,#160,#82,.T.);
#197=EDGE_CURVE('',#161,#160,#134,.T.);
#198=EDGE_CURVE('',#161,#162,#83,.T.);
#199=EDGE_CURVE('',#163,#162,#135,.T.);
#200=EDGE_CURVE('',#163,#164,#84,.T.);
#201=EDGE_CURVE('',#158,#164,#136,.T.);
#202=EDGE_CURVE('',#142,#150,#85,.T.);
#203=EDGE_CURVE('',#164,#165,#86,.T.);
#204=EDGE_CURVE('',#165,#159,#137,.T.);
#205=EDGE_CURVE('',#166,#163,#87,.T.);
#206=EDGE_CURVE('',#165,#166,#88,.T.);
#207=EDGE_CURVE('',#162,#167,#89,.T.);
#208=EDGE_CURVE('',#167,#166,#138,.T.);
#209=EDGE_CURVE('',#168,#161,#90,.T.);
#210=EDGE_CURVE('',#167,#168,#91,.T.);
#211=EDGE_CURVE('',#160,#169,#92,.T.);
#212=EDGE_CURVE('',#169,#168,#139,.T.);
#213=EDGE_CURVE('',#169,#157,#93,.T.);
#214=EDGE_CURVE('',#151,#140,#94,.T.);
#215=ORIENTED_EDGE('',*,*,#170,.F.);
#216=ORIENTED_EDGE('',*,*,#171,.T.);
#217=ORIENTED_EDGE('',*,*,#172,.T.);
#218=ORIENTED_EDGE('',*,*,#173,.T.);
#219=ORIENTED_EDGE('',*,*,#173,.F.);
#220=ORIENTED_EDGE('',*,*,#174,.F.);
#221=ORIENTED_EDGE('',*,*,#175,.F.);
#222=ORIENTED_EDGE('',*,*,#176,.F.);
#223=ORIENTED_EDGE('',*,*,#177,.F.);
#224=ORIENTED_EDGE('',*,*,#178,.T.);
#225=ORIENTED_EDGE('',*,*,#179,.T.);
#226=ORIENTED_EDGE('',*,*,#180,.T.);
#227=ORIENTED_EDGE('',*,*,#180,.F.);
#228=ORIENTED_EDGE('',*,*,#181,.F.);
#229=ORIENTED_EDGE('',*,*,#182,.F.);
#230=ORIENTED_EDGE('',*,*,#183,.F.);
#231=ORIENTED_EDGE('',*,*,#184,.F.);
#232=ORIENTED_EDGE('',*,*,#175,.T.);
#233=ORIENTED_EDGE('',*,*,#185,.T.);
#234=ORIENTED_EDGE('',*,*,#186,.T.);
#235=ORIENTED_EDGE('',*,*,#178,.F.);
#236=ORIENTED_EDGE('',*,*,#187,.F.);
#237=ORIENTED_EDGE('',*,*,#186,.F.);
#238=ORIENTED_EDGE('',*,*,#188,.F.);
#239=ORIENTED_EDGE('',*,*,#189,.T.);
#240=ORIENTED_EDGE('',*,*,#190,.T.);
#241=ORIENTED_EDGE('',*,*,#191,.T.);
#242=ORIENTED_EDGE('',*,*,#192,.T.);
#243=ORIENTED_EDGE('',*,*,#190,.F.);
#244=ORIENTED_EDGE('',*,*,#193,.F.);
#245=ORIENTED_EDGE('',*,*,#194,.F.);
#246=ORIENTED_EDGE('',*,*,#195,.F.);
#247=ORIENTED_EDGE('',*,*,#189,.F.);
#248=ORIENTED_EDGE('',*,*,#196,.T.);
#249=ORIENTED_EDGE('',*,*,#197,.F.);
#250=ORIENTED_EDGE('',*,*,#198,.T.);
#251=ORIENTED_EDGE('',*,*,#199,.F.);
#252=ORIENTED_EDGE('',*,*,#200,.T.);
#253=ORIENTED_EDGE('',*,*,#201,.F.);
#254=ORIENTED_EDGE('',*,*,#193,.T.);
#255=ORIENTED_EDGE('',*,*,#181,.T.);
#256=ORIENTED_EDGE('',*,*,#179,.F.);
#257=ORIENTED_EDGE('',*,*,#188,.T.);
#258=ORIENTED_EDGE('',*,*,#185,.F.);
#259=ORIENTED_EDGE('',*,*,#174,.T.);
#260=ORIENTED_EDGE('',*,*,#172,.F.);
#261=ORIENTED_EDGE('',*,*,#202,.T.);
#262=ORIENTED_EDGE('',*,*,#201,.T.);
#263=ORIENTED_EDGE('',*,*,#203,.T.);
#264=ORIENTED_EDGE('',*,*,#204,.T.);
#265=ORIENTED_EDGE('',*,*,#194,.T.);
#266=ORIENTED_EDGE('',*,*,#203,.F.);
#267=ORIENTED_EDGE('',*,*,#200,.F.);
#268=ORIENTED_EDGE('',*,*,#205,.F.);
#269=ORIENTED_EDGE('',*,*,#206,.F.);
#270=ORIENTED_EDGE('',*,*,#199,.T.);
#271=ORIENTED_EDGE('',*,*,#207,.T.);
#272=ORIENTED_EDGE('',*,*,#208,.T.);
#273=ORIENTED_EDGE('',*,*,#205,.T.);
#274=ORIENTED_EDGE('',*,*,#207,.F.);
#275=ORIENTED_EDGE('',*,*,#198,.F.);
#276=ORIENTED_EDGE('',*,*,#209,.F.);
#277=ORIENTED_EDGE('',*,*,#210,.F.);
#278=ORIENTED_EDGE('',*,*,#197,.T.);
#279=ORIENTED_EDGE('',*,*,#211,.T.);
#280=ORIENTED_EDGE('',*,*,#212,.T.);
#281=ORIENTED_EDGE('',*,*,#209,.T.);
#282=ORIENTED_EDGE('',*,*,#192,.F.);
#283=ORIENTED_EDGE('',*,*,#213,.F.);
#284=ORIENTED_EDGE('',*,*,#211,.F.);
#285=ORIENTED_EDGE('',*,*,#196,.F.);
#286=ORIENTED_EDGE('',*,*,#171,.F.);
#287=ORIENTED_EDGE('',*,*,#214,.F.);
#288=ORIENTED_EDGE('',*,*,#182,.T.);
#289=ORIENTED_EDGE('',*,*,#202,.F.);
#290=ORIENTED_EDGE('',*,*,#170,.T.);
#291=ORIENTED_EDGE('',*,*,#176,.T.);
#292=ORIENTED_EDGE('',*,*,#184,.T.);
#293=ORIENTED_EDGE('',*,*,#187,.T.);
#294=ORIENTED_EDGE('',*,*,#177,.T.);
#295=ORIENTED_EDGE('',*,*,#183,.T.);
#296=ORIENTED_EDGE('',*,*,#214,.T.);
#297=ORIENTED_EDGE('',*,*,#191,.F.);
#298=ORIENTED_EDGE('',*,*,#195,.T.);
#299=ORIENTED_EDGE('',*,*,#204,.F.);
#300=ORIENTED_EDGE('',*,*,#206,.T.);
#301=ORIENTED_EDGE('',*,*,#208,.F.);
#302=ORIENTED_EDGE('',*,*,#210,.T.);
#303=ORIENTED_EDGE('',*,*,#212,.F.);
#304=ORIENTED_EDGE('',*,*,#213,.T.);
#305=CYLINDRICAL_SURFACE('',#344,2.);
#306=CYLINDRICAL_SURFACE('',#348,2.);
#307=CYLINDRICAL_SURFACE('',#352,2.);
#308=CYLINDRICAL_SURFACE('',#356,3.);
#309=CYLINDRICAL_SURFACE('',#364,3.);
#310=CYLINDRICAL_SURFACE('',#367,3.);
#311=CYLINDRICAL_SURFACE('',#370,3.);
#312=ADVANCED_FACE('',(#27),#305,.F.);
#313=ADVANCED_FACE('',(#28),#16,.T.);
#314=ADVANCED_FACE('',(#29),#306,.F.);
#315=ADVANCED_FACE('',(#30),#17,.T.);
#316=ADVANCED_FACE('',(#31),#307,.F.);
#317=ADVANCED_FACE('',(#32),#18,.T.);
#318=ADVANCED_FACE('',(#33),#308,.T.);
#319=ADVANCED_FACE('',(#34),#19,.T.);
#320=ADVANCED_FACE('',(#35,#15),#20,.T.);
#321=ADVANCED_FACE('',(#36),#309,.T.);
#322=ADVANCED_FACE('',(#37),#21,.T.);
#323=ADVANCED_FACE('',(#38),#310,.T.);
#324=ADVANCED_FACE('',(#39),#22,.T.);
#325=ADVANCED_FACE('',(#40),#311,.T.);
#326=ADVANCED_FACE('',(#41),#23,.T.);
#327=ADVANCED_FACE('',(#42),#24,.T.);
#328=ADVANCED_FACE('',(#43),#25,.T.);
#329=ADVANCED_FACE('',(#44),#26,.F.);
#330=CLOSED_SHELL('',(#312,#313,#314,#315,#316,#317,#318,#319,#320,#321,
#322,#323,#324,#325,#326,#327,#328,#329));
#331=DERIVED_UNIT_ELEMENT(#333,1.);
#332=DERIVED_UNIT_ELEMENT(#572,-3.);
#333=(
MASS_UNIT()
NAMED_UNIT(*)
SI_UNIT(.KILO.,.GRAM.)
);
#334=DERIVED_UNIT((#331,#332));
#335=MEASURE_REPRESENTATION_ITEM('density measure',
POSITIVE_RATIO_MEASURE(7850.),#334);
#336=PROPERTY_DEFINITION_REPRESENTATION(#341,#338);
#337=PROPERTY_DEFINITION_REPRESENTATION(#342,#339);
#338=REPRESENTATION('material name',(#340),#569);
#339=REPRESENTATION('density',(#335),#569);
#340=DESCRIPTIVE_REPRESENTATION_ITEM('Steel','Steel');
#341=PROPERTY_DEFINITION('material property','material name',#579);
#342=PROPERTY_DEFINITION('material property','density of part',#579);
#343=AXIS2_PLACEMENT_3D('',#473,#376,#377);
#344=AXIS2_PLACEMENT_3D('',#474,#378,#379);
#345=AXIS2_PLACEMENT_3D('',#477,#380,#381);
#346=AXIS2_PLACEMENT_3D('',#481,#383,#384);
#347=AXIS2_PLACEMENT_3D('',#483,#386,#387);
#348=AXIS2_PLACEMENT_3D('',#489,#391,#392);
#349=AXIS2_PLACEMENT_3D('',#492,#393,#394);
#350=AXIS2_PLACEMENT_3D('',#496,#396,#397);
#351=AXIS2_PLACEMENT_3D('',#498,#399,#400);
#352=AXIS2_PLACEMENT_3D('',#504,#404,#405);
#353=AXIS2_PLACEMENT_3D('',#506,#406,#407);
#354=AXIS2_PLACEMENT_3D('',#508,#408,#409);
#355=AXIS2_PLACEMENT_3D('',#510,#411,#412);
#356=AXIS2_PLACEMENT_3D('',#513,#415,#416);
#357=AXIS2_PLACEMENT_3D('',#516,#417,#418);
#358=AXIS2_PLACEMENT_3D('',#520,#420,#421);
#359=AXIS2_PLACEMENT_3D('',#522,#423,#424);
#360=AXIS2_PLACEMENT_3D('',#528,#428,#429);
#361=AXIS2_PLACEMENT_3D('',#532,#431,#432);
#362=AXIS2_PLACEMENT_3D('',#536,#434,#435);
#363=AXIS2_PLACEMENT_3D('',#539,#437,#438);
#364=AXIS2_PLACEMENT_3D('',#541,#440,#441);
#365=AXIS2_PLACEMENT_3D('',#544,#443,#444);
#366=AXIS2_PLACEMENT_3D('',#545,#445,#446);
#367=AXIS2_PLACEMENT_3D('',#549,#449,#450);
#368=AXIS2_PLACEMENT_3D('',#552,#452,#453);
#369=AXIS2_PLACEMENT_3D('',#553,#454,#455);
#370=AXIS2_PLACEMENT_3D('',#557,#458,#459);
#371=AXIS2_PLACEMENT_3D('',#560,#461,#462);
#372=AXIS2_PLACEMENT_3D('',#561,#463,#464);
#373=AXIS2_PLACEMENT_3D('',#563,#466,#467);
#374=AXIS2_PLACEMENT_3D('',#565,#469,#470);
#375=AXIS2_PLACEMENT_3D('',#566,#471,#472);
#376=DIRECTION('axis',(0.,0.,1.));
#377=DIRECTION('refdir',(1.,0.,0.));
#378=DIRECTION('center_axis',(0.,0.,1.));
#379=DIRECTION('ref_axis',(0.707106781186549,0.707106781186546,0.));
#380=DIRECTION('center_axis',(0.,0.,1.));
#381=DIRECTION('ref_axis',(0.707106781186549,0.707106781186546,0.));
#382=DIRECTION('',(0.,0.,1.));
#383=DIRECTION('center_axis',(0.,0.,1.));
#384=DIRECTION('ref_axis',(0.707106781186549,0.707106781186546,0.));
#385=DIRECTION('',(0.,0.,-1.));
#386=DIRECTION('center_axis',(0.,-1.,0.));
#387=DIRECTION('ref_axis',(1.,0.,0.));
#388=DIRECTION('',(1.,0.,0.));
#389=DIRECTION('',(0.,0.,1.));
#390=DIRECTION('',(-1.,0.,0.));
#391=DIRECTION('center_axis',(0.,0.,1.));
#392=DIRECTION('ref_axis',(-0.707106781186549,-0.707106781186546,0.));
#393=DIRECTION('center_axis',(0.,0.,1.));
#394=DIRECTION('ref_axis',(-0.707106781186549,-0.707106781186546,0.));
#395=DIRECTION('',(0.,0.,1.));
#396=DIRECTION('center_axis',(0.,0.,1.));
#397=DIRECTION('ref_axis',(-0.707106781186549,-0.707106781186546,0.));
#398=DIRECTION('',(0.,0.,-1.));
#399=DIRECTION('center_axis',(0.,1.,0.));
#400=DIRECTION('ref_axis',(-1.,0.,0.));
#401=DIRECTION('',(-1.,0.,0.));
#402=DIRECTION('',(0.,0.,1.));
#403=DIRECTION('',(1.,0.,0.));
#404=DIRECTION('center_axis',(0.,0.,1.));
#405=DIRECTION('ref_axis',(-0.707106781186548,0.707106781186548,0.));
#406=DIRECTION('center_axis',(0.,0.,1.));
#407=DIRECTION('ref_axis',(-0.707106781186548,0.707106781186548,0.));
#408=DIRECTION('center_axis',(0.,0.,1.));
#409=DIRECTION('ref_axis',(-0.707106781186548,0.707106781186548,0.));
#410=DIRECTION('',(0.,0.,-1.));
#411=DIRECTION('center_axis',(1.,0.,0.));
#412=DIRECTION('ref_axis',(0.,1.,0.));
#413=DIRECTION('',(0.,-1.,0.));
#414=DIRECTION('',(0.,1.,0.));
#415=DIRECTION('center_axis',(0.,0.,1.));
#416=DIRECTION('ref_axis',(-0.707106781186547,-0.707106781186548,0.));
#417=DIRECTION('center_axis',(0.,0.,-1.));
#418=DIRECTION('ref_axis',(-0.707106781186547,-0.707106781186548,0.));
#419=DIRECTION('',(0.,0.,-1.));
#420=DIRECTION('center_axis',(0.,0.,1.));
#421=DIRECTION('ref_axis',(-0.707106781186547,-0.707106781186548,0.));
#422=DIRECTION('',(0.,0.,1.));
#423=DIRECTION('center_axis',(-1.,0.,0.));
#424=DIRECTION('ref_axis',(0.,-1.,0.));
#425=DIRECTION('',(0.,-1.,0.));
#426=DIRECTION('',(0.,0.,1.));
#427=DIRECTION('',(0.,1.,0.));
#428=DIRECTION('center_axis',(0.,0.,1.));
#429=DIRECTION('ref_axis',(1.,0.,0.));
#430=DIRECTION('',(1.,0.,0.));
#431=DIRECTION('center_axis',(0.,0.,-1.));
#432=DIRECTION('ref_axis',(0.707106781186548,-0.707106781186548,0.));
#433=DIRECTION('',(0.,1.,0.));
#434=DIRECTION('center_axis',(0.,0.,-1.));
#435=DIRECTION('ref_axis',(0.707106781186549,0.707106781186546,0.));
#436=DIRECTION('',(-1.,0.,0.));
#437=DIRECTION('center_axis',(0.,0.,-1.));
#438=DIRECTION('ref_axis',(-0.707106781186547,0.707106781186548,0.));
#439=DIRECTION('',(0.,-1.,0.));
#440=DIRECTION('center_axis',(0.,0.,1.));
#441=DIRECTION('ref_axis',(-0.707106781186547,0.707106781186548,0.));
#442=DIRECTION('',(0.,0.,-1.));
#443=DIRECTION('center_axis',(0.,0.,1.));
#444=DIRECTION('ref_axis',(-0.707106781186547,0.707106781186548,0.));
#445=DIRECTION('center_axis',(0.,1.,0.));
#446=DIRECTION('ref_axis',(-1.,0.,0.));
#447=DIRECTION('',(0.,0.,1.));
#448=DIRECTION('',(1.,0.,0.));
#449=DIRECTION('center_axis',(0.,0.,1.));
#450=DIRECTION('ref_axis',(0.707106781186549,0.707106781186546,0.));
#451=DIRECTION('',(0.,0.,-1.));
#452=DIRECTION('center_axis',(0.,0.,1.));
#453=DIRECTION('ref_axis',(0.707106781186549,0.707106781186546,0.));
#454=DIRECTION('center_axis',(1.,0.,0.));
#455=DIRECTION('ref_axis',(0.,1.,0.));
#456=DIRECTION('',(0.,0.,1.));
#457=DIRECTION('',(0.,-1.,0.));
#458=DIRECTION('center_axis',(0.,0.,1.));
#459=DIRECTION('ref_axis',(0.707106781186548,-0.707106781186548,0.));
#460=DIRECTION('',(0.,0.,-1.));
#461=DIRECTION('center_axis',(0.,0.,1.));
#462=DIRECTION('ref_axis',(0.707106781186548,-0.707106781186548,0.));
#463=DIRECTION('center_axis',(0.,-1.,0.));
#464=DIRECTION('ref_axis',(1.,0.,0.));
#465=DIRECTION('',(-1.,0.,0.));
#466=DIRECTION('center_axis',(-1.,0.,0.));
#467=DIRECTION('ref_axis',(0.,-1.,0.));
#468=DIRECTION('',(0.,1.,0.));
#469=DIRECTION('center_axis',(0.,0.,1.));
#470=DIRECTION('ref_axis',(1.,0.,0.));
#471=DIRECTION('center_axis',(0.,0.,1.));
#472=DIRECTION('ref_axis',(1.,0.,0.));
#473=CARTESIAN_POINT('',(0.,0.,0.));
#474=CARTESIAN_POINT('Origin',(63.5,-5.,3.));
#475=CARTESIAN_POINT('',(65.5,-5.,3.));
#476=CARTESIAN_POINT('',(63.5,-3.,3.));
#477=CARTESIAN_POINT('Origin',(63.5,-5.,3.));
#478=CARTESIAN_POINT('',(65.5,-5.,13.));
#479=CARTESIAN_POINT('',(65.5,-5.,3.));
#480=CARTESIAN_POINT('',(63.5,-3.,13.));
#481=CARTESIAN_POINT('Origin',(63.5,-5.,13.));
#482=CARTESIAN_POINT('',(63.5,-3.,3.));
#483=CARTESIAN_POINT('Origin',(3.,-3.,3.));
#484=CARTESIAN_POINT('',(5.,-3.,13.));
#485=CARTESIAN_POINT('',(0.,-3.,13.));
#486=CARTESIAN_POINT('',(5.,-3.,3.));
#487=CARTESIAN_POINT('',(5.,-3.,3.));
#488=CARTESIAN_POINT('',(18.625,-3.,3.));
#489=CARTESIAN_POINT('Origin',(5.,-48.5,3.));
#490=CARTESIAN_POINT('',(3.,-48.5,3.));
#491=CARTESIAN_POINT('',(5.,-50.5,3.));
#492=CARTESIAN_POINT('Origin',(5.,-48.5,3.));
#493=CARTESIAN_POINT('',(3.,-48.5,13.));
#494=CARTESIAN_POINT('',(3.,-48.5,3.));
#495=CARTESIAN_POINT('',(5.,-50.5,13.));
#496=CARTESIAN_POINT('Origin',(5.,-48.5,13.));
#497=CARTESIAN_POINT('',(5.,-50.5,3.));
#498=CARTESIAN_POINT('Origin',(65.5,-50.5,3.));
#499=CARTESIAN_POINT('',(65.5,-50.5,13.));
#500=CARTESIAN_POINT('',(68.5,-50.5,13.));
#501=CARTESIAN_POINT('',(65.5,-50.5,3.));
#502=CARTESIAN_POINT('',(65.5,-50.5,3.));
#503=CARTESIAN_POINT('',(49.875,-50.5,3.));
#504=CARTESIAN_POINT('Origin',(5.,-5.,3.));
#505=CARTESIAN_POINT('',(3.,-5.,3.));
#506=CARTESIAN_POINT('Origin',(5.,-5.,3.));
#507=CARTESIAN_POINT('',(3.,-5.,13.));
#508=CARTESIAN_POINT('Origin',(5.,-5.,13.));
#509=CARTESIAN_POINT('',(3.,-5.,3.));
#510=CARTESIAN_POINT('Origin',(3.,-50.5,3.));
#511=CARTESIAN_POINT('',(3.,-38.625,3.));
#512=CARTESIAN_POINT('',(3.,0.,13.));
#513=CARTESIAN_POINT('Origin',(3.,-50.5,0.));
#514=CARTESIAN_POINT('',(3.,-53.5,13.));
#515=CARTESIAN_POINT('',(0.,-50.5,13.));
#516=CARTESIAN_POINT('Origin',(3.,-50.5,13.));
#517=CARTESIAN_POINT('',(0.,-50.5,0.));
#518=CARTESIAN_POINT('',(0.,-50.5,0.));
#519=CARTESIAN_POINT('',(3.,-53.5,0.));
#520=CARTESIAN_POINT('Origin',(3.,-50.5,0.));
#521=CARTESIAN_POINT('',(3.,-53.5,0.));
#522=CARTESIAN_POINT('Origin',(0.,0.,0.));
#523=CARTESIAN_POINT('',(0.,-3.,13.));
#524=CARTESIAN_POINT('',(0.,-53.5,13.));
#525=CARTESIAN_POINT('',(0.,-3.,0.));
#526=CARTESIAN_POINT('',(0.,-3.,0.));
#527=CARTESIAN_POINT('',(0.,-53.5,0.));
#528=CARTESIAN_POINT('Origin',(35.75,-52.,13.));
#529=CARTESIAN_POINT('',(65.5,-53.5,13.));
#530=CARTESIAN_POINT('',(0.,-53.5,13.));
#531=CARTESIAN_POINT('',(68.5,-50.5,13.));
#532=CARTESIAN_POINT('Origin',(65.5,-50.5,13.));
#533=CARTESIAN_POINT('',(68.5,-3.,13.));
#534=CARTESIAN_POINT('',(68.5,-53.5,13.));
#535=CARTESIAN_POINT('',(65.5,0.,13.));
#536=CARTESIAN_POINT('Origin',(65.5,-3.,13.));
#537=CARTESIAN_POINT('',(3.,0.,13.));
#538=CARTESIAN_POINT('',(68.5,0.,13.));
#539=CARTESIAN_POINT('Origin',(3.,-3.,13.));
#540=CARTESIAN_POINT('',(65.5,0.,13.));
#541=CARTESIAN_POINT('Origin',(3.,-3.,0.));
#542=CARTESIAN_POINT('',(3.,0.,0.));
#543=CARTESIAN_POINT('',(3.,0.,0.));
#544=CARTESIAN_POINT('Origin',(3.,-3.,0.));
#545=CARTESIAN_POINT('Origin',(68.5,0.,0.));
#546=CARTESIAN_POINT('',(65.5,0.,0.));
#547=CARTESIAN_POINT('',(65.5,0.,0.));
#548=CARTESIAN_POINT('',(0.,0.,0.));
#549=CARTESIAN_POINT('Origin',(65.5,-3.,0.));
#550=CARTESIAN_POINT('',(68.5,-3.,0.));
#551=CARTESIAN_POINT('',(68.5,-3.,0.));
#552=CARTESIAN_POINT('Origin',(65.5,-3.,0.));
#553=CARTESIAN_POINT('Origin',(68.5,-53.5,0.));
#554=CARTESIAN_POINT('',(68.5,-50.5,0.));
#555=CARTESIAN_POINT('',(68.5,-50.5,0.));
#556=CARTESIAN_POINT('',(68.5,0.,0.));
#557=CARTESIAN_POINT('Origin',(65.5,-50.5,0.));
#558=CARTESIAN_POINT('',(65.5,-53.5,0.));
#559=CARTESIAN_POINT('',(65.5,-53.5,0.));
#560=CARTESIAN_POINT('Origin',(65.5,-50.5,0.));
#561=CARTESIAN_POINT('Origin',(0.,-53.5,0.));
#562=CARTESIAN_POINT('',(68.5,-53.5,0.));
#563=CARTESIAN_POINT('Origin',(65.5,-3.,3.));
#564=CARTESIAN_POINT('',(65.5,-14.875,3.));
#565=CARTESIAN_POINT('Origin',(34.25,-26.75,3.));
#566=CARTESIAN_POINT('Origin',(34.25,-26.75,0.));
#567=UNCERTAINTY_MEASURE_WITH_UNIT(LENGTH_MEASURE(0.01),#571,
'DISTANCE_ACCURACY_VALUE',
'Maximum model space distance between geometric entities at asserted c
onnectivities');
#568=UNCERTAINTY_MEASURE_WITH_UNIT(LENGTH_MEASURE(0.01),#571,
'DISTANCE_ACCURACY_VALUE',
'Maximum model space distance between geometric entities at asserted c
onnectivities');
#569=(
GEOMETRIC_REPRESENTATION_CONTEXT(3)
GLOBAL_UNCERTAINTY_ASSIGNED_CONTEXT((#567))
GLOBAL_UNIT_ASSIGNED_CONTEXT((#571,#573,#574))
REPRESENTATION_CONTEXT('','3D')
);
#570=(
GEOMETRIC_REPRESENTATION_CONTEXT(3)
GLOBAL_UNCERTAINTY_ASSIGNED_CONTEXT((#568))
GLOBAL_UNIT_ASSIGNED_CONTEXT((#571,#573,#574))
REPRESENTATION_CONTEXT('','3D')
);
#571=(
LENGTH_UNIT()
NAMED_UNIT(*)
SI_UNIT(.MILLI.,.METRE.)
);
#572=(
LENGTH_UNIT()
NAMED_UNIT(*)
SI_UNIT($,.METRE.)
);
#573=(
NAMED_UNIT(*)
PLANE_ANGLE_UNIT()
SI_UNIT($,.RADIAN.)
);
#574=(
NAMED_UNIT(*)
SI_UNIT($,.STERADIAN.)
SOLID_ANGLE_UNIT()
);
#575=SHAPE_DEFINITION_REPRESENTATION(#576,#577);
#576=PRODUCT_DEFINITION_SHAPE('',$,#579);
#577=SHAPE_REPRESENTATION('',(#343),#569);
#578=PRODUCT_DEFINITION_CONTEXT('part definition',#583,'design');
#579=PRODUCT_DEFINITION('2026-09-15-10-53-14-531','Top case',#580,#578);
#580=PRODUCT_DEFINITION_FORMATION('',$,#585);
#581=PRODUCT_RELATED_PRODUCT_CATEGORY('Top case','Top case',(#585));
#582=APPLICATION_PROTOCOL_DEFINITION('international standard',
'automotive_design',2009,#583);
#583=APPLICATION_CONTEXT(
'Core Data for Automotive Mechanical Design Process');
#584=PRODUCT_CONTEXT('part definition',#583,'mechanical');
#585=PRODUCT('2026-09-15-10-53-14-531','Top case',$,(#584));
#586=PRESENTATION_STYLE_ASSIGNMENT((#587));
#587=SURFACE_STYLE_USAGE(.BOTH.,#588);
#588=SURFACE_SIDE_STYLE('',(#589));
#589=SURFACE_STYLE_FILL_AREA(#590);
#590=FILL_AREA_STYLE('Steel - Satin',(#591));
#591=FILL_AREA_STYLE_COLOUR('Steel - Satin',#592);
#592=COLOUR_RGB('Steel - Satin',0.627450980392157,0.627450980392157,0.627450980392157);
ENDSEC;
END-ISO-10303-21;
